<?xml version="1.0" encoding="UTF-8"?>
<svg id="Capa_1" data-name="Capa 1" xmlns="http://www.w3.org/2000/svg" viewBox="0 0 792 612">
  <defs>
    <style>
      .cls-1 {
        fill: #fff;
      }

      .cls-2 {
        fill: none;
      }

      .cls-3 {
        fill: #278d37;
      }
    </style>
  </defs>
  <rect class="cls-3" width="792" height="612"/>
  <g>
    <path class="cls-1" d="M367.04,302.12c-14.82,0-28.73,8.37-28.73,26.61s11.99,27.42,30.54,27.42c7.56,0,15.32-1.81,21.37-3.73v-11.89c-5.54,1.72-13.61,3.53-20.97,3.53-5.85,0-14.31-1.61-15.32-9.37h39.01v-7.05c0-16.43-8.87-25.5-25.9-25.5M354.04,325.21c.81-7.76,5.65-11.19,13.11-11.19,6.45,0,10.08,4.23,10.18,11.19h-23.28Z"/>
    <path class="cls-1" d="M432.66,302.12c-5.24,0-10.38,1.51-14.41,3.43v-20.26h-15.22v69.65h11.19l1.11-3.63c4.43,2.52,10.58,4.84,17.94,4.84,14.01,0,27.32-9.78,27.32-27.42,0-18.55-13.2-26.61-27.92-26.61M430.45,343.65c-5.04,0-9.07-1.41-12.2-3.43v-22.38c3.43-1.91,7.66-3.22,12.6-3.22,8.16,0,13.91,4.64,13.91,14.11,0,10.18-6.55,14.92-14.31,14.92"/>
    <path class="cls-1" d="M544.34,290.03h-12.9l-1.71,13.2h-24.25c-4.64,14.51-9.07,26-14.51,37.29-4.54-11.59-12.7-32.96-13.91-37.29h-16.53c1.21,3.83,11.99,31.45,22.88,51.81-3.43,6.25-7.36,12.8-11.89,20.06h15.82c9.92-13.87,22.87-42.91,29.88-59.77h11.92v22.88c0,13.61,8.97,17.94,19.76,17.94,4.74,0,7.66-.5,11.59-1.91v-12.1c-2.72.91-6.45,1.41-8.36,1.41-6.25,0-7.76-3.13-7.76-8.06v-20.16h16.13v-12.1h-16.13v-13.2Z"/>
    <path class="cls-1" d="M581.89,334.68h39.01v-7.05c0-16.43-8.87-25.5-25.9-25.5-14.82,0-28.73,8.37-28.73,26.61s12,27.42,30.54,27.42c7.56,0,15.32-1.81,21.37-3.73v-11.89c-5.54,1.72-13.61,3.53-20.97,3.53-5.85,0-14.31-1.61-15.32-9.37M595.09,314.02c6.45,0,10.08,4.23,10.18,11.19h-23.29c.81-7.76,5.65-11.19,13.1-11.19"/>
    <polygon class="cls-1" points="660.35 329.44 680.41 303.23 662.26 303.23 650.67 320.47 639.58 303.23 620.63 303.23 640.69 329.44 620.73 354.94 639.08 354.94 650.47 338.91 662.97 354.94 681.41 354.94 660.35 329.44"/>
    <path class="cls-1" d="M291.89,265.67l-93.57-50.04v.03c37.16,20.14,56.91,57.08,56.91,108.76,0,44.78-14.85,79.06-44.14,101.87-3.99,3.11-8.27,5.96-12.77,8.58v.1s105.24-55.87,105.24-55.87c15.44-12.03,23.26-30.09,23.26-53.69,0-29.45-12.16-49.83-34.94-59.74"/>
    <path class="cls-1" d="M110.59,274.29h19.14c24.14,0,52.92,8.88,52.92,51.18,0,37.34-16.45,53.27-55.01,53.27h-17.05v-104.44Z"/>
    <path class="cls-1" d="M532.66,202.38c.71.2,1.18-.21,1.66.39-.79.98-1.78,1.61-1.37,3,1.09-1.22,1.91-2.39,3.19-2.39.42,0,.7.78,1.08.86.95.2,1.26.61,1.82,1.52.33.52,1.81.85,2.4.79,1.46-.51,4.19-3.54,4.51-1.68-.96.82-2.29,1.24-3.48,1.88-.37.2-.19.99-.58,1.09-.24.06-.87-.06-1.12.42-.2.39.72.95.57,1.41-.15.48-.84.71-1.02,1.12-.75,1.65-1.75,2.7-3.47,3.31.96.89,1.79-.23,2.57.97-1.17.68-2.25,1.51-3.51,1.64-.48.05-.49-.9-.12-.96.26-.04.94-.28,1.11-.8.12-.36-1.03-.46-1.06-.79-.04-.44.45-1.01.83-1.3.62-.48,0-.98-.48-1.67-.62.41-.76,1.42-1.65,1.69-.47.14-.84-.24-.77-.43.26-.67,1.94-1.11,1.04-1.49-1.1-.46-1.71.93-2.78,2.07,1.24.35,1.51,1.04,1.51,1.85.49-.49,1.04-.5,1.48-.43.3.04.84.42.57.86-.47.76-1.53.84-1.73,1.71,5.03,1.35,4.42-.75,6.97-2.03,1.17-.59,1.77-2.1,3.24-2.17.18.39.41,1.16.79,1.21.94-.48,2.18-.8,2.83-1.5.51-.56-.19-.89-.44-1.05-.73-.47-.78,1.64-2.39,1.13-.3-.1-.35-.97-.74-1.14-.42-.18-1.54.59-1.48-.41.03-.43.91-.52,1.34-.89-.29-.56-1.32-1.29-1.07-1.93.35-.79,2.94.59,2.64,1.74-.09.36-.65.43-1.14.93.73.33,1.54.33,2.46.46-.18-2.31,2.72-2.46,2.16-3.2-.87-1.16-2.29-1.2-3.3-2.35l1.86-1.4c.32-.24-.05-.95-.29-1.16-.17-.16-.34.28-.81.5-.74-1-1.8-.59-3.16-.71.53-1.19,2.05-2.02,3.26-2.45.49.01,1.01,1.17,1.56,1.01.02-.04,3.95-1.73,2.74-2.41-.81-.46-1.58.6-2.35.57-1.16-.04-.98-1.83-1.3-2.68,1.18-.57,1.64.68,2.15.72,1.77.13,2.5-2.05,3.47-3.11.17-.19.68-.15.82-.25.15-.1.43-.28.07-.46l-.63-.3c-.31-.15-.45-.41-.42-.56.04-.17.56-.4.85-.16.28.23.32,1.2.95,1.08.35-.06.99-.28,1.16-.72.13-.35-.28-.68-.15-1.47.82.41,1.62.64,2.65,1.32-2.58,2.05-5.33,3.37-7.13,5.77.81.25,1.04-.29,1.37-.39.43-.13.62.18.54.59-.24,1.38-2.14,1.21-2.97,3.1,2.84.83,1.51-3.16,6.02-1.75l-2.73-2.31c.84-1.04,1.76-1.56,2.98-2.31.23.72,1.26,1.82,1.02,2.01l-.94.73c-.16.12.28.87.48,1.07.9.84,2.49-.99,3.01-1.76-.52-.22-.95-.13-1.23-.37-.18-.16-.04-.75.17-.9,2.73-2.02-.16-.96,2.4-2.41-.21-.61-.94-.99-.78-1.5-.04.14,2.07-2.27,2.76-1.1-.35.44-.82.49-1.19,1.22,2.49,2.13,3.9,1.21,3.5,2.98.55-.33,1.26-.59,1.68-.16.29.3.85,1.25.36,1.46-.55.24-1.15-.28-1.68.4l4.21,2.84c.53.36,1.26.63,1.57.12-2.42-.42,3.49-4.15,3.78-3.56.92,1.68-2.95,2.07-1.34,3.07,1.33-1.44,2.49-2.43,4.34-2.89-.3-.87-.87-.83-1.3-.53-.22.16-.75.64-1.07.54-.26-.31-.08-1.3-.32-1.79-.12-.24-.41-.17-.98-.24-.33-.48-.07-.88.31-1.14.24-.17.78-.04,1.05-.81-1.11-.25-2.16.83-2.92,1.64.42.39.76.47,1.02.87-1.1,1.66-7.37,6.83-3.16.92-.86-.33-1.6.33-1.99,1.22-.37.25-.6.12-.67-.09-.06-.17-.23-.6-.11-.65.21-.08.52-.19.8-.21,1.94-.2-1.42-.76-1.29-2.09.02-.27.79-.39.88-.68l-1.64-1.64c.93-.82,1.94-.28,2.57.55.51-.33,1.01-.45,1.38-1.18-.48-.31-.8.11-.86-.13-.15-.6.04-.99.46-.98,1.38.04-.76.37,1.91,1.18.32.1.04.72.19,1.07.64.09,1.52-.04,1.91-.93-3.42-.54-.67-1.94-3.29-1.48-.62-.73-1.5-1.09-2.56-1.68l3.67-2.5c-2.48-1.06-4.41,2.99-4.97,1.32-.28-.85,1.1-.99,1.56-1.75-1.27-.11-2.08-.52-3.11-.96-3.97,1.49-1.74,2.6-4.94,1.99l.36,1.2c.11.37-.69.56-1.02,1.08-.36.57.89.74,1.27,1.07.32.28-.55,1.3-1.08.88-1.08-.85-2.47-2.29-3.83-2.1-1.37,1.18-3.83,3.05-5.36,4.15-.61.44.73,1.26.81,1.78-.95.44-1.64.9-2.38,1.79-1.46-.71.92-1.41.93-2.34,0-.02-2.02-1.43-2.83-1.21-.37.1-1.06.9-1.53.97-1.06-.65-2.07-1.48-3.5-1.05.23.56.52,1.09.28,1.51-.23.41-.9.26-1.08.83,1.14.49,1.1-1.08,2.25-.42-3.33,5.36-3.55,2.08-5.69,5.04-.8,1.1-1.77.68-2.75.33-1.43-.51-2.29,1.11-3.05,1.96M541.94,213.1c-.31-.1-.87-.27-1.04-.41-.27-.23.2-.69.52-.65.22.02.44-.69.62-.21.13.32.19,1.37-.09,1.28M546.45,207.93c.18-.24.53-.22.74-.11.21.11.36.44.21.81-.1.24-.51.3-.81.16-.27-.14-.41-.51-.14-.86M564.82,193.25c-.31.24-1.06.16-.83-.74.14-.54.84-.27,1.01-.07.22.26.13.58-.18.81M566.49,191.73c-.34.25-.61.37-.84.28-.31-.11-.51-.62-.11-.89.22-.15.46-.13.74-.02.25.1.54.39.21.62M567.19,189.85c.11-.2.44-.19.76-.24.22-.04.43.43.11.77-.15.15-.29.55-.61.3-.17-.14-.43-.51-.25-.82M566.8,188.48c-.05-.08-.12-.17-.21-.24.18.14.24.21.21.24.17.28.15.61-.03.84-.96,1.24-1.98-1.12-4.08-1.2-.87-1.76,3.93.56,4.11.37M557.57,190.06c.48.19.7.62.09,1.02-.41.27-.65.46-.9.44-.14-.02-.22-.06-.43-.34-.16-.22.85-1.27,1.23-1.12M540.56,199.83c.08-.28.46-.11.75-.41.37-.48.63.09.36.56-.43.37-.63.56-.87.44-.23-.11-.31-.35-.24-.59M538.03,201.77c.44-.07.71-.78,1.42-.97.67-.18.83.94,1.2,1.39.88-.83,1.73-1.33,2.87-1.85l-1.15-2.06,2.53-1.69c1.16-.77,2.07-2.22,3.56-1.64-.34.99-1.27.79-1.38,1.85-.13-.17-.32-.24-.62-.14-.4.14-.86,0-.79.54.05.41.48.92.38,1.29-.23.84-1.31,0-2.08.19.25.81,1.11.33,1.81,1.1-1.38,1.37-5.09,4.99-6.82,4.2.08.04-3.74-2.06-3.76-2.31-.02-.39.22-.55.43-.59,1.29-.23,1.08.9,2.4.69"/>
    <path class="cls-1" d="M505.98,237.32c-1.86,1.33.81,2.88,1.68.95.89-.68.7-.78-.34-.93-.26-.89-.98-.89-1.35-.03Z"/>
    <path class="cls-1" d="M563.42,260.02c-.16-.05-.6-.24-.82-.03-2.06,2-4.37,3.44-7.01,4.6-.12-1.03.93-.85,1.23-1.4.77-1.4,1.99-2.06,3.42-2.53-2.24-2.45-.84.52-3.07.3-.57-.05-.55-.67-.94-1.28-.21-.33-1.26-.07-1.36.25-.13.43,0,.97-.31,1.09-1.75.71-1.31-1.42-3.4.03.55.15,1.27.02,1.62.33.4.35-.21,1.06-.48,1.08l-1.04.07c-.36.02-.08.89.19,1.07,1.62,1.05,2.71-2.33,4.54-1.86,1.19,1.6-3.73,1.87-4.21,4.43.06.59,1.15,1.25.26,1.77-.6.35-.93,1.09-1.55,1.02-.74-.08-1.12-1.02-1.74-1.52-.87.73-2,1.57-2.8,2.48,1.61,1.26,2.65,0,3.88-1.08.75,1.35-.77,1.72-1.5,2.68,1.86.16,2.71-2.09,4.66-2.25.59-.05,1.15,1.01,1.77.77.6-.24,1.03-.78,2.17-1.03.64,1.19-4.21,3.08-3.98,3.12-.4-.06-.68-.32-1.06-.69-.39-.37-.93-.09-1.17.21-.78.95,1.26,1.19,1.2,1.93-.06.72-1.99,1.56-.73,1.82,1.3.27.47-1.94,3.36-.93-.13-.41-1.12-1.27-.72-1.65,1.51-1.43,3.25-2.02,5.21-3.31-.97-.52-1.65-2.03-2.97-2.28-.63.32-1.61,1.86-2.2,1.06-.52-.71.91-1.35,1.38-1.74l-1.88.18c-.27-.7.39-1.04.73-1.56.27-.43.83-.3,1.34.08.72,3.38,1.49-.69,3.67-1.83.47-.24,1.18.06,1.22.45.11,1.07-2.14,1.2-.89,2.32.31-.73,2.25-1.48,2.51-.68.46,1.41-2.25,1.35-2.74,2.14-.1.16.03.51.21.53,1.67.21,2.37-1.57,4.06-3.48-.46-.28-.96-.26-1.1-.54-.35-.72,1.56-.8,1.27-1.68-.08-.24-.28-.28-.45-.37-.81-.43-.37.8-1.86,1.17-.31.08-1.26-.25-.97-.7-.35-.56,4.36-2.17,3.03-2.56"/>
    <path class="cls-1" d="M537.13,220.54c.73-.47,1.1-1.82,2.33-.61-.54.7-1.43.66-1.85,1.75,1.24.11,2.04.64,2.96,1.39.6-.42.63-1.38,1.28-1.41.92.23-.03,1.15.03,2.08,1.37-.11,1.8-1.22,2.85-1.63l-2.13-.75c.2-.96.84-1.1,1.52-1.67-2.01.03-3.62,1.8-4.05,1.6-1.19-.58,3.52-2.5,4.55-4.3-1.01-.55-2.09-.88-3-1.12-.46.16-1.42.69-1.69.99.22.51,1.07.35,1.14.64.1.39.08.7-.05.93-.19.33-.94.43-1.28.26-1.04-.54-1.91.1-2.91.15-1.21.06-2.2-.67-3.26.28-.56.5-1.63,1.22-1.26,2.34.31-.56,1.29-1,1.29-.37-.02,2.2-4.64,3.08-4.9,4.98l2.34-.84c.3,2.08-1.7,1.23-2.13,3.04-.5,2.12,1.71-.84,2.56-1.1.28-.09,1.13.16.94.72-.28.83-1.88.78-1.31,2.16.89-1.06,1.9-1.5,3.23-2.31-.37-.87-1.3-.61-1.42-1.37.44-.54.68-.89.63-1.15-.05-.27-.45-.47-.8-.58-.59-.18-.71-.56-.6-1.02-.15.65,4.27-2.59,5.01-3.07"/>
    <path class="cls-1" d="M517.84,275.35c.26-.45.36-.91,1.01-.85.28.03.64.2.51.75-.05.2-.5.36-.35,1.01.62-.1.8-.76,1.17-.69,1.18.2,1.7,1.81,2.58.87l1.12-1.21c-.95,0-1.61.41-2.68.2l1-1.56c.35-.54-.96-.52-1.5-.22l.07-1.87c-1.17.05-1.79.96-2.93,1.43-.26-.84.35-1.26-.28-1.48-.47-.17-.67-.09-1.12.44-.27.32-.62.64-.4.97.15.24.57.21.77.44,1.43,1.64-3.05-.31-3.57-.38,2.66-1.51,4.04-4.04,6.2-3.51-.38-.88-1.28-1.78-2.02-1.43-.29.45-.16,1.07-.42,1.17-.36.15-1,.46-1.29-.02-.3-.51-.5-1.05-.84-1.08-1.78-.18-.67.55-2.67,2.44,1.25.1,1.57-1.25,2.68-.58-1.45,2.33-3.78,2.56-3.33,3.82.28.77.92,1.43,1.13,2.15.72-.35,1.11-1.17,2.07-1.41,1.81.97-3.09,3.24-3.8,4.87,2.09-.02,3.14-1.61,4.42-2.77.76-.69,1.98-.61,2.49-1.48"/>
    <path class="cls-1" d="M587.18,202.49c-.71-.66-1.51-.04-2.18.56-.61-.09-1.29-.72-1.95-.68-.88,1.17-2.34,1.36-3.26,2.18-.72.64-.84,1.51-1.98,1.63-.8.08-1.17-.59-1.72-1.09-1.3.31-2.29,1.79-3.23,2.85-.86-1.58.66-2.13,1.49-2.92.1-.09,2.85-3.33,4.05-2.23-.02.54-.61.86-.1,1.68l3.09-2.66c-.16-.39-.74-.62-.9-.26-.08.19-.39.58-.72.65-.85.18-.95-.64-.61-1.12.16-.22.78-.27.87-.9-2.47.23-3.87,3.76-5.52,3.74l-1.62-.03c-.21,0-.25,1.09-.53,1.22-1.19.55-2.14.93-2.95,1.99-1.21,1.6-2.68-2.32-2.99.67-.22,2.2-4.34-2.4-4.93-1.88-.03.98.74,1.16.84,1.62.14.62-.49.87-1,1.17-.31.58.17.72.87.63.14-.68.27-1.54,1.15-1.45.58.06,1.47.18.83,1.02-.23.3-1.32.3-1.28.66.05.4.18.97.15,1.21,1.27-.95,2.29-1.72,3.58-2.4.82-.44,1.03,1.18,1.31,1.67.91,1.57,1.62-3.89,2.91-2.29.65.81.72,1.74,2.16,1.52.35,1.01-3.02,1.2-1.42,2.01.84.42,2.62-2.46,3.93-.45-.58.67-1.54.82-1.68,1.46-.08.37.78.77,1.06.66.25-.1.26-.7.42-1,.53-.98,1.78-1.04,1.99-2.21-2.76.46-1.06.05-3.84-1.57,1.09-.92,2.14-1.26,3.09-2.28,1.98,1.27-2.38,1.69-.59,2.71.06.03,3.73-1.55,4.43-3.46,3.38-.31,1.86-1.53,2.84-1.45.24.02.55.08.51.52-.04.48-1.05.52-1.32,1.3-.17.5.13.64.51.62.21,0,.47-.01.98.2.11.58-.86.45-1.04.93-1.04,2.66-4.58,1.11-2.98,3.91.92-2.07,4.12-1.79,5.55-4.79-.14-.46-.65-1.03-.45-1.41l2.16-2.45Z"/>
    <path class="cls-1" d="M532.5,208.38c.91-.45,1.38-1.4,2.56-1.38-.16-.64-.06-1.12-.38-1.85-.62.89-1.26,1.71-2.34,1.97l-.73-1.75c-.87.32-1.52.71-2.17,1.36l1.2,1.25c-.51.58-.66,1.72-1.34,2.07-.6.31-1.76-.02-2.16.57-.31.47-1.27,1.3-.81,1.88.64.44,1.97.46,2.44.09-.14-.45-.42-.99-.35-1.23.56-1.86,1.13,1.18,2.11,1.04.33-.05,1.14-.22.79-.84-.48-.86-.51-1.41-.45-1.87.11-.77,1.02-1.01,1.63-1.3"/>
    <path class="cls-1" d="M527.99,277.01c-.74-.34-2.07.57-2.8.81-.03.44.11.99-.41,1.25-.39.19-.51-.09-.81-.49-.23-.3.03-.64.48-1.02.45-.39-.11-.44-.54-.27-.75.88-1.78.89-2.71.18.03,1.21.84,2.09,2.35,2.16-.21.96-1.08,1.19-.71,2.02,1.52-.55,1.92-1.93,3.24-2.49,1.97-.83,3.86-.79,4.88,1.38.6-.31,1.46-.86,1.26-1.57l-4.24-1.97Z"/>
    <path class="cls-1" d="M543.6,258.79c1.23.97,2.17,2.04,2.95,3.13-1.38,1.3-3.25,1.61-3.45,3.7,1.64-1.03,2.82-2.34,4.37-3.1.62-.3,1.4.47,1.58-.48.09-.48.65-1.62-.2-1.65-1.59-.04-3.41-1.94-3.39-2.07.07-.37.22-.58.42-1.01-1.06.29-1.69.88-2.28,1.47"/>
    <path class="cls-1" d="M493.19,279.6c-.73.55-1.67,1.07-2.13,2.12,1.71-.79,2.99-2.12,4.94-2.72.46-.14.51.75.32.95.05-.05-3.15,1.52-1.63,1.82,1.16.23,2.44-.98,3.2-1.67l-1.04-1.07c0-1.32,1.53-1.56,1.34-3.22l-5,3.79Z"/>
    <path class="cls-1" d="M565.03,206.75c.68-.5.7-.94.37-1.1-.45-.21-.63-.42-1.22-.63.18-.69,1.16-.85.95-1.56-.73-.26-1.32-.25-1.4-.53-.06-.24-.1-.9.18-1.02l3.57-1.43c.13,1.3-1.05,1.48-1.6,2.25.97.66,2.72-.39,2.61-1.53-.07-.72-1.44-1.07-2.03-1.13-.59-.06-7.26,3.76-7.27,5.65,1.25,0,1.48-1.18,2.45-1.58l3.39,2.61Z"/>
    <path class="cls-1" d="M546.06,266.91c.1-.38-.03-1.27-.36-1.19-.47.11-1.15.19-1.46.43l-2.86,2.23c-.75.59-.78,1.06-1.71,1.36-.88.29-1.49,1.47-2.3,1.88.9.74,1.63.02,2.12-.67,1.72-2.4,1.33.37,4.96-3,.52-.49.71-1.07,1.61-1.03"/>
    <path class="cls-1" d="M548.05,224.37c0-.32-.26-.5-.62-.4-2.49.72-1.34,2.25-4.13,2.78-.03-1.41,1.25-1.24,1.36-2.28-1.15-.29-1.46.89-2.28,1.67,1.09.13,1.22,2.84,2.25,1.71-.08.09.79-1.94,1.91-1.33.42.23.43.88.76,1.5.6-.35.9-.86,1.34-1.43-.59-.48-1.19-.38-1.34-.99.51-.39.77-.72.76-1.23"/>
    <path class="cls-1" d="M555.98,202.49c-1.24-.25-2.41,1.25-2.62,2.12.85.27,1.52,1.01,2.08,1.45,1.7-.98,3.71-2.07,4.71-3.69l-4,2.02c-.13-.48.51-1.77-.17-1.9"/>
    <path class="cls-1" d="M540.54,233.19c1.35.03,2.21-1.89,2.77-2.95-.83-.27-1.38.29-1.74-.01-.2-.17-.48-.92-.92-.83-1.24.24-1.68,1.49-2.44,2.24,1.1-.26,1.56,1.51,2.33,1.55"/>
    <path class="cls-1" d="M519.86,282.48c-.69-.04.06-.95-.1-1.74-1.22.7-2.38,1.15-3.17,2.02-.28.32.25.78.44.69.26-.13.67-.15,1.1-.31.12.58.06,1.09.4,1.23.94.39,1.88-.83,3.64-2.02-.77-.86-1.39.19-2.3.14"/>
    <path class="cls-1" d="M497.2,283.4c-.69-.04.06-.95-.1-1.74-1.22.7-2.38,1.15-3.17,2.02-.28.32.25.78.44.69.26-.13.67-.15,1.1-.31.12.58.06,1.09.4,1.23.94.39,1.88-.83,3.64-2.02-.77-.86-1.39.19-2.3.14"/>
    <path class="cls-1" d="M540.18,274.75c-.52-.03-.24,1.59-1.8,1.45-.38-.03-.76-.91-.38-1.2.53-.41,1.32-.37,1.44-1,.13-.66-.61-.61-1.21-.64.06,0-2.18,2.3-2,2.36.65.17,1.39.45,1.31.94-.1.57-.95.61-.96,1.58.18.74,5.49-3.4,3.62-3.49"/>
    <path class="cls-1" d="M524.25,225.94c-.46.5-1.24.28-1.11,1.08.49,2.98,1.23-.81,5.2-1.78.26-.06.24-.77.15-.97-.11-.23-2.22-.52-4.24,1.67"/>
    <path class="cls-1" d="M535.52,225.85c.57.56,2.53-.32,2.15-1.21-.28-.31-1.81-.44-1.07-1.11.39-.35.84-.18,1.04-.25.15-.05.46-.87.08-.95-1.28-.26-2.6.88-3.49,1.73.06,1.38,1.29-.11,1.74.94.07.17-.72.59-.45.86"/>
    <path class="cls-1" d="M565.11,258.16c-.56-.29-1.44.58-1.57,1.06.64.18,1.61.51,1.44,1.1l-.54,1.82c1.17-.09,2.31-1.2,2.79-2.38-.94-.37-1.36-1.21-2.12-1.6"/>
    <path class="cls-1" d="M589.29,210.97s.08.1.1.19c-.04-.24-.07-.28-.1-.19"/>
    <path class="cls-1" d="M586.53,212.9c.61.15,1.45.08,1.52.69.1.86-2.15,1.93-1.14,2.2,2,.53,2.2-4.29,2.37-4.82-.53-.49-2.92,1.63-2.75,1.93"/>
    <path class="cls-1" d="M496.95,275.05c.33-.63-.66-.77-.96-.69-.12.03-4.13,1.58-2.59,3.22,1.22-.55,2.9-1.53,3.55-2.53"/>
    <path class="cls-1" d="M493.07,296.12c.04-.71-.92-.42-1.16-.22-.09.08-3.1,3.15-1.02,4,.88-1,2-2.6,2.18-3.78"/>
    <path class="cls-1" d="M493.5,301.07c.33-.63-.66-.77-.96-.69-.12.03-4.13,1.58-2.59,3.22,1.22-.55,2.9-1.53,3.55-2.53"/>
    <path class="cls-1" d="M587.76,204.13c2.05-.13,2.71-1.94,4.32-2.4.56-.16.62-.26.71-.52.86-2.74-5.42,2.64-5.02,2.91"/>
    <path class="cls-1" d="M539.83,260.08c-1.01-.94-1.28.28-1.89.74-.86.64-1.66,1.08-1.44,2.05.22.99.24,2.11,1.88,1.63-1.12-1.72-.12-3.36,1.46-4.42"/>
    <path class="cls-1" d="M580,214.72c-.93.16-2.43,1.49-2.56,2.47.44,1.41,3.55-1.74,3.43-1.91-.12-.17-.29-.66-.87-.55"/>
    <path class="cls-1" d="M530.15,275.2c-.34-.28-1.17.43-1.46.77.9.99,2.26,2.39,3.69.92-.81-.6-1.58-.97-2.23-1.69"/>
    <path class="cls-1" d="M597.53,178.92c-.51.15-1.06.12-1.43.47-.17.16.13.65-.38.83-.56.2-1.86.59-1.44,1.38.42.79,4.58-1.84,3.25-2.68"/>
    <path class="cls-1" d="M590.36,204.41c-.63.54-7.28,4.65-3.92,3.46,2.71-.96,1.08-1.88,5.25-2.33-.38-.52-.83-.72-1.33-1.13"/>
    <path class="cls-1" d="M590.32,204.38s.03.02.04.03c.07-.06.07-.08-.04-.03"/>
    <path class="cls-1" d="M586.54,209.42c-.47.08-.15.88.13.98.5.19,4.95-3.35,4.47-3.64-1.94.73-2.71,2.35-4.6,2.65"/>
    <path class="cls-1" d="M575.09,201.12c2.52-.24,3.23-1.99,4.45-3.41-1.85.74-3.53,1.88-4.45,3.41"/>
    <path class="cls-1" d="M585.76,180.65c-.19-.85-.92-1.22-.86-.1-.54.19-3.51,2.86-3.48,2.21-.01.29,0,.54.13.67.59.62,3.53-2.07,4.21-2.78"/>
    <path class="cls-1" d="M589.91,197.18c2.62-.49,2.93,1.45,3.82.51.16-.16.33-.71-.22-.61-3.38.65.97-1.68.63-2.52-1.68-.3-2.79,1.52-4.23,2.62"/>
    <path class="cls-1" d="M579.85,196.19c-.14.85,2.74,2.48,2.96,2.34.2-.13.56-.32.47-.66-.04-.15-2.3-2.3-3.43-1.67"/>
    <path class="cls-1" d="M552.55,205.22c-.06-.2-1.95-1.57-2.79-1.12-.36.19-.77,1.12-.43,1.37.3.22.79-.28,1-.25.86.09.5,1.45,1.99,1.01.38-.11.31-.67.22-1.01"/>
    <path class="cls-1" d="M499.23,275.33c1.46,1.21,3.25-1.97,3.31-1.75-.48-1.79-3.15,1.5-3.31,1.75"/>
    <path class="cls-1" d="M570.57,215.56c1.45-.69,2.01-1.78,2.59-2.92-1.22.39-1.98,1.12-3.01,1.54-.4.16-.29,1.72.43,1.38"/>
    <path class="cls-1" d="M527.45,206.68c-.37-.96-3.09.75-2.97,1.97.06.57,1.36.42,1.63.01.34-.52,1.34-1.99,1.34-1.98"/>
    <path class="cls-1" d="M581.39,216.8c1.58.45,2.81-.97,3.54-2.38-1.47.25-2.88.74-3.54,2.38"/>
    <path class="cls-1" d="M513.71,250.78c1.31-.31,2.98-.43,2.96-2.01-.81,0-1.51.51-2.44.58-.63.05-.8,1.21-.52,1.43"/>
    <path class="cls-1" d="M588.16,181.55l1.96-1.48c.65-.49,1.24-.64,1.71-.29.25.19.35.39.43,1,.69-.26,1.14-.5,1.6-.97-2.94-.81-.37-1.12-2.87-1.27-.34-.02-.32.7-.61.85-1.49.78-2.79,1.5-4.09,2.74.76.36,1.29-.14,1.88-.59"/>
    <path class="cls-1" d="M541.17,273.62s.02-.06.03-.07c-.03.04-.04.06-.03.07"/>
    <path class="cls-1" d="M541.51,274.46c1.1-.22,2.29-1.11,2.99-1.97-.07-1.29-3.24,1.26-3.34,1.14-.08.26.06.89.35.83"/>
    <path class="cls-1" d="M490.31,285.34c1.1-.22,2.29-1.11,2.99-1.97-.07-1.29-3.24,1.26-3.34,1.14-.08.26.06.89.35.83"/>
    <path class="cls-1" d="M561.16,255.78c-.48-.71-2.41,2.06-2.56,2.8.2.33,3.4-1.57,2.56-2.8"/>
    <path class="cls-1" d="M538.69,282.36c2.47-2.53,2.74-.37,2.73-2.67-1.3-.11-3.19,1.06-2.73,2.67"/>
    <path class="cls-1" d="M557.88,202.11c.84-.89,1.76-1,2.14-1.86-.56-.88-3.23.8-3.04,1.46.07.25.43.91.9.41"/>
    <path class="cls-1" d="M581.17,191.16c-.28-.14-.73.06-1.01.38l-1.78,2.02c.92-.38,1.81-.65,2.74-1.29.42-.29.28-.99.05-1.11"/>
    <path class="cls-1" d="M534.81,276.15c-.75.46-1.27,1.71-1.21,2.49-.05.63,2.42-1.93,1.94-2.29-.11-.08-.39-.41-.73-.2"/>
    <path class="cls-1" d="M560.62,199.23c1.11,0,2.04-.5,2.59-1.25,1.24-1.71-2.59.11-2.59,1.25"/>
    <path class="cls-1" d="M500.43,229.67c.33-.22.61-.29.41-.42-1.09-.74,0-.42-2.62,1.78,1.1.54,1.92-.25,2.21-1.36"/>
    <path class="cls-1" d="M578.9,183.73c.22-.08,1.3-1.58,1.07-2.16-.48-1.22-1.13,1.01-2.21,1.45.26.58.71.87,1.14.72"/>
    <path class="cls-1" d="M493.54,259.63c.5-.21.56-.72.42-1.09-.07-.19-.31-.38-.63-.34-.19.03-.39.13-.73.36-.39.27-.43.85-.25,1.13.21.32.79.11,1.19-.06"/>
    <path class="cls-1" d="M519.31,259.85l1.83-.6c.6-.19.64-.49.35-1.04-.94.19-1.96.69-2.17,1.64"/>
    <path class="cls-1" d="M536.1,228.48c.95-.12,1.41-.89,1.87-1.34-.3-.57-1.55-.58-1.79-.04-.15.34-.46,1.25-.08,1.38"/>
    <path class="cls-1" d="M597.65,177.77c.06-1.26-1.37-.61-1.74-.23-.26.27-.78.76-.34,1.32.46-.63,2.05-.48,2.08-1.09"/>
    <path class="cls-1" d="M558.98,188.38c.42-.03,1.13-1.14.75-1.3-.62-.26-1.74,0-2.04.52-.39.69.85.81,1.29.78"/>
    <path class="cls-1" d="M574.12,216.75c-.05.19-.17.43.14.7.94,0,1.21.73,2.13,1.08-.22-1.09-.83-1.67-1.5-2.31-.29-.27-.73.34-.77.53"/>
    <path class="cls-1" d="M550.24,212.54c.71.35,1.91-1.35,1.88-1.9-.85.48-1.34.97-2.17,1.13-.09.38.03.65.28.77"/>
    <path class="cls-1" d="M585.06,185.7c.62.79,2.73-1.15,2.14-1.5-.5-.3-1.52.8-2.14,1.5"/>
    <path class="cls-1" d="M515.81,264.68c-.69.37-.65,1.16-.91,1.68.59.16.95-.18,1.16-.47.22-.31.06-1.37-.25-1.21"/>
    <path class="cls-1" d="M497.5,286.45c-.22.08-.32.36-.5.69-.32.58.16.9.76.54.55-.33.48-.82.38-1.07-.11-.25-.47-.23-.65-.16"/>
    <path class="cls-1" d="M509.19,262.16c-.41-.04-.65.08-.94.4-.33.37-.4.66-.17,1.02.12.19.48.3.74.01.1-.11.26-.28.38-.59.23-.55.46-.8,0-.84"/>
    <path class="cls-1" d="M583.6,225.23c.12.68.84.45.94.14.1-.29.57-.4.48-1.02-.5-.05-1.52.34-1.43.88"/>
    <path class="cls-1" d="M500.64,278.96c-.69.16-.81.78-.62,1.01.16.2.48.3.59.18.12-.13.27-.32.46-.62.33-.53-.19-.63-.42-.57"/>
    <path class="cls-1" d="M586.34,216.92c-.21.42,1.29,1.25,1.52.36.19-.76-1.26-.86-1.52-.36"/>
    <path class="cls-1" d="M540.11,194.78c.95.12,2.1.05,1.69-.64-.76-.33-1.24-.21-1.52.04-.16.15-.6.54-.16.6"/>
    <path class="cls-1" d="M523.79,251.11c-.16.02-.38.21-.12.57.12.17.39.12.54.25.27.24.66-.11.6-.54-.07-.48-.78-.31-1.02-.28"/>
    <path class="cls-1" d="M547.57,191.98c.14.05.4-.27.87-.61.43-.48-.09-.81-.58-.4-.29.16-.46.29-.52.43-.09.2-.01.48.23.57"/>
    <path class="cls-1" d="M500.62,227.32c.16-.2.25-.43.17-.55-.1-.16-.26-.08-.36-.06-.17.04-.27.19-.38.41-.35.66.15.69.57.2"/>
    <path class="cls-1" d="M551.58,276.26c-.37.01-.72-.09-.88.13-.33.45.07.84.51.7.15-.05.12-.19.41-.42.22-.17.21-.42-.04-.41"/>
    <path class="cls-1" d="M506.98,260.95c4.65-.09,5.14-4.08,5.57-4.85,1.07-1.95,4.18-2.93,3.66-5.81-1.89,3.5-4.41.63-5.71,2.99.7.49,1.17-.29,1.78-.24.42.03.31,1.03.1,1.33-.05.07-2.51,1.34-3.17,1.72-.43-.71-.93-1.17-1.54-1.13-1.78.12-2.5,3.76-3.81,2.72-1.86-1.49,4.17-2.56,3.07-4.02-.2-.26-1.12.01-1.56-.18.02-.83.79-.68,1.44-1.01.55-1.39,1.67-2.86,3.37-2.16-.75.88-1.8,1.2-1.51,2.19.23.27,1.22.03,1.4-.3.12-.21.11-.64.41-.98.49-.57,1.2,0,2.13-.04-.48-1.37.21-1.88,1.15-2.57-.8-.01-1.43.31-1.63-.11-.15-.32-.17-.95.17-1.14,4.81,1.34,4.3-2.45,6.11-1.81,1.56.55-1.3,1.2-1.15,1.89.06.26.37,1.16.62.94.87-.8,1.68-1.76,1.93-2.76.02-.48-.7-1.04-.3-1.41.18-.17.63-.55.89-.23.23.28.28.64.47.83.08.08.37.06.48-.34l-.73-.87c-.17-.2.18-.6.42-.74.17-.1.47-.06.81.01,1.21.24,1.71-.35,1.97-1.2.24-.8.23-1.54-.63-2.13-.14-.24.55-.64.83-.53.18.07.29.52.58.67,1.18.62,2.13-1.68,2.23-1.53-.95-1.47-.51.7-1.95.63-.19,0-.31-.45-.25-.81.22-1.41,2.09-1.16,2.69-2.09.35-.54-.66-1.04-1.05-.8-.94.57-1.62,1.13-2.21.95-.51-.16,1.05-2.3,2.12-2.26,1.89.07,1.22,1.81,3.25,1.5.32-.05-.1-.66.04-1,1.15-1.84,5.05-2.68,4.9-4.39-1.37-.57-6.47,5.04-3.9.52-.68-.48-1.29,0-2.01-.08.42-.99-.44-1.01-.87-1.07-.52-.07-1.08.18-1.35.61-1.2,1.93-4.48,2.49-5.97,5.48.6.43,1.37.41,1.29.99-.04.33-.59.58-1.07,1.17.34.36.85.25,1.46.75-.97,1.25-1.93,2.32-3.52,3.21.55.77.77,1.31.4,1.95-.4.69-1.02,1.17-1.8,1.31-.08-.63-.1-1.05-.47-1.32-.21-.15-.77-.04-1.01-.31l-1.68-1.8c1.21-.64,1.98.89,3.15-.03-1.38-1.17-3.32-2.16-4.73-2.5-.58.25-1.88,1.56-2.24.48.24-1.12,1.79-1.77,2.65-2.51-.33-.67-1.34-.16-1.72-.49-.57-.49.07-1.37.58-1.51,1.44-.39,2.08,1.32,2.97.37,1.08-1.14,2.5-1.34,3.7-2.08.35-.22-.06-1.26.97-1.29.4-.01.71.48.56,1.12-.07.31-.16.24-.35.83.89-.25,1.82-1.06,1.77-1.78-.03-.37-.93-1.14-.17-1.31,1.04-.22,1.59,1.29,2.66.85-.44-1.48-1.9-1.08-2.45-2.39-1.47.63-2.34,1.97-4.14,2.48-.48-1.14,3.88-2.61,2.48-3.78-.29-.24-.86.21-1.54-.24-.48-.78,5.2-3.03,3.05-3.72-.45-.15-.93.26-1.59-.57,1.31-.28,1.86-1.01,2.44-2.18.92.77.68,1.58,1.54,2.15,1-.48,1.44-1.6,2.57-1.93.45.47.6.95.89,1.09.33.16,1.05.27,1.4-.1l1.32-1.41c-.26-.81-1.08-1.02-1.55-1.64.06,1.46-.44,1.77-1.39,1.91-.58.09-1.85-.8-1.3-1.42.61-.69,1.03-1.18,1.42-2.01.24-.52,1.27,0,1.41.45.3.94.82.8,1.5.81.63,0,.5-.62.91-1.13.68-.86,1.81-1.19,2.03-2.4-.73-.09-1.09.46-1.59.31-.36-.11-.72-.98-1.08-1.01-.96-.07-1.85.03-2.36-1.16-1.15.29-1.7,1.06-2.86,1.61-2.28-2.72-3.6-1.46-5.22-4.49,1.21-1.28,2.69-1.87,3.78-3.19.29-.35.37-.83.64-1.08.84-.78.41,1.73,3.43-2.63-.74.62-1.04.69-1.2.53-1.16-1.1,2.19-3.23,2.44-2.94.28.42.81,1.35,1.12,1.19.39-.21,1.27-.77.93-1.1-.52-.51-1.11-.75-.97-1.38.1-.41,1.93-1.59,2.63-1.34.33.12.43.58.8,1.26.8-.56,2.15-1.2,2.74-2.06-.37-1.19-1.65-1.01-2.46-.54-3.32,1.89-6.67,3.5-9.32,6.26.56.48,1.22.42,1.32.7.64,1.73-2.15,1.31-3.18,2.21-.49.43-1.15,1.78-1.93,1.15-.44-.35-.32-1.75-1.36-1.86-.53-.06-.43,1.29-.81,1.65-.49.47-1.26.53-.8,1.32.16.28.73.27,1.19.56.64.41-.1,1.05-.72,1.06-1.4.02-.64-1.42-2.26-1.51-.5-.03-.54.94-.94,1.11-1.39.61-2.46,1.14-2.5,2.92.4.37,1.18.23,1.44,1-.46.61-1.15.45-1.89.76.53.86,4.42,3.48,5.11,3.23,1.39-.49,2.28-3.07,3.75-2.57.66.22,1.66,2,2.44.98.22-.39-.11-1.31.53-1.17.33.07.6.16.63.48.06.65-2.17,2.08-2.33,2.11-.74.12-.76-.94-1.24-1.52-2.22,1.46-3.52,4.13-5.62,2.29-1.32.75-3.14,1.32-4.3,2.46-.34.33-.7,1.24-1.51,1.02-.42-.11-.44-.45-.89-1-.2-.1-.71.1-.85-.01-.2-.15-.3-.6-.16-.71l.72-.58c.5-.4.89-1.14,1.56-.99.34.08.52.77,1.07,1,.65-1.14,2.52-1.1,3.2-1.79.66-.67-.36-1.5-1.08-1.05-1.59.99-1.64,2.56-2.36,1.03-.19-.41,1.14-.25,1.1-1.54-.01-.46-3.43-2.11-2.98-.84.37.77.93,1.21.51,1.79-1.3,1.83-1.23-1.2-4.2,3.51.79.02,1.11-.21,1.36-.17,1.63.3-1.2,2.01-1.59,3.07-1.26-.79.4-1.62.19-2.37-.96-.87-2.6,1.66-2.12,2.02l.89.67c.13.1-.71.8-.46,1,.9.73,1.93-2.06,3.22-1.76.5.12.7.73.95,1.42,2.23-.78,4.29-3.59,6.16-3.81.35-.04,2.75,1.46,2.02,1.71-1.2.42-1.68-1.26-3.26.58l1.24.32c-.46,1.27-1.83,1.76-2.95,2.32-.25.28.14,1.24.41,1.26l.85.06,3.97,1.9-.85-1.82c.97-.03,2.74.56,2.97,1.34-.43.97-1.88,1.42-1.42,2.46.26.57.87,1.38.15,1.74-1.13.57-1.69-1.04-2.47-.97-.81.07-.75.91-1.95.84-.58-.04-.06-1.12.44-1.62-.34-.51-.91-.48-1.3-.21-.2.14-.27.55-.38.94-.18.59-.65.56-1.06.4-.42-.17-.51-.69-.25-.99.14-.16.53-.38.68-.68.27-.55-.36-.63-.66-.45-.22.13-.67.43-.98.33-.16-.62.45-1.2.21-1.64-.21-.39-.83-.38-1.26-.64-.47-.29-.26-.81.08-.99.3-.15.85-.14,1.08-.92-1.28-.23-2.54.8-3.28,1.96l1.38.66c.34.17-.64.69-1,.85-.5.22-.64-.7-1.1-.86-.79-.29-1.27.77-1.78,1.16l-2.87,2.21,1.72,1.2c.23.16-.88.57-1.13.29-.2-.23-.28-.58-.52-1.2l-3.57,2.14c0,.62.21.89.5.88.39,0,1.41.4,1.33-.41-.05-.56.04-1.2.47-1.19.29,0,.62.12.85.29.41.3.12.8-.16,1-.19.14-.99-.07-1.13.5-.13.53,1.06.76,1.1,1.2.07.9-1.66,2.29-2.3,2.18-.79-.14-1.04-1.46-1.7-.89-.11.1-.23.18-.2.33.04.24.29.45.51.61.56.41.15.86-.12,1-.17.09-.75.27-.76.48-.04.78.97.79,1.42.71,1.46-.27,2.42-4.01,4.29-2.44,1.07.9-1.71,1.29-1.68,2.33,0,.28.87.51,1.04,1.15-.8.26-1.49.6-1.79,1.61l-1.89-1.16c-4.15,2.85-1.8,1.67-3.37,5.62-.33.83.98,1.89,1.29,2.64,0,1.04-1.33,1.57-1.41,2.54-.08,1.01.31,2.02-.4,2.9.75.47,1.67-.13,2.06-.52.35-.35,1.03-1.17.47-1.66-.31-.27-.96-.07-1.02-.36-.06-.31.02-.35.15-.4,1.45-.64.88-.34,3.74,1.08-.53.88-1.15,1.18-1.56,1.73,1.06,1.35,1.69-.88,2.58-.82.16,0,.62.36.49.48l-3.52,3.25c1.63-.09,2.22.64,2.8,1.33,1-.45,1.86-1.42,3.05-1.78.37-.45-.39-1.41-.82-1.77l.68-2.06c-1.92.5-5.46-2.12-5.45-2.68.01-.47.59-.6.93-.51.65.18.87.92,1.32.98,1.93.23-.97-1.6-.16-2.5.35-.39,1.09-.48,1.7-.25l-.31,1.44c1.56.24,2.48-.7,2.69-2.01-.87.22-1.62.79-2.47.04.56-.72,1.85-1.96,2.57-1.5.56.36,1.66,1.22,1.94,1.8,1.64,3.38-4.97,4.66-1.17,5.96l-1,1.49c-.3.44.92.54,1.15.96-.24.57-1.45,1.42-.88,1.9.6.16,1.21.21,1.44.09.28-.15.28-.77.52-1.07.29-.37.8-.06.84.29-.03-.23-.63,2.11-2.71,1.95-.43.21-.28,1.64-1.15,1.53-.51-.07-1-.74-1.53-.95-1.31-.08-1.82,1.24-3.23,1.82-.18-.39-.13-1.06-.07-1.44.07-.47.97-.47,1.24-.84.35-.48-.31-.86-.57-.83-.7.08-1.32.96-1.95,1.04-.33.04-.63-.35-.92-.7-.38-.44-.92-.3-1.25-.03-.17.14-.29.38-.31.77-.01.45,1.57.45,1.52,1.14-.01.18-.04.43-.2.5-.22.1-.48.06-.78-.03-.47-.14-.79.04-.67.43.06.21-.03.56.12.68.48.37,1.53-.44,1.99.44.74,1.41-1.66.53-1.45,2.08.12.9,3.45,1.04,2.31,2.57-.63.84-1.69,1.22-2.12,2.31.32.33,1.98.77,2.1.1.66-3.64,1.71-.21,2.95-3.9-1.38.25-1.55-.46-2.14-.91-.44-.34-1.23-.09-1.43-.84.81-.51,1.25-1.26,1.67-1.98.4-.67,1.4-.05,1.78-.26.35-.19.35-1.07.95-.91.37.1.58.56.95.87.76.63,1.86-.27,2.55,1.15-1.5.39-2.94.95-3.91,2.07.03.68,1.18.6,1.59.81.39.2.04.85-.17.97-3.5,1.95.15-.08-3.46,2.59.82.24,1.47-.04,1.53.67.12,1.37-1.46,1.22-1.11,2.03.51,1.19,2.92-1.48,3.6-2.05-.06-.53-.92-1.06-.72-1.52.15-.33,3.86-4.72,5-4.28,1.36.53-.95,1.25-.49,2.16.16.31.9.43,1.15.12.59-.75.73-1.56,1.41-2.14l-2.91-1.77c-.43,1.39-1.46,2.61-2.79,2.89-.39.08-.86-.43-.72-.63.48-.69,3.82-1.46,2.52-2.93-.36-.41-1.18-.32-1-.96.39-1.37,1.5.26,1.94-.49.1-.17-.35-.83-.16-.94.14-.07,3.68-2.65,4.02-3.07.72.58.46.96.12,1.39-.31.39-.76.46-1.23.86M508.96,257.61c.25-.68.92-.36,1.01-.11.14.39.12.79-.1,1.02-.44.47-1.25-.02-.91-.91M523.8,233.94c.24-1.06,1.04-1.08,1.03-.09-.59.66-1.35.72-1.03.09M521.54,240.35c.08-.28.46-.11.75-.41.37-.48.63.09.36.56-.43.37-.63.56-.87.44-.23-.11-.31-.35-.24-.59M527.82,215.28c.11,1.08-.91,1.14-.93.05,0-.6.86-.65.93-.05M518.66,212.31c0,.28-.37.82-.81.45-.81-.69-1.9-.99-2.39-1.93-.1-.72,3.21.88,3.2,1.48M515.13,215.54c-.28-.03-.99-.18-.98-.72,0-.04,2.9-2.69,2.87-1.05,0,.13-1.77,1.79-1.89,1.77M517.44,214.85c-.23-.57,1.84-2.28,2.85-1.36.35.32-2.31,2.69-2.85,1.36M522.48,214.96c-.21.33-.68.35-.89.19-.29-.24-.47-.74-.08-1.05.25-.2.5-.2.65-.14.35.13.45.78.31,1M524.82,220.88c-.16.3-1.54.49-1.56-.09-.03-.83,1.22-.64,1.56.09M507.71,223.25c-.42.05-.72.1-.85-.17-.23-.44.15-.63.54-.66.22-.02.48-.72.6-.19.11.45.19.96-.29,1.02M518.93,225.2c-.11.24-.45.36-.85.19-.27-.11-.53-.6-.17-.93.23-.21.52-.23.88-.25.34-.02.28.66.14.99M517.62,219.54c.15-.21.63-.09.88-.13.16-.03.37.28.26.58-.13.34-.44.19-.6.25-.33.13-.92-.17-.54-.71M515.08,224.56c.11.03.2.07.24.14.58.94-2.32,2.76-3.07,1.98-1.56.93,1.26-.99,2.83-2.12-.17-.04-.37-.03-.52.06,2.1-1.26,1.62-.85.52-.06M516.3,223.52l2.2-2.05c.23-.22.53.1.64.21.12.13.25.59-.04.71-1.89.75-1.6,2.75-2.8,1.14M499.92,258.54c-.02.89-1.55.4-1.61-.14-.07-.58,1.64-.88,1.61.14M497.29,249.84c-.2.26-.56.66-.8.58-.31-.1-.87-.32-.81-.59.11-.47.63-.95,1.13-.8.35.1.64.6.48.81M499.52,248.45c-.84.28-1.57.46-2.18.08.85-.93,1.73-1.66,2.24-.99.17.21.38.76-.07.91M497.9,246.38c-.19-.04-.43-.23-.4-.62,0,.02,2.58-2.68,3.29-1.15-3.02,1.5-1.1,2.14-2.89,1.77M504.46,245.35c.32-.38.68-.3.85-.05.18.27.07.64-.53.67-.27,0-.9.06-.32-.62M506.3,248.47c-.13.34-.44.19-.6.25-.31.12-.92-.17-.54-.71.16-.22.6-.08.88-.13.16-.03.36.28.25.58M506.31,244.08c.2-.41.78-.27,1.68-.3.17.62-.35,1.05-.84,1.09-.34.03-1.07-.3-.83-.79M506.8,241.48c.14-.22.67-.09.88-.13.17-.03.38.28.27.58-.13.34-.44.19-.62.26-.29.11-.86-.19-.52-.71M512.9,242.92c.13-.54,1.36-.43.96,0-.31.34.41.77.02.87-.46.13-1.12-.31-.98-.88M512,239.9c.21.04.4.05.56.22.52.58-1.06,1.39-1.2,1.41-.28.04-.6-.15-.64-.55-.04-.4,1.05-1.13,1.29-1.08M510.52,243.42c1.59.47,2.6,1.72,4.14,2.29.26.1,1-.1,1.13.17.1.19-.3.76-.78.89-.91.24-1.39-.9-2.25-.98-1.29-.12-2.56-.7-2.25-2.36M511.4,232.75c-.22,1.09-.47,1.27-.4,2.08-.62.25-1.12-.17-1.43-.83.49-.74.99-1.3,1.82-1.25M510.23,246.4c1.2.11.38,1.22.22,1.69-.35,1.05-3.36,1.27-3.08,1.34-1.25-.31,1.95-1.93,2.87-3.03M508.59,242.71c.18-.2.5-.19.73-.1.22.08.32.48.17.78-.14.28-.5.38-.78.2-.27-.17-.41-.55-.12-.87M503.64,247.24c-.27,0-.9.06-.32-.62.32-.38.68-.3.85-.05.18.28.07.65-.53.67M503.5,241.78c-.27.32-1.14-.13-1.2.51-.03.32.08,1.12-.21,1.26-.75.38-.99-.3-.88-.8.06-.28.9-.35.88-.81l-.09-1.89c-.03-.7,1.61-.8,1.88-1.94.46-1.93-2.48,1.45-3.11.11.5-.68,1.13-.69,1.33-1.35-3.84-2.32,2.12-2.13,1.17-4.31-.4-.21-1.82-.13-1.47-.94.65-.57,1.74-1.23,2.58-1.19.13.76-.26,1.23.02,1.48.17.15.71.55.91.24.21-.33.6-1.66,1.18-1.16.71.62,1.83,1.3,2.6,1.75-.28,1.15-2.03,2.2-2.99,2.1-.48-.05-.17-1.39.35-1.41.38,0,.73.3,1.47.15-.51-.54-1.27-1.49-2.17-1.48-.35,1.14-3.86,3.15-.38,2.96.3.9-.9,1.04-1.01,2.05.66.43,1.14.13,1.63.19-.07-.32-.07-.97.21-1.19.35-.28.8-.09.94.22.12.28.04.69.2,1,.81.05,1.26-.16,2.06-.02-.13.83-1.07,1.3-1.72.95-1.09,1.94,1.87,1.13,1.32,2.32-.58,1.25-1.02-1.57-2.16-.82l-.9.6c-.85.57-1.78.63-2.43,1.41M504.69,254.43c.11,1.08-.91,1.13-.92.05,0-.61.86-.66.92-.05"/>
    <path class="cls-1" d="M560.93,248.64s0-.04-.03-.08c.01.03.02.05.03.08"/>
    <path class="cls-1" d="M579.86,229.95c-.07-.05-.14-.08-.2-.1.03.05.1.09.2.1"/>
    <path class="cls-1" d="M580.06,231.02c.61-.15,1.56-.23,1.62-1.16l-1.64.09c-.07,0-.13,0-.18,0,.05.04.11.08.16.14.14.16.04.45.04.93"/>
    <path class="cls-1" d="M581.46,218.04c-.34.02-.6.24-1.03.73-.61.71-1.24-.23-1.81-.39-1-.28-1.22,1.39-1.79,1.75-1.77-.63-3.58-2.88-4.38-2.45-.31.16-.29.88-.02,1.43.12.25.53-.19,1.26.18l-3.32,2.87,2,1.43c-1.72.9-3.02,2.1-4.87,2.72-1.17-.95-2.6-2.01-4.09-1.84-.57.6.44,1.42.63,1.85.34.79-.41,1.19-.76,1.5-.41.36-1.4.01-1.88,0-.02,1.01-2.4,2.95-2.33,2.94-.29.04-.63-.52-1.15-.12.56,1.2,1.63,1.14,2.47,1.96-.46.77-1.21.84-1.7,1.35.92.85,1.52-.05,2.25-.38.73-.33.7-.87.41-2.11.55.16,1.96.25,2.2.89.39,1.05-1.38.83-1.66,1.28-.3.47-.16,1.28-1.06,1.56-.82.25-1.59.75-1.98,1.52.53.31,1.39.4,1.49.86-.52,1.31-2,2.14-3.37,1.87.18-.95,1.02-.94,1.3-1.51-.86-.79-1.57.09-2.43.38-.69.23-1.76-.76-1.84-1.71,1.88,1.34,4.37-1.26,4.37-1.21,0-.43-.2-.66-.79-.65-3.62.1,2.03-2.28-.46-2.71-1.01-.17-.77,1.71-1.75,1.19-1.91-1.01.91-.7,2.79-3.17-2.3-.76-4.29,2.13-3.88,1.84-3.61,2.56.9.79-5.05,3.25.05.37.47,1.03.08.96-.55-.1-.53-.11-.64-.22-.16-.15.1-.62.12-.84.15-1.14,1.08-1.12,1.8-1.45,1.14-.52,1.83-2.04,3.35-2.41.42-.1-.05-.82-.38-.98-1.14-.54-2.53,2.74-3.96,2.21-.24-.09-.47-.84-.17-.9.97-.18,1.33-.87,1.97-1.32.95-.66.74-1.08.85-2,.14-1.17-.66-1.56-1.03-2.35-.21-.87,1.56-2.12,2.52-1.72-.28.65-1.68,1.27-.88,1.76.67.41,1.1.55,1.35,1.31.33.41,1.46-.14,2.13-.29l.47,2.02c.93-1.13,1.89-1.6,3.03-2.19.32-.17.28-.9.68-.87.49.04.8.01,1.48,0-.44-.69-1-1.21-2.05-1.65-.56,1.16-1.38,2.79-2.95,2.4,0-1.04,1.02-1.33.71-2.29-1.16.13-1.43,1.53-2.85,1.28.99-2.07,3.01-2.88,4.79-4.08.47-.32.79-1.35,1.47-.66.46.47.77.76,1.18.79.56.05,1.09-.27,1.45-.88.94-.12.88.9-.07.86-.45,1.12-1.47,1.26-2.41,1.7-.23.72.72,1,1.18,1.08,1.58.25,2.76-3.72,3.8-2.3.4.54-1.3,1.87-.27,2,0,0,2.58-1.5,2.57-1.87-.65-.69-1.22-1.32-.76-1.98,1.33-1.88,2.28-1.27,2.23-2.46-.02-.62-.54-.76-1.16-.39-.33.19-.37.66-.34,1.33-1.75.57-.68-.67-4.36-1.12l2-1.76c.28-.25-.61-.98-.51-1.39.11-.45.9-.89.99-1.6-.93-.38-1.97.24-2.33,1.02-.34.75-.42,1.6-.48,2.44-.33.17-1.25-.25-1.2-.03.77,2.98,2.33.46,4.05,4.2-1.2-.08-1.97-.18-2.23-1.37-.74.25-1.94,2.18-2.76,1.41-.99-.93,2.18-1.9.94-2.37-.56-.22-1.19-.05-1.23-.65-.02-.29.3-.63.59-1.22-1.22-.12-1.98.84-2.9,1.68-3.64,3.3-1.66.2-3.99,2.95-.27.32-.99.09-1.08-.15-.06-.15-.11-.44-.04-.73.04-.16.26-.35.84-.07l5.69-4.67c-.6-1.24-1.59-1.9-3.03-2.67.84-.83,1.94-1.18,2.73-2.22-1.15-.31-1.22-.78-1.37-1.6-.11-.57-1.12-.38-1.51-.22-.31.13-.53.81-.86.99-.61-.41-3.37,1.79-3.65,2.44-.63,1.43-3.92,3.07-3.52,3.08-.56-.01-.66-.42-.61-.85.03-.22.27-.62.24-1.05-.95.02-2.55.95-2.38,1.92.4.24.99-.07,1.16-.17.24-.13.74.18.61.7-.27,1.09-1.51.8-2.45.32,1.29,1.34-2.18,2.98-.32,3.03,1.53.04,1.43-1.79,2.19-1.12.92.81,1.69.85,3.08,1.08-.71.89-1.78.88-2.45.76-.35-.06-.49-.94-.89-.83-.15.04-3.08,1.48-2.44,2.25.53.39,1.73.57,2.24,1.28l2.16-1.33c.72.72,1.54,1.16,2.21,1.98-.82,1.25-2.14,1.74-2.7,2.95.02.29.79.7.69.99l-.37,1.05c-.2.56,1.13.64,1.36,1.13-.47.9-1.58,1.67-2.6,1.81-.19-1.03.5-1.49,1.09-1.96-3.97-.17-3.15,2.62-5.89,4.08,1.11.03,4.44,1.13,4.52,1.75.04.3-.26.7-.29,1.1.94.95-3.45,4.32-4.16,4.18-.32-1.66,1.09-2.07,2.18-2.6.24-.12,0-1.28-.2-1.2-2.25.88-2.95,3.01-6.06,4.48-1.36-2.71,3.01-2.25,5.43-5.7.29-.41.72-.78.37-1.06-.42-.34-1.39-.37-1.39-.07l.02.94c0,.3-.64.32-.86.3-.74-.08-.83-1.53-1.9-1.2-1.19.37-1.8,3.07-3.59,2.43-.49-.18-.71-.99-1.33-.8-.53.16-.85.57-1.36,1.01-.28.24-.93-.04-1.14.24-.15.2-.17.84-.03,1.13.11.22.5.21.93.55.16.94-.8,1.07-1.17,1.59-.28.38.15.82.43.82.23,0,1-.08,1.13.09.62.87-2.02,2.58-2.81,2.24-.78-.33-.83-.9-1.22-1.78-.65,1.06-1.59,1.99-2.39,2.93.3.47.97.71,1.12,1.09.16.41-.65.93-.53,1.31.19.59,1.03,1.05.65,1.82-.17.35-.75.3-1.36.77,1.07.43,2.05,1.38,3.1,1.5.82-.22,1.74-1.22,2.48-.21l-2.61,1.9c-.53.39.92.97,1.34.83,1.64-.57,1.38-2.51,2.33-2.5,1.08,0,2.02,1.44,1.67,1.94-.21.31-.7.31-.91.81.87.12,2.48.58,2.16,1.52-.42,1.25-1.56-.39-2.16-.46-1.28-.15-3.06,1.8-2.44,2.68.45.27,1.15-.3,1.3-.13.22.24.26.52.16.72-.77,1.48-1.27-1.16-3.74.4-.69.44-1.61.6-1.61,1.47.97.07,1.7-.29,2.38-.88.69-.59,1.26.63,1.7.62,1.6-.01,3.72-3.63,4.08-2.11.15.61-.69.92-.75,1.66-.03.31.42.79.83.5.81-.59,1.4-1.27,2.27-1.79l-1.19-1.82c.53-.77,1.55-1.26,2.16-1.67.33.06.6.9.29,1.06-.22.11-.72.54-.88.98.68.71,1.72.88,2.54,1.98,1.07-1.77,2.68-2.13,4.21-3.63-1.67-1.99-4.35,3.23-4.52,1.22-.05-.54.82-1.15.57-1.49-.09-.12-.79-.01-.82-.32-.19-2.51,4.51-3.88,4.63-3.84.3.13.39,1.07.7,1.04,1.01-.1,1.55-1.46,2.72-1.12.04.87-.78,1.16-1.03,1.94.98.65.91,1.53.72,2.69.96-.4,1.63-.96,2.31-1.6.5-.47-1.52-.54-1.4-1.4.05-.36.2-.56.58-.65.29-.07.8,0,.88.45.18,1.09,1.5.19,1.73.56.32.5.6,1.5.79,2.14.23.8-1.32,1.67-2.04,1.73l.21-1.78c-.84.48-1.59.72-2.13,1.55.49.54,1.29.22,1.72,1-1.21.9-1.99-.14-3.19-.9-.68.88-1.43,1.65-2.04,2.85,1.63.74,2.13-1.85,3.12-1.38.45.22.71,1.29,1.42,1.25,1.06-.05.8-1.46,2.3-1.64.57-.07.75.64,1.04,1.31,1.16-.18,1.72-1.18,2.65-1.74-.48-.32-1.44-1.05-1.01-1.52.35-.38,2.93-2.99,3.42-2.68.84.54-.6,1.04-.11,1.84,1.05,1.7.95-1.09,2.6-.89.48.06,1.4.7.9,1.34-.2.25-1.31-.16-1.32.91,5.12,2,1.8-.69,6.26.95l2.35-2.51c-.75.4-1.29.42-1.93.13-.56.28-.8,1.54-1.95,1.49-.35-.26.01-.88-.05-1.34-1.31-.56-2.5-.85-3.95-1.8,1.23-1.22,6.67-4.76,2.62-.44,1.26.1,2.14-.46,3.34-1.08.28.95.28,1.8,1.24,2.45.11-1.47.69-2.02,2.05-2.19-.87-2.26-5.89-2.12-2.87-3.41.06-.03,3.05,1.32,3.35,2.4.76.17,1.23-1.52.83-2.26.6-.03,1.36-.15,1.12-.35l-.54-.47c-.76-.65-1.54-1.16-2.28-.53.35.73,1.22.91,1.23,1.63,0,.41-.81.59-.91.44l-.53-.82c-.31-.48-1.12-.54-1.02-1.18.07-.43.65-.65,1.06-1.44-1.06.11-1.87.95-2.98,1.43-.37.16.02,1.02-.25,1.15-1.22.62-1.64-.82-2.4-.94-1.11-.17-2.55,1.06-2.7,1.99-.07.45.82.49.99.16.13-.26.17-.93,1.13-.61-.72.83-1.65,2.01-2.78,2.81-.89.63-2.21-.91-2.59-1.44.36-.42,1-.78.78-1.31-.03.16-2.07-2.04-3.11-.87-.4.45-.77.71-1.2.58-.35-.11-1.06-.17-.79-.73,1.92-.72,1.3-1.6,2.47-1.65,1.02-.05.07,1.44,1.7,1.29.58-.05.73-.58.52-1.06.25.59-1.57-1.56-2.28-1.39-1.13.28-.7,1.07-2.34,1-.27-.01-.42-.59-.16-.86.91-.95,3.29-.99,2.69-3.69,1.98,1.19,3.29-.99,3.79-.58,1.55,1.25-2.5,1.38-1.04,2.27,1.28.78,1.87-1.48,3.82-2.2.55-.2.9-.41.84-.92-.06-.45-.17-.76-.68-.77-1.47-.03-.82,1.95-2.35,1.72-.23-1.24-.97-1.68-2.37-1.81,1.07-.47,1.52-1.19,2.12-2.1.19-.28,1.38.15,1.09-.65-1.07-.59-1.74.53-2.98.45.44-1.4,1.81-1.62,2.75-2.68.67.75.48,1.38,1.4,1.89.45-.77.69-1.4,1.3-1.5,1.48-.24,3.02,2.2,3.42,1.04.16-.47.04-.97.25-1.11,1.13-.72.58.91,2.39.9.38,0,1.27-.7.66-1.07-.74-.45-1.71-.17-2.17-1.32-.14-.36-.94-.14-1.25-.01-.29.11-.34.69-.7.94-.39.27-.8.11-.84-.08-.26-1.08.87-1.42.57-1.93-.15-.26-.43-.42-.74-.82.99-.92,2.4-1.56,3.03-2.64-.45-.53-1.16-.53-1.6-.27-.34.2-.05.62-.09,1.26-.03.54-1.84-.54-1.41-.91l3.1-2.64c2.93-2.49.97-1.55,3.44-2-.31-.27-1.11-1.14-.53-1.33.71-.24,1.43.26,2.13.51-.37.76-1.06.91-1.1,1.6l3.51,2.27c-.4.75-1.29.66-1.74.33-.3-.23-.43-.75-1.17-1.42-.39,1.06-1.12,1.41-2.01,1.84-.1.05-3.33,2.38-2.22,2.78.29.1.72.11.93.13.89.07.28-2.01,1.45-1.56.27.1.73.42.66.81-.06.32-.66.56-1.14.83.61,1.21,1.85,1.92,3.26,1.92.78,0,.95,1.53.68,2.06-.37.73-.81,1.46-2.1,1.53.25,2.15,3.16.55,1.76,2.8-.99-.41-2.29-1.17-3.25-.4-.57.46-1.72.97-1.75,1.92,1.4.39,1.22-1.82,2.79-1.5.53.11.78.54.78,1.07,1.25.13,1.35-.39,1.85-1.33.25-.47,1.37.3,1.86.59.24.14.5-.59.38-.85-.52-1.06-2.59-.64-2.53-1.56,2.98-.27,1.13-3.53,3.85-1.18.25-1.03.67-1.81.68-2.68,0-.35-.73-.87-1.01-.78-.23.08-.28,1.29-.68,1.15-1.17-.42-1.96-1.27-3.52-1.35,1.63-.63,2.82-2.34,3.68-2.1-.41-.7,5.69-4.6,1.11-2.51-.21.1-.57.33-.96.35-.4-1.06.7-1.83,1.82-2.54-1.24-.91-1.9.34-3.04,1.09-1.49-2.16,4.46-2.91,2.38-4.65-.72,1.11-3.98,3.1-4.12,3.13-.37.08-.96-.49-.58-.75,3.09-2.13.21-2.02,2.84-1.79.12-.21.07-.72.16-1.08.43-.02,2.75-1.22,3.42-2.15.47-.65-.78-.95-1.21-.92M561.23,218.81c.03.86-1.55.65-1.67-.13-.1-.62,1.64-.85,1.67.13M555.98,221.37c.23-.22.57-.09.9-.15.25-.04.42.63.09.75-.21.08-.56.23-.82.43-.18.14-.37-.83-.17-1.03M554.74,218.52c-.39.05-.91-.45-.31-1,.51-.46,1.19-.21,1.15.35-.02.3-.47.61-.84.66M557.21,214.37c-.26.26-1.06.47-.76,1,.28.51.88.87.71,1.16-.15.27-.58.77-1.02.49-1.16-.73-1.19-2.79,0-3.54.38-.24.88-.02,1.04.07.2.11.36.51.05.82M557.01,210.55c.23.22.1,1.02-.15,1.14l-1.25.58c-.43.2-.44.92-.81,1-.38.08-.92.1-1.33-.6,2.8-.63,1.51-2.46,3.55-2.12M552.31,214.22c.18-.72.95-.45,1.12-.28.16.16.16.99-.07.96-.3-.04-1.15-.28-1.05-.68M548.47,216.93c.92-.75,1.8-1.63,3.07-1.8.42.19-1.65,2.34-2.45,2.47-.21.04-.84-.49-.62-.67M552.22,216.3c.6-.12,1.32-.29,1.37.79-1.22.2-1.8.88-2.66,1.33-1.45.76.8-2.02,1.29-2.11M550.67,220.57c.53-1.1,1.73-1.21,2.67-2.13,2.09.71-2.61,2.68-2.67,2.13M547.1,232.62c-.3.09-.82.2-1.02-.11-.19-.3.12-.67.47-.95.24-.2.51.04.59.18.12.22.19.82-.04.88M554.84,238.76c.29.54-.29.72-.77,1.09-.4.1-.74-.3-.75-.54-.01-.52.47-.81,1.52-.55M551.29,236.35c.08-.49-.26-1.03-.05-1.27.33-.38.98-.28,1.29-.34.55-.09.78,1.04.48,1.78-1.59-.16-3.09.61-4.42,2.25-.34-1.74,1.54-2.18,2.7-2.42M551.38,237.99c.1-.52.81-.91,1.48-.84.21.02.4.59-.12.84-.4.19-.71.31-.88.35-.19.05-.53-.08-.48-.35M551.56,239.3c-2.03.66-2.7,2.91-3.57,1.62-.27-.4,2.55-3.14,3.57-1.62M548.27,232.96c.24-.03.49-.71.62-.19.11.45.19.96-.29,1.02-.42.05-.73.1-.85-.17-.21-.45.15-.61.52-.66M546.97,239.04c.16-.41.55-.29.69-.23.28.12.55.42.27.75-.11.12-.28.22-.44.26-.33.08-.74-.2-.52-.78M542.61,240.28c.26.1.15.65.17,1.25.92.63,3.13-3.18,3.68-1.82.09.21-.11.76-.37.98l-3.74,3.23c-.37.4-.64-3.44-.8-3.24.24-.32.62-.57,1.06-.41M541.24,241.98c.18.15-.25.6-.47.67-.26.09-1.01.22-1.02-.34-.02-.55.8-.58,1.49-.33M535.04,237.52c.4-.35.94-.22,1.11.03.19.28.06.66-.13.81-.25.2-.65.25-1.08.21-.31-.03-.37-.65.09-1.05M534.96,239.44c.18-.12.7.47,1.05.32,1.69-.75,3.73-4.44,3.95-1.86-.94.83-4.32,3.73-5.1,2.51-.12-.19-.12-.83.1-.97M535.34,249.21c-.13.34-.45.19-.6.25-.31.12-.92-.16-.54-.7.15-.22.64-.09.88-.13.17-.03.37.28.26.58M532.23,248.02c-.52-.67,2.37-1.59,1.05-1.73-1.39-.15-2,1.82-3.21,1.81-.41-1.57,1.57-2.95,2.94-2.65.77.17,1.45,1.15,2.71.71-.79,1.03-2.71,2.87-3.49,1.86M538.34,250.95c.23-.22.57-.09.9-.15.28-.05.38.66.09.75-.21.07-.56.23-.83.44-.18.13-.37-.83-.16-1.04M543.03,251.3c-2.74-.3-1.94,3.79-4.51,2.46-.57-.61,4.95-4.68,4.51-2.46M540.76,249.18s.97,1.07.45,1.11c-.55.05-.91.1-.98-.17-.11-.38.1-.67.53-.95M541.46,248.06s1.59.13,1.11.76c-.25.32-.46.19-.61.23-.41.11-.9-.14-.5-.99M538.93,249.32l-2.91-1.36c.56-.57,1.55-1.31,1.08-1.75-1.02-.12-4.22-1.87-2.94-2.7.36-.23,1.03-.38,1.46.11.16.18.3.36.48.53.13.12.25.05.36-.08.18-.21.2-.71-.06-.92-.3-.25-.47-.48-.39-.66.52-1.18,2.05.91,4.64,2.01.79.33,1.08,1.45,2.45,1.52-1.71,1.37-4.14,2.21-4.16,3.29M543.68,245.17c-.42.38-1.16.13-.88-.76.17-.54.86-.24.98-.04.17.29.09.62-.1.8M552.36,249.68c-.62.73-.92-.15-1.14-.37-.37-.37.16-1.11.64-1.01.33.06.85.97.5,1.39M553.35,250.78c-.5.07-.96-.64-.33-.97.62-.32.89.09.88.36-.02.44-.24.57-.54.61M554.34,247.09c-.38.03-.77.54-1.19.23.13-.41.33-.54.26-.69-.1-.2-.64-.43-.78-.19-.55.91-1.48.89-2.21,1.35-1.02.65-1.69,2.47-3.59,2.02-.61-.14-1.14-1.01-2.11-1.33,3.27-2.59,4.14-3.43,7.29-5.43-.72-.71-1.46,0-2.06-.9,0,1.12-.79,1.17-1.5,1.83l-2.7,2.5c0-1.5.14-3.11.49-4.64.28-.47.96-.3,1.1-.03.23.47-.21,1.16-.18,1.98,1.09-1.03,6.35-5.18,7.66-1.78l-1.32.52c-.21.09.04,1.05.42,1.07.37.03.8-.14.98-.02.26.16.4.69.28.87-.16.24-.62.39-.98.45-.59.1-.67.66-.52,1.11.08.25.64,0,.94.19.45.29.16.83-.3.86M555.97,257.1c-.42.05-.71.09-.85-.17-.25-.45.21-.62.53-.66.22-.03.49-.71.61-.19.11.45.19.96-.29,1.02M555.88,253.06c.8-.83,1.78-.62,2.25.16-.81.2-1.55.5-2.25-.16M557.98,249.01c.14-.22.65-.09.89-.13.16-.03.37.28.26.58-.13.34-.44.19-.59.25-.41.15-.88-.18-.55-.7M559.58,251.39c-1.42.66-3.25.03-3.77-1.46,1.56-.44,2.76.41,3.77,1.46M555.85,239.54c.53-.34.79-.06.72.41-.04.25.11.65-.21.87-.24.16-.62.03-.78-.13-.38-.35-.16-.88.27-1.15M556.21,243.38c-.23-.02-.62-.4-.65-.64.5-.22,1.02-.33,1.68-.01-.03.85-.76.68-1.03.65M563.72,230.31c-.19.32-.7.65-.99.45-.35-.25-.46-.93-.21-1.34.27-.45.77-.32,1.15-.02.23.19.27.54.05.91M566,230.07c-.19.93-.88,1.53-1.46.81-.03-.33.73-.88.73-1.16,0-.35-.63-.68-.75-1.14-.17-.62.52-1.7.85-2.13.74-.12,1.62.29,1.8,1.02-.45.55-.89.54-1.62,1.09.95.74.54,1.1.46,1.51M575.61,231.09c-1.25.2-1.48-.8-.45-.89.61.04,1.13.14,1.3-.24.1-.21-.44-.64-.31-.82.24-.32.67-.24,1.19-.12-.19.76-.62,1.9-1.73,2.08"/>
    <path class="cls-1" d="M536.16,269.86c-.14-.37-.83-.41-.86-.63-.21-1.57,4.48,1.07,6.99-3.29-.92.28-1.86.61-2.89.19.49-1.01,1.44-.85,2.05-1.46.85-.84,1.63-1.68,2.61-2.46-1.6-1.3-2.76,1.47-6.43,3.7-.38.23-.45,1-.8,1.09-.39.1-1.29.32-1.24-.25.08-.83,1.19-.65,1.2-1.59-1.45-.25-1.88-1.09-2.47-2.09-.34,1.52-1.44,1.89-2.63,2-.11,1.14.85,1.04,1.9,1.13.43.15.02.99-.35,1.1-.58.18-1.34.14-1.56-.55-.25-.77-1.31-.34-1.65-.67-.64-.62.49-1.11,1.16-1.73l-1.77-.81c-.21-1.01.84-.99,1.48-1.43.43-.29.03-.81-.35-.81-.29,0-.87.02-.97.41-.05.19.07.35.02.87-2.6-.09-2.01,1.37-3.76,2.14-.23.1-.47-.2-.4-.45l.23-.83c-.92-.57-1.64-1.28-1.67-2.36-.04-1.52,1.98-3.5,3.13-3.32-.05-.94,2.2-2.75,2.76-2.61.48.12.92.48.3.85-.44.26-.87.37-1.04.77-.17.38.15.66.61.7,1.08.08.48-1.3,2.71-1.61-2.34-4.14-2.48-1.92-3.82-3.3-.69-.71,1.09-.94-2.61-3.81-.75-.58-1.53,1.27-1.02,1.66,1.12,0,3.3.82,2.71,2.39-.39,1.05-2.53,2.34-3.46,1.95-.81-.34-.88-.88-1.47-.7-.65.19-1.17.5-.64,1.09.33.36,1.06.21,1.09.79.02.41-.52.55-.82.93-.46.6.53.87,1.04,1.18-.21,1.01-1.06,1.48-1.1,2.31.58.28,1.13.21,1.19.45.08.35-.02.89-.26.98-.17.06-.75.3-.82-.02-.13-.57-.31-1.11-.72-1.07-.27.02-.77.1-1.04.33-2.75,2.38-4.35,1.58-3.63,3.93,1.06-.99,1.47-1.97,2.72-1.73.42.08.66.59,1.21,1.02.33.26.77-.44.72-.68-.2-.91-1.21-.77-.8-1.48.18-.3.63-.37.92-.26.15.06.23.37.37.69,1.33.31,2.42,1.21,2.58,2.44-.47.18-.82.39-.78.69.06.56.09,1.07.54,1.13.26.03.84-.27,1.13-.11.65.38.64,1.33,1.32,1.39.71.06,1.27-.6,1.88-.78.33.15.24,1.78,1.16,1.33.6-.3.96-1.93,1.78-1.28.56.44.35,1.43.92,1.49,1.35.13,2,.06,2.56,1.35.2.46-.46,1.13-.94.89-.53-.26-.53-1.36-1.22-1.29-1.7.19-2.27,3.48-4.1,2.28.11-.56,1.08-1.32.64-1.65-1.43-1.07-3.26-1.91-4.75-2.64-.78.65-1.63,1.28-2.62,1.08-.74.46,2.79,2.92,2.95,2.94,1.56.14,1.7-1.54,2.54-1.18,1.29.55-1.07.99-1.13,1.77-.02.21.2.58.67.39.36-.15.71-.31.94-.19.27.14.36.52.29.75-.15.5-1.76.66-1.83,1.34-.05.44.33,1.08.9.88.6-.21.56-1.46,1.31-1.53,3.61-.37,2.12-2.92,4.64-2.73.38.03.42,1.13.87,1.21,1.09.19,2.1-1.71,1.76-2.62M537.61,267.6c.05-.28.45-.12.75-.41.37-.49.63.08.36.55-.4.35-.65.69-.93.55-.17-.08-.21-.51-.18-.69M524.77,256.31c.26-.08.44-.26.65-.15.52.27.15,1.68-.25,1.82-.59.2-.91-.21-1.07-.49-.26-.46.06-1,.67-1.18M527.32,266.02c-.53.04-.95,0-1.05-.13.06,0,.18-.91,1.31-.72.36.06.49.8-.27.85M534.92,268.1c-.51.56-.84.85-.88.49-.05-.54-.14-.87.14-.98.43-.16,1.31-.14.74.49"/>
    <path class="cls-1" d="M572.4,241.71c-.43.49-2.33,1.01-1.93.37l1.07-1.72c-.57-.15-1.24-.04-1.82-.35-1.19-.65,1.78-.97,1.62-1.72-.48-2.33-4.87,3.11-7.91,4.93-.31.18-.38.89-.25.94.99.37,1-.88,1.88-1.21,1.13-.42,1.13,1.27,2.65.97.36-.07.29-.78.75-1.16.76-.32,1.29.84,1.97.84.51,0,4.68-1.87,4.67-3.67-1.1-.12-1.94.91-2.71,1.79M569.36,241.25c-.14.36-.57.34-.83.31-.24-.03-.81-.35-.54-.86.28-.52.82-.52,1.09-.27.17.17.43.46.28.82"/>
    <path class="cls-1" d="M596.39,182.32c-1,.75-2.35,2.23-3.59,1.94-.51-.12-.79-1.14-1.42-.87.02,0-5.78,4.3-4.92,3.77l-3.36,2.08c-.12.16.51.55.63.71.61.78-1.01,1.13-.39,2.09.16.24.54.4.9.44,1.58.17-.17-1.71.34-2.86.43-.96,1.06-1.38,2.02-1.3.37.5.3,1.03.89,1.6-.2-.51,5.49-4.49,5.53-2.38l-2.42,1.94c.75.59,1.81-.09,1.83,1.02-.6.42-1.45.12-1.61.44-.15.31.03,1.08.33,1.19.88-.34,1.82-1.02,2.93-1.65-.65-1.02-.16-2.25-.61-3.06-.32-.58-1.48-.54-1.27-1.49,1.05.35,1.16-.71,1.71-1.09.84-.58,1.77-1.07,2.63-1.76,1.07.19.77-1.03-.15-.76M591.18,186.23l-1.29.83c-.45.29-1.31-.04-1.42-.71l2.29-1.75c.46-.35,1.43.02,1.35.56-.05.32-.27.65-.93,1.07"/>
    <path class="cls-1" d="M577.66,189.02c1.22.41,1.61-.74,2.49-1.05.67-.23,1.78-.64,1.32-1.38-.24-.39-1.73,0-1.7-.91.02-.71,1.37-.55.92-1.81-1.21,1.58-2.55.48-4.01.53-.87.03-1.87,1.36-2.96.63l.25,3.31c.06.75-1.25.98-1.14,1.91l6.4-4.31c-.02,1.59-1.83,1.71-1.56,3.07M577.62,185.63c-.02.27-.24.63-.75.66-1.77.09.17,1.14-2.17,1.31-.28.02-.39-.78.03-.94,2.84-1.04.83-1.35,2.63-1.6.18-.03.28.26.26.57"/>
    <path class="cls-1" d="M546.49,275.62c-.58-.24-1.26,1.43-2.08,1.43-.7,0-.96-.76-2.04-1.06-.17-.05-.27.18-.47.54,1.13.82,1.47,1.84,1.42,2.93-.06,1.22-.58,1.89-1.74,2.37,1.22.72,1.66-.23,2.33-.7.4-.28,3.3-1.98,2.98-2.39-.74-.98-1.2-.38-1.38-.78-.99-2.28,2.07.05,2.97-.61-.58-.65-1.2-1.4-1.99-1.74M544.97,279.15c-.08.21-.45.27-.67.18-.37-.15-.54-.49-.26-.86.16-.21.55-.16.75-.11.22.06.33.41.19.79"/>
    <path class="cls-1" d="M514.9,236.4c.76,1.49,2.97-1.09,2.81-1.37-.25-.47-3.28.45-2.81,1.37"/>
    <path class="cls-1" d="M547.22,248.93c1.94-1.06,3.24-2.36,4.9-3.5-.93-.73-5.44,2.26-4.9,3.5"/>
    <path class="cls-1" d="M424.46,247.29c-.13-1.52,1.56-1.03,1.53-1.85-.04-1.24-1.54-.09-1.99-1.3.51-1.15,2.24-1.01,2.98-1.81l2.11-2.3c-.81-.09-1.57-.07-2.09.1-.77,1.36-2.77,3.51-4.48,2.97-1.26-.4-2.12-2.15-3.72-2.22.92-1.82,2.64-2.05,3.87-3.2,1.29-1.21,2.54-1.73,4.51-.97l2.78-2.17c-.97-.56-2.38-.69-2.94.15-.27.41.06,1.12-.58.88-.17-.06-.4-.05-.52-.23-.22-.3-.12-.64.23-.83.14-.08.43.09.85-.39-4.48-.14-2.48,3.01-5.31,2.31-.38-1.14.95-1.97,2.06-1.91-.27-.66-.94-.81-1.46-.8-.48,0-.38.88-.86,1.17-.8.48-2.81,1.03-2.76,2.13.04.97.52,1.71-.04,2.34-.63.71-1.84,1.03-2.01.12-.07-.37,1.18-.66.96-1.16-.16-.39-.47-.73-.96-1.19.18-.87,3.44-1.95,3.09-2.96-.05-.14-.19-.64-.47-.46l-5.86,3.75c-1.09.7-2.05-1.4-2.98-1.69-1.06-.33-2.04.93-2.66,1.57.62.46,1.65.99,1.24,1.59-.75.5-2.58.98-1.57,2.17.86,1.01,1.99-3.17,3.84-1.38-.39.75-1.35.81-1.77,1.42.07.25.55.55.55.83,0,.33-.25.54-.45.85-.38.59-.65,1.19-.02,1.37,2.27.65,2.6-2.49,5.34-3.15.43-.1.47.6.19.83-.17.14-.37.39-.6.7,1.58.5,2.47-.5,3.83-1.33.31,1.97-1.58,2.39-3.16,2.67-.34.06-.1,1.24.17,1.21,2.71-.29,2.49-2.24,4.32-2.14.99.05,2.02.89,2.97,1.27-.23.77-.88.62-1.14,1.18,1.04.31,1.62-.68,2.63,0-.65.88-1.73,1.04-1.55,1.98.76-.49,1.32-.17,1.87-.1"/>
    <path class="cls-1" d="M492.11,303.27c-.56,1.57-1.45,2.03-2.6,2.85-1.18.84-.61,3.05.73,3.78-.98.98-1.37,1.62-1.29,2.59.09,1.02.73,1.49,1.3,2.33.21.31-.55,1.03-.34,1.3.33.42.88.74,1.24.65.31-.08,1.77-1.71,1.65-2.31-.07-.34-.72-.61-.76-1.03-.05-.48.77-.89.59-1.39-.13-.35-1.24-.46-1.19-.85.14-.95,1.01-.72,1.14-1.33-.98-.16-1.31-.24-1.33-.63-.1-1.87,2.18-1.41,2.21-2.83,0-.34-.71-.83-.6-1.26.14-.5,1.24-.69,1.08-1.46-.1-.47-1.66-.86-1.83-.4"/>
    <path class="cls-1" d="M448.04,261.32c-.75.18-.88-.41-1.36-.97-.47-.56-1.51-.13-1.58.46-.05.36-.72,1.23.05,1.39.67.14,1.56-.99,1.93-.1,1.1,2.65,1.14-.99,2.82-.37.3.11.53.43.71.99.15.48,1.09.29,1.41.07,1.17-.82-1.19-2.38.55-3.65-1.03-.13-1.39-1.33-2.18-1.49-1.32-.27-2.37,1.06-3.13,2.04l1.68.21c.22.97-.34,1.28-.89,1.41"/>
    <path class="cls-1" d="M461.6,285.89c5.02-1.62,3.22,1.31,7.86-2.13-1.06-.9-1.92-.11-2.76.45-.66.44-1.34-.55-1.91-.49-1.14.13-4.7,2.36-4.65,3.25.03.56.79.2,1.43.85-1.27.95-2.95,1.55-3.19,3.2,1.38.17,2.12-.81,3.02-1.49.49.43.78,1.43,1.52,1.4,1.25-.05,2.22-1.27,2.47-2.35-.98-.2-1.46-1.06-2.27-1.3-.5-.15-1.21.19-1.44-.43-.11-.28-.49-.83-.07-.96"/>
    <path class="cls-1" d="M461.2,267.02c-.84-1.06-.28.2-2.61,1.68-.52.33-.79,1.64-1.61,1.24-.41-.2-.51-.94-.9-1.02-.78-.15-2.59,1.43-2.17-.12.28-1.02,3.53-1.58,4.28-3.71.22-.63-1.11-.6-1.48-.55-.5.07-.45.84-.83,1.3l-1.5,1.81c-.75-.13-1.26-1.17-2.01-1.07-.58.08-1.16.87-1.79.9-1.11.05-1.95-.9-3.21-.38.47,1.05.04,2.33.69,3.24,1.24-.7,1.76-1.17,2.52-1.02.76.15,1.11.98,1.62,1.31.33-.37.43-1.15.75-1.19.3-.03,1.13-.1,1,.25l-1.29,1.26c.99,1.58,3.02-1.9,4.19-.72.34.35.65,1.78.06,1.81-1.36-.23-2.55-.16-2.93,1.25,1.47-.03,1.6-.91,2.38-1.11l1.09,1.82,2.27-1.43c.53-.34.89-1.26.22-1.54-.39-.17-.96.19-1.81-.26l3.54-2.71c.32-.25-.31-.85-.46-1.04"/>
    <path class="cls-1" d="M449.47,272.54c.49-.25.2-1.43-.18-1.38-1.26.16-2.22,1.48-3.04,2.35-.97,1.03-2.34,1.46-2.84,2.83.67.33,1.11-.51,1.66-.35.98.3-.48,1.45-.24,1.86.79.76,2.18,1.15,3.25,1.45.33-1.36-.69-1.8-1.87-2.15.47-.97,1.31-.63,1.8-1.36l-1.81-.64c.71-1.55,2.02-1.97,3.28-2.6"/>
    <path class="cls-1" d="M492.82,287.42l.6.98c1.07-.11,1.9-1.14,2.2-2.22-3.99,1.25-2.96-1.02-7.35,2.75.49.67,1.11.74,1.31,1.14.12.23-.18.79.17,1.33.63-.31,1.39-.77,1.7-1.73-.87-.08-2.2.43-1.88-.56.03-.09,2.67-2.62,3.25-1.68"/>
    <path class="cls-1" d="M454.39,288.95c-.32,0-.91.45-1.23.38-.82-.18-.7-1.21-.97-1.75-.17-.34-1.21-.24-1.31.25-.13.69-.34,1.08-.84,1.12-1.74.16-1.36-1.91-2.24-1.17-.22.18-.46.49-.53.83-.1.46,1.67.45,1.39,1.32-.05.15-2.07,1.43-1.14,1.87,1.1.52.96-1.07,1.31-1.36.96-.08,2.19-.66,3.17-1.01,1.27-.45,2.12,1.38,2.93,1.78.7.35,1.36-.49,1.36-.83,0-.45-1.89-1.44-1.89-1.44"/>
    <path class="cls-1" d="M440.66,282.9c-1.5-.78-3.11-.86-4.14.75l2.08,2.21c.43.45.94-.2.98-.6.15-1.7-1.54-.29-1.34-1.48.04-.27.16-.56.58-.61.97-.12.48,1.87,1.68,1.41.29-.12.47-.37.71-.82.36-.69.18-.52-.54-.85"/>
    <path class="cls-1" d="M474.12,283.48c-.65.91-1.41,1.44-.51,2.49.31-.32.19-.89.53-1.41,1.23-.46,2.86-1.12,2.57-2.67-.81.82-2.6,1.37-2.66.14-.02-.28,1.13-.39,1.33-.56.19-.16.16-.62-.33-.81-.91.32-1.78,1.12-2.59,1.79-.05.73.99.74,1.65,1.03"/>
    <path class="cls-1" d="M406.26,233.95c-1.18-.32-2.2.17-2.69,1.2l1.56,2.88c.39-.63,1.45-1.14,1.47-1.88-.13-.82-.68-1.42-.35-2.2"/>
    <path class="cls-1" d="M494.27,291.65c-.08-.94.42-1.65-.23-2.33-.98.42-1.53,1.59-2.36,2.31,0,.35.53.44.79.35.31-.1.56-.29.84-.73.51-.41.7.12.44.65-.27.53-.21.77.03.81,1.31.25,1.44-.18,2.97-2-1.34-.31-1.43.9-2.46.94"/>
    <path class="cls-1" d="M461.44,293.21c-.49-.16-1.61,0-1.16-.94.42-.42.93-.2,1.07-.32.2-.16.17-.81-.18-.9-.81.85-1.97,1.32-2.42,2.69,1.17-.42,1.49.27,2.16.74,1.06.75,2.65-.79,2.51-1.95-.74.48-1.2.95-1.99.68"/>
    <path class="cls-1" d="M472.71,287.03c-.29.13.43.92.73.97-.04,0,3.94-2.92,4.5-3.37-.8-1.54-1.18.63-5.23,2.4"/>
    <path class="cls-1" d="M422.56,239.36c-.77.39-2.01.64-1.81,1.75.89.09,1.38-1.05,2.09-.71.61.29.99.87,1.4.72.31-.11,1.1-.46.78-.95-.49-.75-1.71-1.19-2.46-.81"/>
    <path class="cls-1" d="M476.35,287.79c-1.05.57-1.8,1.02-2.91,1.84.94.9,2.02,1.69,3.1,1.59-.32-1.18-.97-1.28-.93-1.91.03-.52.86-.56.74-1.52"/>
    <path class="cls-1" d="M455.89,276.3c-.02.24-.04.99.51.91.86-.12,2.4-.78,2.28-2-.12-1.22-2.79.94-2.8,1.09"/>
    <path class="cls-1" d="M437.5,281.41c.92-.39,1.79-.12,1.84-.88.02-.39.11-1.21-.63-1.19-.66.02-2,.16-1.76.88.13.37-.12,1.46.55,1.18"/>
    <path class="cls-1" d="M472.01,278.79c-1.17-1.09-.83-1.56-1.27-2.62-.38,1.18-.92,1.89-1.07,3.09.95-.11,1.73.23,2.34-.47"/>
    <path class="cls-1" d="M463.39,281.08c-.29.35-.02.97.28,1.16.28.17,1.13.2,1.43-.19.09-.27-.22-.83-.43-1.3-.31-.7-.98-.03-1.29.34"/>
    <path class="cls-1" d="M492.47,298.85c.72.5,1.14,1.13,2.02,1.47.13-1.14-.38-1.85-.85-2.34-.42-.1-.97.43-1.17.87"/>
    <path class="cls-1" d="M449.14,254.12c.88-.12.99-1.06.66-1.26-.35-.21-.77-.09-1.1.14-.32.23-.62.46-.58.83.03.28.4.38,1.02.29"/>
    <path class="cls-1" d="M494,295.35c1.43.35,1.95-.79,2.21-1.94-.87.25-1.82.74-2.21,1.94"/>
    <path class="cls-1" d="M490.54,296.45c.08-.13,1.29-1.33.95-1.62-.31-.27-.69-.21-.91-.25-.5-.07-1.09,1.48-.88,1.83.19.32.61.41.84.04"/>
    <path class="cls-1" d="M473.41,280.81c.35-.08.42-.51.44-.75.03-.49.06-1.25-.63-.78-.41.28-.73.71-.57,1.11.1.23.51.48.76.42"/>
    <path class="cls-1" d="M462.3,269.76c.1.11.12-.08.75-.22.52-.26.44-.47.21-.58-.3-.15-.47-.28-.78-.2-.29.08-.39.25-.59.53-.17.24.11.13.41.46"/>
    <path class="cls-1" d="M490.07,293.55c.28-.18.43-.38.61-.52.6-.5.39-.85-.12-.82-.18.01-.29-.16-.61.1-.28.23-.39.57-.18.94.1.17.05.47.3.31"/>
    <path class="cls-1" d="M450.4,292.22c-.28-.13-.89-.18-1.08.15-.31.52.1,1.11.51.99.22-.06.49-.33.75-.53.28-.22.01-.51-.18-.6"/>
    <path class="cls-1" d="M434.47,280.29c-.29.22-.34.36-.38.52-.06.22.02.58.33.56.33-.02,1.2-.86.81-1.13-.19-.13-.51-.15-.76.04"/>
    <path class="cls-1" d="M489.42,300.98c-.43.29-.23.81.11,1.06.15.11.36-.06.55-.26.13-.14.16-.39.03-.65-.13-.26-.35-.37-.69-.15"/>
    <path class="cls-1" d="M455.75,262.23c-.12-.39-.64-1.02-1.07-.87-.45.15-.06.69.08.92.21.33,1.1.28.99-.04"/>
    <path class="cls-1" d="M461.47,260.29c.11-.3-.09-.61-.26-.58-.23.04-.74-.09-.88.13-.32.51.17.84.53.7.17-.07.48.09.61-.26"/>
    <path class="cls-1" d="M468.52,293.35c-.97.37-.69.58.55.69.78-.57.19-1.44-.55-.69"/>
    <path class="cls-1" d="M442.6,277.42c.05-.69-.89-.89-1.23-1.26.24-.61,1.52-1.08.84-1.84-.22-.25-.96-.16-1.14-.46-.52-.85,1.85-1.53,1.45-1.27.52-.34.59-1.27,1.64-.78.19-.46-.15-.98-.42-1.45-.16-.28-.93.11-1.21-.15-.57-.53.5-1,.65-1.44-3.37-2.83,2.2-1.79,1.66-4.96-.29.79-4.18,2.38-4.25,2.61-.52-.29-3.71-2.68-3.52-3.12.16-.37.7-.44,1.2-.88-1.24-.65-2.44-1.22-3.68-2.5,1.52-.82,3.94-3.49,4.42-2.69.51.86-1.18.75-1.02,1.51.29,1.37,2.76-2.11,2.79-.08,0,.7-.89.79-.89,1.01.03,1.75,5-2.12,5.19-2.35.68-.81,1.01-1.74,2.24-1.71.2,0,.48-.8.32-.92-.17-.13-.52-.27-.71-.09-.13.12-.25.34-.49.53-.4.31-.76-.17-.85-.41-.11-.32.08-.86.43-1.12l5.34-3.85c-.02-2.14-.37.66-2.09-1.78-.31-.44-1.74-.03-2.07.43-.34.48-1.22,1.33-.46,2.16.98-.59,2.04-1.81,3.02-1.41.48.78-.67,1.09-1.29,1.32-1.65.61-2.62,2.22-3.97,3.16-.37-.02-.55-.78-.31-1.09.17-.22.48-.33.67-.75-.79.06-2.04-.78-1.56-1.17,1.86-.8,2.5-2.7,4.01-3.82,1.09-.81,2.88-.71,3.62-2.09.15-.41,0-.81.26-.88.4-.1,1.33-.32,1.35.25.03.93-1.31.6-1.52.96-.5.89.96,1.29,1.78,1.65-.11,1.06-.95,1.01-1.47,2.13,1.07-.17,1.89.93,2.75,1.03.84.1,1.72-1.65,2.65-.48-1,.81-2.32,1.49-2.51,2.64.82.02,1.18-.43,1.65-.5.24-.04.46.38.47.73,0,.19-.31.46-.17.64.87.2,1.41.55,1.12,1.17-.32.66-1.76.79-1.75,1.72,0,.55.27.63.67.61.87-.06.59-.62,1.54-1.29.26-.18.8.09.81.41.04,1.13-1.24,1.78-1.7,2.38.36.67,1.91,1.94,2.82,1.35,1.26-.82,2.46-1.79,3.19-2.87-.67-.41-1-.29-1.25-.34-.28-.07-.65-.82-.39-1.15,1.31.67,3.31-2.36,3.4-2.02-.25-1.05-1.86-.91-1.66-1.5.08-.22.69-.69.95-.56.74.35,1.46.96,2.22,1.76-.96,1.13-2.14,1.29-2.75,2.71,2.06.95,3.12-3.12,3.73-1.74.22.51-.87,1.35-.8,1.92.03.22.76.4.74.62-.11,1.73-1.69,2.11-2.95,2.7-1.1.51-1.22,2.09-2.22,2.79,3.01.17,4.1-3.59,6.02-3.72.77-.05,1.38-.86,1.5-1.72.06-.41-.28-.5-.62-1.15-.87-.23,4.75-3.81,4.51-3.05.05.65-.32,1.11-.1,1.87.48-.18,1.27-.73,1.44-.1.04.41-.65.78-.48,1.02,1.3,1.81,1.8-1.61,3.23.06-.55.64-1.14.19-1.83.65.33,1.11,1.52,1.31,2.33.95-1.2-2.12,4.78-1.83,5.15-.94-.51.95-1.23.83-1.68,1.46.39.55.91.87.85,1.32-.06.43-.51.73-.62,1.24-.1.48.56.5.8.39,1.22-.59.65-1.15,2.53-2.02-1.93-2.83-1.09-3.92-4.21-4.43.04-.7.97-.8.63-1.33-.78.09-1.67.21-1.85-.38-.08-.26.36-.5.44-1.21-1.32.3-2.6.8-3.28,2.21l-3.43-1.77,4.05-2.55c-.8-1.37-5.23,1.56-5.71,3.4-2.58-1.7,3.87-3.77,3.93-5.04-1.95.11-2.28-1.04-3.21-1.76-1.08-.84-2.52-1.27-3.61-1.96-.19-.12-.63.45-.75.6-.16.21.03.59.23.63s1.1-.04,1.2.23c.38,1.02-1.1,1.93-2.1,1.88-.32-.76.29-1.41-.67-2.08l-2.08,2.21c-.25.75.19,2.1.24,2.86.43.09,1.03.21,1.17.33.13.12-.12.49-.22.64-.38.61-1.6-.3-3.27-.24-.35-.75-.77-1.87-.74-2.59.15-.46.67-.75.36-1.2.46.68-3.65-2.82-4.78-2.45-1.45.47-2.9.68-4.13-.88,1.18-.14,1.2-1.09,1.74-1.64.67-.68,1.47.53,1.88.91.65.6,1.21-.42,1.7-.57,1.56-.47,2.85.59,4.01,1.49.19.15.84-.15,1-.07.15.07.33.24.25.59-.05.22-.3.34-.64.45-.6.2-.71.84-.49,1.16.8,1.14,2.49-1.08,3.13-1.71-.96-.42-.58-1.62-.96-1.96-.67-.59-1.63.37-2.3.22-.49-.11-.46-.87-.65-1.23-.49.33-.91.61-1.24.58-.67-.05-.43-1.12-.82-1.4-.88-.65-2.27-.39-2.76-1.75-.6,1.07-1.35,1.21-2.2,1.72-.47.28-.2,1.43-.83,1.59-.82.22-.92-.52-.9-1.07.03-.52.48-.48,1.23-.77.43-.17-.19-1.09-.55-1.21-.5-.17-.97.6-1.4.65-.54-.53.01-1.72-.81-1.6-.37.05-1.36-.15-1.31.36.86.83,1.34,1.35,2.28,1.48-.79.91-1.26,1.41-1.2,2.33-.68-.02-1.22-.22-1.93-.11-.22.92-.74,1.47-1.14,2.13.88,0,1.55-.22,1.38.54-.27,1.18-.86.1-3.34,2.49-.22.22-.59.34-.96.28-.18-.03-.23-.33-.08-.53.07-.09.36-.31.36-.67-.11-.45-.91-.04-1.63-.39,1.09-1.63,2.56-2.83,4.41-3.65.65-.28,1.01-1.52.4-1.64-1.94-.39-2.68,2.7-2.94.72-.15-1.15,3.94-1.43,3.78-3.52l-3.06-.76c1.63.4-6.65-.29-6.24-1.06-.67.42-.13.91.19,1.05.17.07.51,0,.85-.09.76,2.4-1.92.71-.56,2.77.12.17.66.07.85.2.3.53.87.94,1.24,1.47.49.7-.6,1.26-.71,1.85.65.33,1.45.65,1.19,1.21-.19.41-.56.7-.95,1.25l1.38.82c-.62,1.52-2.18,1.93-3.31,2.86-1.09.89-1.78,2.09-3.38,2.61.64.77,1.23.19,2.02.85-.65,1-1.34,1.88-2.47,2.25-.52-.21,1.25-2.05-.03-2.41-.32-.09-1-.08-1.27-.28-.19-.14.16-.6-.31-1.09-1.14.79-2.58,1.48-3.56,2.46-.68.67-1.01,1.63-2.19,1.53l.36-2.4c-1.26.13-2.62,1.01-2.78,2.22.68.13,1.51,1.52,2.15,1.54.92.03,1.74.28,2.31,1.03,1.56-.24,2.33-1.73,3.58-2.32,1.1,1.71-4.95,3.42-1.27,3.69,2.16.28-1.01.71-.82,1.91.1.6,1.03.38,1.48.72.56.44-.12,1.23-.73,1.05-.3-.09-.77-.12-1.28-.74-.51.6.18,1.14.52,1.55.37.45,1.12.69,1.6.15.38-.42,1.24-1.16,1.37-.35l-1.31,1.82c1.42.16,2.74.54,3.65,1.76-1.02,1.26-2.47,1.63-3.29,2.95,1.03.83,2.11.2,2.93-.54.48-.43,1.01.19.76.51-.49.63-1.04.44-1.41.91-.27.35.24.53.51.57l.67.1c.74-.63,1.43-2.24,2.66-1.76.42.76-.92,1.26-1.6,1.48-.84.27-.67,1.52-1.84,1.56-.54-.81-1.8-1.89-2.54-1.38-.35.73,1.12,1.16,1.52,1.67-.94.59-1.24.59-1.02,1.56.15.65,1.06.75,1.31,1.27.14.66-1.39,1.97-2.14,1.79-1.01-.24-.17-1.5-.03-2,.15-.53-1.02-.7-1.21-.36l-.41.69c-1.13.53-1.6-.34-1.86-1.07-.15-.42-.2-.97.19-1.7-.59-.49-1.14.15-1.72-.06.03-.75.03-1-.17-1.22-.27-.31-1.47-.1-1.18.37l2.05,3.3c.19.31.1.78.48.7.16-.03.64-.24.77-.07.35.48.12,1.28.55,1.64.67.57,2.11-.36,2.09,1.08,1.33.11,2.93-2.32,5.29-3.7.39,1.08-.44,1.51-.34,2.36,1.14.22,1.97.22,2.43,1.21.22.38.98-.39,1.01-.8M470.18,248.64c1.82-.65,1.92-2.76,2.72-1.9.9.97-3.09,3.41-2.72,1.9M470.44,252.16c.02.76-1.92,1.77-2.38,1.16-.52-.7.36-1.18.67-1.39.39-.27,1.68-.69,1.71.23M465.23,247.11c.22-.31.56-.09.71.02.16.12.63.57.26.56-.44,0-.6.51-.8.46-.35-.1-.31-.83-.17-1.04M465.88,249.25c1.81-1.16,2.84-3.79,3.68-2.31.72,1.28-3.29,1.89-.33,2.61-.27.87-1.23,2.27-2.43,2.43-.62.09-.81-.77-.47-1.08.32-.3.64-.73,1.4-1.22-.62-.23-.92.34-1.85-.42M457.13,239.43c.49-.02.68.35.78.58.18.43.11.94-.5,1.13-.29.1-.75-.28-.96-.82-.12-.3.17-.4.68-.89M457.61,251.1c-.16-.04-.19-.17-.21-.55,0,.03.86-.81,1.16-.77.24.03.49.21.56.57.09.46-.91.88-1.51.75M461.12,252.56c.15-.22.63-.09.88-.13.17-.03.37.28.26.58-.13.34-.44.19-.61.26-.32.12-.89-.18-.53-.71M460.71,256.9c-.99.3-1.35-.29-.88-.79.19-.2.56-.34.94-.26.39.09.63.83-.07,1.05M460.84,253.67c.31.22,0,.91-.27,1.04-.46.2-1.16.37-1.52,0-.11-.17.25-.58.25-.78,0-.27-1.01-.48-.91-.87.21-.81,1.18-1.59,1.95-1.76-.06.87-.82.86-.86,1.25-.09.76.31,1.21,1.37,1.12M459.69,246.18c.12-.13.18.42.22.55.09.25-.14.74-.54.62-.2-.06-.56-.34-.63-.59-.06-.2.62-.21.95-.58M458.84,247.53c-.15.92-.58,1-1.04.97-.31-.02-.77,0-1.09-.66.58-.49,1.29-.69,2.13-.31M455.61,245.94c.26.03,1.08-.25,1.13.72.04.68-1.45.67-1.75.14-.33-.6.34-.9.62-.86M453.11,245.53c.27-.44,1.16-.73,1.23-.7.47.15.46.7-.09,1.08-.39.27-.64.34-1.02.27-.19-.04-.28-.39-.13-.65M445.8,237.86c.27-.3.77-.3.89,0,.14.37.3.6.21.87-.15.45-.78.67-1,.32-.27-.43-.43-.83-.1-1.2M443.86,239.46c.17-.2.51-.11.88-.12.26,0,.26.24.04.41-.29.22-.28.38-.43.42-.32.1-.9-.23-.5-.71M442.75,238.9c-.25-.18-.37-.66-.1-.97.21-.24.53-.13.7.04.16.16.33.49.19.76-.15.3-.6.31-.79.17M433.59,254.27c-.35-.2-.32-.56-.11-.92.14-.23.24-.46.39-.51.24-.09.62-.06.83.2.3.39-.63,1.51-1.11,1.24M440.75,256.43c-.33.2-.67.16-.97.07-.16-.05-.15-.29-.18-.53-.03-.25.29-.39.73-.64.26-.15.71.16.86.29.16.16-.03.55-.44.81M443.97,255.47c.48.03.63.57.09,1.09-.35.34-.73.55-1.04.57-.21.02-.55-.1-.51-.42.03-.26.42-1.31,1.46-1.24M442.45,249.9c.31.63.69,2.09.09,2.54-1,.75-1.76-.46-2.39-1.2.57-.51,1.27-.85,2.3-1.34M437.81,255.04c.1-1.04,1.36-1.67,2.34-1.7.46-.01,0,.6-.21.86l-.81,1.02c-.2.26-1.38.39-1.32-.17M437.51,255.69c-.04,1.41-1.09,2.11-2.46,2.05.33-1.27,1.38-1.85,2.46-2.05M439.74,267.58c-.13.34-.45.19-.6.25-.31.12-.92-.17-.54-.71.15-.21.64-.09.88-.13.16-.03.37.28.26.58M440.01,273.33c-.66-.68-.2-1.45.18-1.92.42-.52,1.11-1.01,1.73-.75-.77,1.07-1.1,1.97-1.91,2.68"/>
    <path class="cls-1" d="M424.54,254.37c-.86-.28-1.29-.33-1.38-1.09-.07-.53.25-.86,1.32-1.11.5-.12.54.37.81,1.11,1.2-.04,2.31-1.17,2.71-2.24-1.19.04-1.7,1.12-2.8.84l1.11-1.82c-.41-.42-1.33-.71-1.07-1.23.22-.43.67-.67.62-.99-.09-.62-.68-.47-1.4-.56.07.8-.45,1.32-1.51,1.46-.43.06-.36-.68-.36-1.36-5.29,2.16-2.3,3.73-3.59,4.8-.33.27-.95.13-1.22-.05-1.06-.71-.26-2.28-.69-2.75-.33-.35-.82-.23-1.42-.43-1.04-.34,1.33-1.37.33-2.04-.29-.19-1.23,1.33-1.85.41-.38-.56.57-.97.6-1.5,0-.21-.51-.77-.93-.63-.91.32-1.37,1.4-2.15,2.23,2.78,2.45,4.01,1.13,4.09,4.94.02.78.76,2.52,1.51,2.73,1.05,0,2.03-.93,3.22-.14-.35-1.04-.37-1.43-.26-2.09.09-.54,1.33-.85,1.38-.41.11,1.11-.06,2.28-1.05,2.44.4.33.62.4.77.5.65.43.97.68,1.08.81.66-.33,1.55-.94,2.13-1.86"/>
    <path class="cls-1" d="M422.41,256.23c-.11.05-.2.1-.3.14.27.03.42.01.3-.14"/>
    <path class="cls-1" d="M430.32,259.85l-2.06-1.43c-.57-.4-1.35.71-1.92.12-.06-.38.25-.64.38-.82.63-.89-4.18.07-1.48-1.32.17-.09.39,0,.73-.14.56-.24.57-.76.59-1.19.02-.46-.46-.66-1.01-.63-.31.02-.77.08-.8.67-.02.3.58.91.2,1.37-.35.42-.99-.32-1.38-.21-.4.11-.54.47-.8.96-.22.42-.72.34-1.06.2-.22-.09-.3-.5-.2-.93-.01.06.24.02.61-.14-.7-.07-2.24-.42-2.48.46-.26.96,2.41,2.22,2.5,2.24,1.03.14.9-.95,1.54-1.57.7-.68,1.44.69,1.57,1.4.16.79-.09,1.72-1.14,2.32.36.51.92.89.78,1.49-.16.69-.86,1-1.59,1.62,1,1.62,7.47-2.97,7.02-4.47M426.7,261.29c-.34-.06-.3-.63-.11-.88.17-.22,1.44-.74,1.6-.76.22-.02.49.2.58.51.2.73-2.08,1.13-2.07,1.13"/>
    <path class="cls-1" d="M430.03,241.79c.46.59.77,1.03.54,1.69-.16.47-3.55,2.07-3.71,2.89.05.73.79.81,1.14.47,1.6-1.56.26-.56,1.39-1.74.13-.13.76-.02.67.2-.55,1.33.32,1.84.58,2.71.38,1.27.37,3,1.89,3.63,1.87-1.74,2.98-3.43,4.79-4.62.25-.17,1.27-.04,1.31-.59.02-.27.06-.57-.26-.77-.3-.18-.68-.08-1.26-.55.96-1.12,2.47-1.54,3.17-2.91-.49-.3-1.06-.91-1.11-1.44-.03-.33.44-.41,1.08-.89-.7-1.18-3.32-1.22-2.47-3.26.15-.35,1.13-.49.73-1.56-4.9,3.57-5.64-1.67-7.18-.5-.19.14-.24.63-.24.92,0,.23.77.17.99.42.6.68-.26,1.2-.98,1.81.58.85,1.73.26,1.83,1.43-.79.25-2.06-.07-2.34.73-.18.51-1.06,1.29-.56,1.93M436.14,247.1c-2.4,1.05-1.47,1.28-2.89,2.11-.25.14-1.2-.4-1-.69.76-1.09,4.26-3.56,3.89-1.42M437.73,239.53c.25.9-.13,1.24-1.35,1.07-.49-.35.93-1.29,1.35-1.07M436.68,238.53c-.63.79-1.71.8-2.44.17.72-.63,1.4-.72,2.44-.17M431.9,241.19c.27-.52.84-.29.97-.07.14.23.24.68.04,1.02-.12.21-.45.44-.78.17-.23-.18-.52-.55-.23-1.12M432.14,243.9c.5-.12,1.03.63,1.55.93,1.17-.37,1.66-1.72,2.67-2.23-.58-.18-.88-.02-1.05-.15-.33-.25-.24-.59-.2-.8.09-.42.57-.85,1.13-.63.75.3,1.38.94,2.15,1.36-1.07,1.55-2.28,2.04-3.68,2.74-.67.33-1.01,1.53-2.08,1.59-.91.05-1.98-1.24-2.03-2-.03-.66,1.1-.71,1.53-.81"/>
    <path class="cls-1" d="M484.91,273.82c1.09-.73,1.98-1.35,3.07-1.88.43.4.2.94.63,1.52.35-.84.1-1.72-.06-2.63-1.3.48-2.17-.22-2.99-1.12-.41.37-.75.6-1.01.49-1.64-.69,2.54-2,3.16-4.03-1.57-.26-2.74-.77-4.15-1.22.4-1,1.07-1.34,1.56-2.22l-1.72-.82c-1.44-.68,2.3-.37,2.24-1.4-.02-.32.05-1.08-.37-1.02-.99.13-1.68,1.11-2.51,1.65-.89.58-1.31-.75-1.87-.96-.74-.28-1.98.81-1.57,1.82.85.26,1.38-1.22,2.36-.71.85.45-.56,1.11-.93,1.41-.52.42-.57,1.21-1.13,1.27-.64.07-1.32.28-1.63-.19-.69-1.02-.18-1.96-.45-2.97-.24-.9-1.98-1.65-2.7-1.74-.43.37-.72,1.46-1.5,1.08-.5-.24-.67-.67-.77-1.49-.72.57-1.65.97-2.01,1.89-4.06.55-1.57,2.41-4.93,2.41.03,1.36,1.68,2.5,3.18,2.27l-1.55-1.5c.4-.81,1.36-.7,1.93-1.32.71-.78,1.68-2.22,2.75-1.77.42.35.52,1.32,1.12,1.26,1.26-.12.67-.94,2.31-1.67.19-.08.79.19.59.7-.38.95-1.6,1.79-2.68,1.9-.71.07-.79-1.01-.97-1.37-1.19,1.09-2.07,1.71-3.4,2.16.92,1.13,1.48-.34,2.38-.35.7,0,.36.98.19,1.38-.24.58-.74.25-1.34.44-.67.21-1.19,1.26-.96,2.18.39-.13,1.41-.78,1.66-.27.51,1.04,1.5.86,2.08,1.54l1.32,1.56c.45.53.83.9,1.4.46.27-.21.99-.58.57-1.09-.55-.67-1.71-.82-1.73-1.94.65-.37,3.27,2.66,3.83.95.14-.42-.43-1.01-.54-1.35-.34-1.04.92-1.3,1.42-1.88.8-.93,1.51-2.05,2.88-1.17-.4.98-1.15,1.13-1.57,1.83.38.29.7.61,1.15.78.06-.89.1-1.44.46-1.63.52-.27,1.9-.23,1.35.56-.68.97-2.18,1.5-3.2,2.11-.96.57-1.17,1.76-1.97,2.45-.76.66-1.85.87-2.07,2.06,2.4.47,2.53-3.42,4.6-1.94.12.42-.22,1.02.15,1.02.42,0,.78.05.97-.31.5-.93,1.48-1.3,2.38-.66-2.83,1.18-1.68,2.65-3.74,3.06-.64.13-1.62.15-2.43-.47-.22-.17-.65.69-.32.91.72.48,1.46.73,2.33,1.23l3.87-2.69.9,1.44ZM473.2,266.1c-.07.34-.32.75-.68.76-.48.01-.72-.3-.65-.73.05-.28.19-.75.83-.85.58-.09.55.57.5.81M476.7,266.13c-.61.72-2.37-.55-2.75-1.18-.26-.43.6-1.81,1.12-1.88,1.01-.13,2.75,1.74,1.63,3.06"/>
    <path class="cls-1" d="M489.29,281.27c-.89-.4-1.23-.37-1.3-.77-.35-1.81,1.73.6,2.27.2.16-.12.4-.54,0-.67-.46-.14-.91-.09-1.05-.38-.32-.68,1.02-1.14.59-1.99-.34-.68-1.76,1.11-2.08,1-.44-.14-.66-.56-.7-.93-.08-.61.74-.35,1.02-.73l1.19-1.64c.04-.64-1.27-1.89-2.03-1.81l-5.41,4.28c.11,1.46,2.45-1.18,3.33.38.19.34.62.89-.02,1.48-.51-.61-1.84-1.21-2-.35-.19,1.07,1.25.81,1.91.84.28.7-.71.97-.28,1.67.82-.22,1.2-.78,1.82-.66.36.07.41,1.26.77,1.23.7-.05,1.73-.57,1.97-1.14M486.01,277.2c-.23-.11-.31-.35-.24-.59.08-.28.46-.11.75-.41.37-.48.63.09.36.56-.43.37-.63.56-.87.44"/>
    <path class="cls-1" d="M459.81,285.61l-1.44-1.29c.77-1.13,1.75-1.89,2.89-2.8l-1.42-1.3c.22-1.49,1.56-1.85,2.73-1.99.85-.1,3.88-2.48,3.71-2.93-.73-1.9-1.64,1.52-4.65-.77-.22-.17-.76.39-.75.67,0,.3.19.41.84.4.86-.01.98.99.09,1.02-1.16-.04-.59.95-.91,1.54-.36.65-1.83,1.52-2.58,1.32-1.76-.46-2.89-1.8-4.6-2.12.61-1.36,1.7-1.19,1.27-2.56l-3.79,2.73c-.31.22-.95.04-1.12.34-.69,1.29,2.05.91,3.67,3.24-5.75,1.95-2.75,5.48,2.28-1.38l3.52,2.04c-2.49.37-2.81,2.35-5.15,3.26-.67.26,0,1.04.43,1.18.79.24,1.16-1.26,2.53-.88.22.06.42.53.02.78-.48.3-1.11.37-1.16.67-.07.45.31.99.61.94,1.63-.26.64-1.13,2.98-2.13M453.14,278.74c-.13.21-.38.47-.76.24-.2-.13-.39-.51-.16-.85.14-.21.48-.22.78-.24.28-.02.33.55.14.85M453.46,280.04c-.22-.73.22-.95.46-.98.46-.05,1.14-.35,1.47.25-.53.6-1.58,1.2-1.93.73"/>
    <path class="cls-1" d="M429.07,269.83c.41.12.62.98,1.03.98.59,0,1.61,0,1.27-.76l-1.89-.56c.95-.62,1.41-1.46,2.29-2.19.52-.44,1.15.02,1.13.29-.04.57-1.24,1.04-1.29,1.41-.04.31.01.56.19.69.97.66,2.68-1.7,2.79-2.15.16-.63-.89-.9-1.43-.73-.24-.44-.12-.86-.39-.91-.36-.06-.94.03-1.37.23-.21-1.48-1.51-1.4-2.44-1.12-.71.21-1.57,1.32-.89,2.14.28.33,1.9.66.86,1.22-.48.26-1.66.01-1.55.68.05.3-.35,1.04-.06,1.4.56.44,1.23-.77,1.76-.61M429.38,266.14c.17-.25.54-.21.74-.13.22.09.35.48.21.83-.09.22-.48.34-.82.19-.24-.11-.36-.54-.13-.88"/>
    <path class="cls-1" d="M443.76,282.86c-.83.22-1.6,1.85-2.1,2.53.15.49,1.47.6,1.13,1.28-.18.36-.84.61-.94,1.26-.05.31,1.01.22,1.27.43.23.18-.03.9.38,1.12.59.31,1.32-.22,1.69-.36.32-.12.32-1.31-.05-1.4-.92-.22-1.54.4-2-.46,1.54-.65,2.46-1.5,3.68-2.66-1.06-.52-1.77-1.78-3.06-1.74M444.26,285.46c-.28-.11-.4-.52-.14-.85.16-.21.52-.17.75-.11.22.05.4.46.16.77-.14.18-.45.32-.76.2"/>
    <path class="cls-1" d="M471.74,289.32c1.35.05,1.37-.9.42-.9-4.26,2.12-2.49-.86-4.48.66.98.61.44,1.53.31,2.32.39.54,1.73,1.54,2.5,1.37.95-.21,1.52-1.2,2.57-1.54-.98-.66-1.83-.93-1.31-1.9M469.2,291.5c-.21-.55.42-.92.63-.81.26.13,1.1.09,1.07.73-.03.54-1.51.59-1.7.08"/>
  </g>
  <rect class="cls-2" width="792" height="612"/>
</svg>