<?xml version="1.0" encoding="UTF-8"?>
<svg id="Capa_1" data-name="Capa 1" xmlns="http://www.w3.org/2000/svg" viewBox="130 158 570 278">
  <defs>
    <style>
      .cls-1 {
        fill: #278d37;
      }
    </style>
  </defs>
  <path class="cls-1" d="M383.54,293.6c-13.8,0-26.75,7.79-26.75,24.78s11.17,25.53,28.44,25.53c7.04,0,14.27-1.69,19.9-3.47v-11.08c-5.16,1.6-12.67,3.29-19.52,3.29-5.44,0-13.33-1.5-14.27-8.73h36.32v-6.57c0-15.3-8.26-23.75-24.12-23.75M371.43,315.09c.75-7.23,5.26-10.42,12.2-10.42,6.01,0,9.38,3.94,9.48,10.42h-21.68Z"/>
  <path class="cls-1" d="M444.64,293.6c-4.88,0-9.67,1.41-13.42,3.19v-18.87h-14.17v64.86h10.42l1.03-3.38c4.13,2.35,9.86,4.51,16.71,4.51,13.05,0,25.44-9.11,25.44-25.53,0-17.27-12.3-24.78-26-24.78M442.58,332.27c-4.69,0-8.45-1.31-11.36-3.19v-20.84c3.19-1.78,7.13-3,11.73-3,7.6,0,12.95,4.32,12.95,13.14,0,9.48-6.1,13.89-13.33,13.89"/>
  <path class="cls-1" d="M548.64,282.33h-12.02l-1.6,12.3h-22.58c-4.32,13.52-8.45,24.22-13.52,34.73-4.22-10.8-11.83-30.69-12.95-34.73h-15.39c1.13,3.57,11.17,29.28,21.31,48.24-3.19,5.82-6.85,11.92-11.08,18.68h14.74c9.24-12.92,21.3-39.96,27.82-55.66h11.1v21.31c0,12.67,8.35,16.71,18.4,16.71,4.41,0,7.13-.47,10.79-1.78v-11.27c-2.53.85-6.01,1.32-7.79,1.32-5.82,0-7.23-2.91-7.23-7.51v-18.77h15.02v-11.26h-15.02v-12.3Z"/>
  <path class="cls-1" d="M583.6,323.91h36.33v-6.57c0-15.3-8.26-23.75-24.12-23.75-13.8,0-26.75,7.79-26.75,24.78s11.17,25.53,28.44,25.53c7.04,0,14.27-1.69,19.9-3.47v-11.08c-5.16,1.6-12.67,3.29-19.52,3.29-5.44,0-13.33-1.5-14.27-8.73M595.9,304.67c6.01,0,9.39,3.94,9.48,10.42h-21.68c.75-7.23,5.26-10.42,12.2-10.42"/>
  <polygon class="cls-1" points="656.66 319.03 675.34 294.63 658.45 294.63 647.65 310.68 637.33 294.63 619.68 294.63 638.36 319.03 619.77 342.78 636.86 342.78 647.46 327.86 659.1 342.78 676.28 342.78 656.66 319.03"/>
  <path class="cls-1" d="M313.56,259.65l-87.14-46.59v.03c34.6,18.75,53,53.15,53,101.28,0,41.7-13.83,73.62-41.1,94.86-3.72,2.9-7.7,5.55-11.89,7.99v.09s98-52.02,98-52.02c14.37-11.2,21.66-28.02,21.66-50,0-27.42-11.32-46.4-32.53-55.63"/>
  <path class="cls-1" d="M144.73,267.68h17.82c22.48,0,49.28,8.27,49.28,47.65,0,34.77-15.32,49.6-51.22,49.6h-15.87v-97.26Z"/>
  <path class="cls-1" d="M537.76,200.72c.66.19,1.1-.2,1.55.37-.73.91-1.65,1.5-1.28,2.8,1.01-1.14,1.78-2.23,2.97-2.23.39,0,.65.73,1,.8.89.19,1.17.57,1.69,1.41.31.49,1.68.79,2.23.73,1.36-.47,3.91-3.29,4.2-1.57-.89.76-2.13,1.16-3.24,1.75-.34.18-.18.92-.54,1.01-.22.06-.81-.05-1.05.39-.19.36.67.89.53,1.31-.14.44-.78.66-.95,1.04-.7,1.54-1.63,2.51-3.23,3.08.9.83,1.67-.21,2.39.9-1.09.63-2.1,1.41-3.27,1.53-.44.05-.46-.84-.11-.89.24-.04.87-.26,1.03-.74.11-.34-.96-.43-.99-.74-.04-.41.42-.94.78-1.21.58-.45,0-.91-.44-1.56-.58.38-.71,1.32-1.53,1.57-.44.13-.78-.23-.72-.4.24-.62,1.8-1.03.97-1.38-1.02-.43-1.59.87-2.59,1.93,1.16.32,1.41.97,1.41,1.73.46-.45.96-.46,1.38-.4.28.04.78.39.53.8-.44.71-1.43.78-1.61,1.59,4.68,1.25,4.12-.7,6.49-1.89,1.09-.55,1.64-1.95,3.02-2.02.17.36.38,1.08.73,1.13.88-.45,2.03-.74,2.63-1.4.48-.53-.18-.83-.41-.98-.68-.44-.73,1.52-2.22,1.05-.28-.09-.32-.91-.69-1.07-.39-.17-1.44.55-1.38-.38.03-.4.85-.48,1.25-.83-.27-.52-1.23-1.2-1-1.79.32-.74,2.74.55,2.46,1.62-.09.33-.61.4-1.06.86.68.31,1.43.31,2.29.43-.17-2.15,2.53-2.29,2.01-2.98-.81-1.08-2.13-1.12-3.07-2.19l1.73-1.3c.3-.23-.05-.88-.27-1.08-.16-.14-.31.26-.76.47-.69-.93-1.68-.55-2.94-.66.49-1.11,1.91-1.88,3.03-2.28.46.01.94,1.09,1.46.94.02-.03,3.68-1.61,2.55-2.25-.75-.43-1.47.56-2.19.53-1.08-.04-.91-1.71-1.21-2.5,1.1-.53,1.53.63,2,.67,1.65.12,2.33-1.9,3.23-2.9.16-.18.63-.14.77-.24.14-.1.4-.26.06-.42l-.59-.28c-.29-.14-.42-.38-.39-.52.03-.16.52-.37.79-.15.26.21.3,1.11.88,1.01.32-.06.92-.26,1.08-.67.12-.32-.26-.63-.14-1.37.76.38,1.5.6,2.47,1.23-2.41,1.91-4.96,3.14-6.64,5.37.76.23.97-.27,1.28-.36.4-.12.57.17.51.55-.23,1.28-1.99,1.13-2.76,2.89,2.65.78,1.41-2.94,5.61-1.63l-2.54-2.15c.78-.97,1.64-1.45,2.78-2.15.22.67,1.17,1.7.95,1.87l-.88.68c-.14.11.26.81.45.99.84.78,2.32-.92,2.8-1.64-.48-.21-.88-.12-1.14-.35-.17-.15-.03-.7.16-.83,2.54-1.88-.15-.89,2.23-2.25-.2-.57-.88-.93-.72-1.4-.04.13,1.92-2.11,2.57-1.02-.32.41-.76.46-1.11,1.13,2.32,1.99,3.64,1.13,3.26,2.77.51-.31,1.18-.55,1.56-.15.27.28.79,1.17.33,1.36-.52.22-1.07-.26-1.57.38l3.92,2.65c.49.33,1.18.59,1.47.11-2.25-.39,3.25-3.86,3.52-3.31.86,1.57-2.75,1.93-1.24,2.86,1.24-1.34,2.32-2.26,4.04-2.69-.28-.81-.81-.78-1.21-.5-.21.15-.69.6-.99.5-.25-.29-.07-1.21-.3-1.67-.11-.23-.38-.15-.91-.22-.31-.44-.06-.82.29-1.06.22-.16.73-.04.98-.76-1.03-.23-2.01.77-2.72,1.53.39.36.71.44.95.81-1.02,1.54-6.86,6.36-2.94.86-.81-.31-1.49.3-1.85,1.14-.35.24-.56.11-.62-.08-.05-.16-.22-.56-.1-.61.2-.07.49-.17.74-.2,1.8-.19-1.32-.71-1.21-1.95.02-.25.73-.36.82-.64l-1.53-1.53c.86-.76,1.8-.26,2.4.51.48-.3.94-.42,1.28-1.1-.45-.29-.74.1-.8-.12-.14-.56.04-.92.42-.91,1.28.04-.71.34,1.78,1.1.3.09.04.67.18.99.59.08,1.42-.04,1.78-.87-3.18-.51-.63-1.81-3.07-1.38-.57-.68-1.4-1.02-2.39-1.56l3.42-2.32c-2.31-.98-4.11,2.78-4.62,1.23-.26-.8,1.03-.92,1.45-1.63-1.18-.1-1.94-.49-2.9-.89-3.7,1.39-1.62,2.42-4.6,1.85l.33,1.12c.1.35-.65.52-.95,1-.33.53.83.68,1.19.99.3.26-.51,1.21-1.01.82-1-.79-2.3-2.14-3.57-1.95-1.27,1.1-3.57,2.84-4.99,3.87-.57.41.68,1.17.75,1.66-.88.41-1.53.84-2.22,1.67-1.36-.66.86-1.31.86-2.17,0-.02-1.88-1.33-2.63-1.13-.35.1-.99.84-1.43.91-.99-.61-1.93-1.38-3.26-.98.21.52.49,1.01.26,1.41-.22.38-.83.24-1,.77,1.06.45,1.02-1,2.1-.39-3.1,4.99-3.3,1.94-5.3,4.69-.74,1.03-1.65.63-2.56.31-1.33-.47-2.13,1.03-2.84,1.83M546.4,210.7c-.29-.09-.81-.25-.97-.38-.26-.21.19-.64.48-.61.21.02.41-.64.58-.2.12.3.18,1.28-.09,1.19M550.6,205.88c.17-.22.5-.2.68-.1.19.1.34.41.2.76-.09.22-.48.28-.75.15-.25-.13-.38-.47-.13-.8M567.71,192.21c-.29.22-.99.15-.77-.69.13-.5.79-.25.94-.07.21.24.12.54-.17.76M569.26,190.8c-.32.23-.57.34-.78.26-.29-.1-.47-.58-.11-.83.21-.14.43-.12.68-.02.24.09.5.36.2.58M569.92,189.05c.11-.19.41-.18.71-.23.2-.04.4.4.1.71-.14.14-.27.51-.57.28-.16-.13-.4-.48-.24-.76M569.55,187.77c-.05-.08-.11-.15-.2-.22.16.13.22.2.2.22.16.26.14.57-.03.78-.89,1.16-1.84-1.04-3.8-1.12-.81-1.64,3.66.52,3.83.34M560.96,189.24c.45.18.65.58.09.95-.38.26-.6.43-.83.41-.13-.01-.2-.05-.4-.32-.15-.2.79-1.18,1.15-1.04M545.12,198.35c.07-.26.43-.1.7-.38.35-.45.58.08.34.52-.4.35-.58.52-.81.41-.21-.1-.29-.32-.23-.55M542.76,200.15c.41-.06.66-.73,1.32-.91.62-.17.77.87,1.12,1.29.82-.77,1.61-1.24,2.68-1.72l-1.07-1.92,2.35-1.57c1.08-.72,1.92-2.06,3.32-1.52-.32.92-1.18.73-1.29,1.73-.12-.16-.3-.23-.57-.13-.38.13-.8,0-.74.5.05.38.45.86.35,1.21-.22.79-1.22,0-1.94.18.23.76,1.03.3,1.69,1.03-1.29,1.27-4.74,4.65-6.35,3.91.07.03-3.49-1.92-3.5-2.15-.02-.36.2-.52.4-.55,1.2-.22,1,.84,2.24.64"/>
  <path class="cls-1" d="M512.92,233.25c-1.73,1.23.76,2.69,1.57.89.83-.63.65-.73-.31-.86-.24-.83-.92-.83-1.25-.03Z"/>
  <path class="cls-1" d="M566.41,254.39c-.15-.04-.56-.22-.76-.03-1.91,1.86-4.07,3.21-6.53,4.29-.11-.96.87-.79,1.15-1.3.71-1.3,1.85-1.92,3.18-2.36-2.09-2.28-.78.48-2.86.28-.53-.05-.51-.62-.88-1.2-.19-.31-1.17-.07-1.26.24-.12.4,0,.9-.29,1.02-1.63.66-1.22-1.33-3.17.03.51.14,1.19.02,1.51.31.38.33-.19.99-.45,1.01l-.96.06c-.34.02-.08.83.18,1,1.51.98,2.53-2.17,4.23-1.73,1.11,1.49-3.47,1.74-3.92,4.12.05.55,1.07,1.16.24,1.65-.56.33-.87,1.01-1.44.95-.69-.07-1.04-.95-1.62-1.41-.81.68-1.86,1.46-2.61,2.31,1.5,1.17,2.47,0,3.61-1.01.7,1.26-.71,1.6-1.4,2.49,1.73.15,2.52-1.94,4.34-2.09.55-.05,1.07.94,1.65.71.56-.22.96-.73,2.02-.96.6,1.11-3.92,2.87-3.7,2.9-.38-.06-.63-.3-.98-.64-.36-.34-.86-.08-1.09.19-.72.88,1.17,1.11,1.12,1.8-.05.67-1.85,1.45-.68,1.7,1.21.25.43-1.81,3.13-.87-.12-.38-1.04-1.18-.67-1.53,1.41-1.33,3.03-1.88,4.85-3.08-.91-.48-1.54-1.89-2.77-2.13-.59.29-1.5,1.73-2.05.99-.48-.66.85-1.25,1.28-1.62l-1.75.17c-.25-.65.37-.97.68-1.46.26-.4.77-.28,1.25.07.67,3.14,1.39-.64,3.42-1.7.43-.23,1.1.06,1.13.41.1.99-2,1.12-.83,2.16.29-.68,2.09-1.38,2.34-.63.43,1.31-2.09,1.26-2.55,2-.09.14.03.47.2.49,1.56.2,2.21-1.46,3.78-3.24-.43-.26-.89-.24-1.02-.51-.32-.67,1.45-.74,1.18-1.56-.07-.23-.26-.26-.41-.34-.75-.4-.35.75-1.73,1.09-.29.07-1.18-.23-.91-.65-.33-.52,4.06-2.02,2.82-2.39"/>
  <path class="cls-1" d="M541.93,217.63c.68-.43,1.02-1.69,2.17-.57-.51.66-1.33.61-1.73,1.63,1.15.1,1.9.59,2.76,1.29.56-.39.58-1.28,1.19-1.31.86.21-.02,1.07.03,1.94,1.27-.1,1.68-1.13,2.65-1.52l-1.98-.7c.19-.89.78-1.03,1.41-1.56-1.87.03-3.37,1.68-3.77,1.49-1.11-.54,3.27-2.32,4.23-4.01-.94-.51-1.95-.82-2.8-1.05-.43.15-1.32.64-1.58.92.2.48,1,.33,1.06.6.09.36.08.65-.04.86-.18.31-.88.4-1.19.24-.97-.5-1.78.09-2.71.14-1.13.06-2.05-.62-3.04.26-.52.47-1.52,1.13-1.18,2.17.29-.53,1.21-.93,1.2-.34-.01,2.05-4.32,2.87-4.56,4.64l2.18-.78c.28,1.93-1.59,1.14-1.99,2.83-.47,1.97,1.59-.78,2.39-1.02.26-.08,1.05.14.87.67-.26.78-1.75.73-1.22,2.02.83-.98,1.77-1.4,3.01-2.15-.34-.81-1.21-.56-1.32-1.28.41-.51.64-.83.59-1.07-.05-.25-.42-.44-.74-.54-.55-.16-.66-.53-.56-.95-.14.6,3.97-2.41,4.66-2.86"/>
  <path class="cls-1" d="M523.96,268.67c.24-.42.34-.85.94-.8.26.02.6.18.47.69-.05.19-.47.33-.32.94.58-.09.74-.7,1.09-.65,1.1.19,1.58,1.69,2.4.81l1.04-1.12c-.89,0-1.5.38-2.5.18l.93-1.45c.32-.5-.89-.49-1.4-.21l.06-1.74c-1.09.05-1.67.89-2.73,1.33-.24-.79.32-1.18-.26-1.38-.44-.15-.63-.09-1.05.41-.25.29-.58.59-.38.91.14.22.53.19.72.41,1.33,1.53-2.84-.29-3.33-.35,2.47-1.4,3.76-3.76,5.77-3.27-.35-.82-1.19-1.65-1.88-1.33-.27.42-.15.99-.39,1.09-.33.14-.93.43-1.2-.02-.28-.48-.46-.98-.78-1.01-1.65-.17-.63.51-2.49,2.28,1.16.09,1.46-1.17,2.49-.54-1.35,2.17-3.52,2.39-3.1,3.56.26.72.85,1.33,1.05,2,.67-.33,1.03-1.09,1.93-1.31,1.68.9-2.88,3.01-3.54,4.54,1.95-.02,2.93-1.5,4.11-2.58.7-.64,1.85-.57,2.32-1.38"/>
  <path class="cls-1" d="M588.53,200.82c-.66-.61-1.41-.04-2.03.52-.57-.08-1.2-.67-1.81-.63-.82,1.09-2.17,1.27-3.04,2.03-.67.59-.79,1.41-1.85,1.52-.74.08-1.09-.55-1.6-1.02-1.21.29-2.13,1.67-3,2.66-.81-1.47.61-1.99,1.39-2.72.09-.08,2.66-3.1,3.77-2.08-.02.5-.57.8-.09,1.56l2.87-2.48c-.15-.37-.69-.58-.83-.24-.08.17-.36.54-.67.6-.8.16-.88-.6-.57-1.04.15-.21.72-.25.81-.84-2.3.21-3.61,3.5-5.14,3.48l-1.51-.03c-.2,0-.23,1.02-.49,1.14-1.11.51-2,.87-2.75,1.85-1.13,1.49-2.5-2.16-2.78.62-.21,2.05-4.04-2.23-4.59-1.75-.03.91.69,1.08.78,1.51.13.58-.46.81-.93,1.09-.29.54.16.67.81.59.13-.63.25-1.44,1.07-1.35.54.06,1.37.17.77.95-.21.28-1.23.28-1.19.61.04.38.17.9.14,1.13,1.18-.89,2.13-1.6,3.33-2.23.76-.41.96,1.1,1.22,1.55.84,1.46,1.51-3.62,2.71-2.13.61.75.67,1.62,2.01,1.42.33.94-2.82,1.12-1.32,1.87.78.39,2.44-2.29,3.66-.42-.54.62-1.43.76-1.56,1.36-.08.34.72.71.99.61.24-.09.24-.66.39-.93.49-.91,1.65-.97,1.85-2.06-2.57.42-.98.05-3.57-1.46,1.01-.86,1.99-1.17,2.87-2.12,1.85,1.18-2.22,1.58-.55,2.52.05.03,3.47-1.45,4.12-3.22,3.15-.29,1.74-1.43,2.65-1.35.22.02.51.07.48.48-.04.45-.98.48-1.23,1.21-.16.46.12.6.47.58.2,0,.44-.01.91.19.1.54-.8.42-.97.86-.97,2.47-4.27,1.03-2.78,3.64.86-1.93,3.84-1.66,5.17-4.46-.13-.43-.61-.96-.42-1.31l2.01-2.28Z"/>
  <path class="cls-1" d="M537.61,206.31c.84-.41,1.28-1.3,2.39-1.28-.15-.59-.05-1.04-.35-1.73-.58.83-1.17,1.59-2.18,1.83l-.68-1.63c-.81.3-1.42.66-2.02,1.27l1.12,1.16c-.47.54-.61,1.6-1.25,1.93-.56.29-1.64-.02-2.01.53-.29.43-1.18,1.21-.76,1.75.6.41,1.83.43,2.27.08-.13-.42-.39-.92-.32-1.15.52-1.73,1.05,1.1,1.97.97.3-.04,1.06-.21.73-.79-.44-.81-.48-1.31-.42-1.74.1-.72.95-.94,1.51-1.21"/>
  <path class="cls-1" d="M533.41,270.21c-.69-.32-1.93.53-2.6.76-.03.41.1.93-.39,1.16-.36.18-.48-.09-.76-.46-.21-.28.03-.6.45-.95.42-.36-.1-.41-.5-.25-.7.82-1.66.83-2.52.16.03,1.13.79,1.95,2.19,2.02-.19.9-1,1.11-.66,1.88,1.41-.51,1.79-1.8,3.02-2.32,1.83-.77,3.6-.73,4.55,1.28.56-.29,1.35-.8,1.17-1.46l-3.95-1.83Z"/>
  <path class="cls-1" d="M547.94,253.25c1.15.9,2.02,1.9,2.75,2.91-1.28,1.21-3.03,1.5-3.21,3.45,1.53-.96,2.63-2.18,4.07-2.89.58-.28,1.31.44,1.47-.45.08-.45.6-1.51-.18-1.53-1.48-.04-3.18-1.8-3.15-1.93.07-.34.2-.54.39-.94-.98.27-1.58.82-2.12,1.37"/>
  <path class="cls-1" d="M501,272.63c-.68.51-1.56.99-1.98,1.97,1.59-.73,2.79-1.97,4.6-2.53.43-.13.48.7.29.89.05-.05-2.93,1.41-1.52,1.69,1.08.21,2.27-.91,2.98-1.55l-.97-.99c0-1.23,1.42-1.46,1.25-3l-4.66,3.53Z"/>
  <path class="cls-1" d="M567.9,204.79c.63-.47.65-.87.34-1.02-.42-.2-.58-.39-1.13-.59.17-.64,1.08-.79.89-1.45-.68-.24-1.23-.24-1.3-.49-.06-.22-.09-.84.16-.95l3.32-1.33c.12,1.21-.97,1.38-1.49,2.09.91.61,2.53-.36,2.43-1.42-.07-.67-1.34-1-1.89-1.05-.55-.05-6.76,3.51-6.77,5.26,1.16,0,1.38-1.1,2.29-1.47l3.15,2.43Z"/>
  <path class="cls-1" d="M550.24,260.8c.09-.35-.02-1.18-.34-1.11-.43.1-1.08.17-1.36.4l-2.66,2.08c-.7.55-.73.98-1.59,1.26-.82.27-1.39,1.37-2.14,1.75.84.69,1.51.02,1.98-.62,1.6-2.23,1.23.34,4.61-2.8.48-.45.66-.99,1.5-.96"/>
  <path class="cls-1" d="M552.09,221.2c0-.29-.24-.47-.58-.37-2.32.67-1.25,2.1-3.84,2.59-.03-1.32,1.16-1.15,1.27-2.12-1.07-.27-1.35.83-2.12,1.55,1.01.12,1.14,2.65,2.1,1.6-.08.09.73-1.81,1.78-1.24.39.21.4.82.71,1.39.56-.33.83-.8,1.24-1.33-.55-.44-1.11-.36-1.25-.92.48-.36.71-.67.71-1.15"/>
  <path class="cls-1" d="M559.48,200.82c-1.16-.23-2.25,1.16-2.44,1.97.79.26,1.42.94,1.93,1.35,1.58-.91,3.45-1.93,4.39-3.43l-3.72,1.88c-.12-.45.47-1.65-.16-1.77"/>
  <path class="cls-1" d="M545.1,229.41c1.26.03,2.05-1.76,2.58-2.75-.78-.25-1.28.27-1.62-.01-.19-.16-.45-.85-.86-.77-1.16.22-1.56,1.39-2.27,2.09,1.02-.24,1.45,1.4,2.17,1.44"/>
  <path class="cls-1" d="M525.84,275.31c-.64-.03.06-.89-.09-1.62-1.14.65-2.22,1.07-2.95,1.88-.26.29.24.72.41.64.24-.12.62-.14,1.03-.29.11.54.06,1.02.37,1.15.88.36,1.75-.78,3.39-1.88-.71-.8-1.29.17-2.15.13"/>
  <path class="cls-1" d="M504.74,276.16c-.64-.03.06-.89-.09-1.62-1.14.65-2.22,1.07-2.95,1.88-.26.29.24.72.41.64.24-.12.62-.14,1.03-.29.11.54.06,1.02.37,1.15.88.36,1.75-.78,3.39-1.88-.71-.8-1.29.17-2.15.13"/>
  <path class="cls-1" d="M544.76,268.11c-.49-.02-.23,1.48-1.68,1.35-.35-.03-.71-.84-.36-1.11.49-.38,1.23-.35,1.34-.93.12-.61-.57-.57-1.13-.6.05,0-2.03,2.14-1.86,2.19.61.16,1.3.41,1.22.87-.09.53-.89.57-.89,1.47.16.69,5.11-3.16,3.37-3.25"/>
  <path class="cls-1" d="M529.93,222.66c-.43.47-1.16.26-1.03,1,.46,2.77,1.15-.76,4.84-1.66.24-.06.22-.72.14-.91-.1-.21-2.06-.48-3.95,1.56"/>
  <path class="cls-1" d="M540.42,222.57c.53.52,2.36-.3,2.01-1.13-.26-.29-1.69-.41-.99-1.03.36-.33.78-.17.96-.23.14-.05.42-.81.07-.89-1.19-.24-2.42.82-3.25,1.61.06,1.29,1.2-.1,1.62.88.07.16-.67.55-.42.8"/>
  <path class="cls-1" d="M567.98,252.66c-.53-.27-1.34.54-1.46.99.6.17,1.5.47,1.34,1.02l-.5,1.7c1.09-.08,2.15-1.12,2.6-2.22-.87-.35-1.27-1.13-1.98-1.49"/>
  <path class="cls-1" d="M590.49,208.72s.08.09.09.17c-.04-.22-.06-.26-.09-.17"/>
  <path class="cls-1" d="M587.93,210.51c.57.14,1.35.07,1.42.64.1.8-2,1.8-1.06,2.05,1.86.49,2.05-3.99,2.2-4.49-.49-.46-2.72,1.52-2.56,1.79"/>
  <path class="cls-1" d="M504.51,268.39c.31-.59-.61-.71-.9-.64-.11.03-3.84,1.47-2.41,2.99,1.13-.51,2.7-1.43,3.31-2.36"/>
  <path class="cls-1" d="M500.9,288.01c.04-.66-.86-.39-1.08-.21-.09.07-2.88,2.94-.95,3.73.82-.93,1.86-2.42,2.03-3.52"/>
  <path class="cls-1" d="M501.29,292.62c.31-.59-.61-.71-.9-.64-.11.03-3.84,1.47-2.41,2.99,1.13-.51,2.7-1.43,3.31-2.36"/>
  <path class="cls-1" d="M589.07,202.34c1.9-.12,2.53-1.81,4.02-2.23.53-.15.58-.24.66-.48.8-2.55-5.05,2.45-4.68,2.71"/>
  <path class="cls-1" d="M544.43,254.45c-.94-.88-1.19.26-1.76.69-.8.6-1.55,1.01-1.34,1.91.21.92.22,1.97,1.75,1.52-1.04-1.6-.11-3.12,1.35-4.12"/>
  <path class="cls-1" d="M581.84,212.21c-.87.15-2.27,1.39-2.38,2.3.41,1.32,3.31-1.62,3.19-1.78-.11-.16-.27-.61-.81-.52"/>
  <path class="cls-1" d="M535.43,268.53c-.32-.26-1.09.4-1.36.71.84.92,2.11,2.22,3.44.86-.76-.56-1.47-.91-2.08-1.57"/>
  <path class="cls-1" d="M598.17,178.87c-.48.14-.99.11-1.33.43-.16.15.12.61-.35.78-.52.18-1.73.55-1.34,1.28.39.73,4.26-1.71,3.02-2.49"/>
  <path class="cls-1" d="M591.49,202.61c-.59.5-6.78,4.33-3.65,3.23,2.53-.89,1-1.75,4.88-2.17-.35-.49-.77-.67-1.24-1.06"/>
  <path class="cls-1" d="M591.45,202.58s.03.02.04.03c.07-.06.06-.07-.04-.03"/>
  <path class="cls-1" d="M587.93,207.27c-.44.07-.14.82.12.92.46.17,4.61-3.12,4.16-3.39-1.81.68-2.52,2.19-4.29,2.47"/>
  <path class="cls-1" d="M577.27,199.54c2.35-.23,3.01-1.85,4.14-3.18-1.72.69-3.29,1.75-4.14,3.18"/>
  <path class="cls-1" d="M587.21,180.48c-.18-.8-.86-1.14-.81-.09-.5.18-3.27,2.66-3.24,2.06-.01.27,0,.51.12.63.55.57,3.29-1.93,3.92-2.59"/>
  <path class="cls-1" d="M591.07,195.88c2.44-.46,2.73,1.35,3.56.47.15-.15.31-.66-.21-.57-3.15.61.9-1.57.58-2.35-1.57-.28-2.6,1.41-3.94,2.44"/>
  <path class="cls-1" d="M581.7,194.96c-.13.79,2.55,2.31,2.76,2.17.19-.12.52-.3.43-.62-.04-.14-2.14-2.14-3.19-1.56"/>
  <path class="cls-1" d="M556.29,203.36c-.05-.19-1.82-1.47-2.6-1.04-.34.18-.72,1.04-.4,1.27.28.21.74-.26.93-.24.8.08.46,1.35,1.85.94.35-.1.29-.63.21-.94"/>
  <path class="cls-1" d="M506.63,268.65c1.35,1.13,3.03-1.83,3.08-1.63-.44-1.66-2.93,1.4-3.08,1.63"/>
  <path class="cls-1" d="M573.07,212.99c1.35-.64,1.87-1.66,2.41-2.72-1.14.37-1.84,1.04-2.81,1.43-.38.15-.27,1.6.4,1.29"/>
  <path class="cls-1" d="M532.91,204.72c-.34-.89-2.88.7-2.77,1.83.05.53,1.27.39,1.52.01.31-.49,1.25-1.85,1.25-1.84"/>
  <path class="cls-1" d="M583.14,214.14c1.47.42,2.62-.91,3.3-2.22-1.37.23-2.69.69-3.3,2.22"/>
  <path class="cls-1" d="M520.11,245.78c1.22-.29,2.77-.4,2.76-1.88-.75,0-1.41.47-2.27.54-.58.04-.75,1.13-.48,1.33"/>
  <path class="cls-1" d="M589.44,181.32l1.82-1.38c.61-.46,1.16-.6,1.59-.27.24.18.33.37.4.93.64-.24,1.06-.46,1.49-.9-2.74-.75-.34-1.04-2.68-1.18-.32-.02-.3.66-.57.79-1.39.73-2.6,1.4-3.81,2.55.71.33,1.2-.13,1.75-.55"/>
  <path class="cls-1" d="M545.68,267.06s.01-.05.03-.07c-.03.04-.04.06-.03.07"/>
  <path class="cls-1" d="M546,267.83c1.02-.2,2.13-1.03,2.79-1.83-.06-1.2-3.02,1.18-3.11,1.06-.07.24.06.83.32.77"/>
  <path class="cls-1" d="M498.33,277.97c1.02-.2,2.13-1.03,2.79-1.83-.06-1.2-3.02,1.18-3.11,1.06-.07.24.06.83.32.77"/>
  <path class="cls-1" d="M564.3,250.44c-.45-.66-2.24,1.92-2.39,2.61.19.31,3.16-1.46,2.39-2.61"/>
  <path class="cls-1" d="M543.37,275.19c2.3-2.35,2.55-.35,2.54-2.49-1.21-.1-2.97.98-2.54,2.49"/>
  <path class="cls-1" d="M561.24,200.46c.78-.83,1.64-.93,2-1.74-.52-.82-3.01.74-2.83,1.35.07.24.4.84.83.38"/>
  <path class="cls-1" d="M582.94,190.27c-.26-.13-.68.05-.94.36l-1.66,1.88c.86-.35,1.68-.6,2.55-1.2.39-.27.26-.93.05-1.03"/>
  <path class="cls-1" d="M539.77,269.41c-.7.42-1.18,1.59-1.13,2.32-.04.59,2.25-1.8,1.81-2.13-.1-.08-.36-.38-.68-.19"/>
  <path class="cls-1" d="M563.8,197.78c1.03,0,1.9-.46,2.41-1.16,1.16-1.6-2.42.11-2.41,1.16"/>
  <path class="cls-1" d="M507.75,226.13c.3-.21.57-.27.38-.39-1.02-.69,0-.39-2.44,1.66,1.02.5,1.79-.23,2.06-1.27"/>
  <path class="cls-1" d="M580.82,183.35c.21-.07,1.21-1.47,1-2.02-.44-1.14-1.05.94-2.06,1.35.25.54.66.81,1.06.67"/>
  <path class="cls-1" d="M501.34,254.03c.47-.2.52-.67.39-1.01-.07-.18-.29-.36-.59-.31-.18.03-.37.12-.68.34-.36.26-.4.79-.23,1.05.19.29.73.1,1.11-.06"/>
  <path class="cls-1" d="M525.33,254.24l1.7-.56c.56-.18.6-.46.32-.97-.88.18-1.83.64-2.03,1.53"/>
  <path class="cls-1" d="M540.96,225.02c.88-.11,1.32-.83,1.75-1.25-.28-.53-1.44-.54-1.67-.04-.14.31-.43,1.17-.07,1.29"/>
  <path class="cls-1" d="M598.28,177.8c.06-1.18-1.28-.56-1.62-.21-.24.25-.73.71-.31,1.23.43-.58,1.91-.45,1.94-1.02"/>
  <path class="cls-1" d="M562.27,187.68c.39-.03,1.05-1.06.69-1.21-.58-.24-1.62,0-1.9.49-.36.64.79.76,1.2.73"/>
  <path class="cls-1" d="M576.37,214.1c-.04.17-.16.4.13.65.88,0,1.13.68,1.98,1-.2-1.01-.77-1.56-1.4-2.15-.27-.25-.68.32-.72.49"/>
  <path class="cls-1" d="M554.13,210.17c.66.32,1.78-1.26,1.75-1.77-.79.45-1.25.9-2.02,1.05-.08.36.03.6.26.72"/>
  <path class="cls-1" d="M586.56,185.19c.58.73,2.55-1.07,1.99-1.4-.46-.28-1.41.74-1.99,1.4"/>
  <path class="cls-1" d="M522.07,258.73c-.64.34-.6,1.08-.85,1.56.55.15.88-.17,1.08-.44.21-.29.06-1.28-.23-1.12"/>
  <path class="cls-1" d="M505.02,279c-.2.07-.3.34-.46.64-.3.54.15.83.71.51.52-.3.45-.76.35-.99-.1-.24-.43-.21-.6-.15"/>
  <path class="cls-1" d="M515.91,256.39c-.38-.04-.6.08-.87.37-.31.34-.37.62-.16.95.11.18.45.28.69.01.09-.1.24-.26.36-.55.21-.52.43-.74,0-.79"/>
  <path class="cls-1" d="M585.2,221.99c.11.63.78.42.88.13.09-.27.53-.37.45-.95-.47-.05-1.42.32-1.33.82"/>
  <path class="cls-1" d="M507.94,272.03c-.64.15-.76.73-.58.94.15.19.45.28.55.17.11-.12.25-.3.42-.58.31-.5-.18-.58-.39-.53"/>
  <path class="cls-1" d="M587.75,214.26c-.2.39,1.2,1.17,1.42.34.18-.71-1.18-.81-1.42-.34"/>
  <path class="cls-1" d="M544.7,193.64c.88.11,1.95.05,1.57-.6-.71-.31-1.15-.2-1.42.04-.15.14-.56.51-.15.56"/>
  <path class="cls-1" d="M529.5,246.09c-.15.02-.36.2-.11.53.11.16.36.11.5.24.25.22.61-.11.56-.5-.06-.45-.72-.29-.95-.26"/>
  <path class="cls-1" d="M551.65,191.03c.13.05.37-.26.81-.56.4-.45-.08-.75-.54-.37-.27.15-.43.27-.49.4-.09.19-.01.45.22.53"/>
  <path class="cls-1" d="M507.92,223.94c.15-.19.23-.4.16-.51-.1-.15-.24-.08-.34-.05-.16.04-.25.18-.35.38-.33.62.14.64.53.19"/>
  <path class="cls-1" d="M555.38,269.51c-.34.01-.67-.09-.82.12-.31.42.07.78.48.65.14-.04.11-.18.38-.39.2-.15.2-.39-.04-.38"/>
  <path class="cls-1" d="M513.85,255.26c4.33-.08,4.79-3.8,5.18-4.52.99-1.82,3.89-2.73,3.41-5.41-1.76,3.26-4.11.59-5.32,2.78.65.45,1.09-.27,1.66-.23.39.03.29.96.09,1.23-.04.06-2.34,1.24-2.95,1.6-.4-.66-.87-1.09-1.44-1.06-1.66.11-2.33,3.51-3.55,2.53-1.73-1.38,3.89-2.39,2.86-3.74-.19-.24-1.04.01-1.45-.17.02-.78.74-.63,1.34-.94.52-1.3,1.56-2.66,3.14-2.01-.69.82-1.67,1.12-1.4,2.04.22.25,1.13.03,1.3-.28.11-.2.1-.59.38-.91.46-.53,1.12,0,1.98-.04-.45-1.27.2-1.75,1.07-2.4-.75-.01-1.33.29-1.52-.11-.14-.29-.16-.89.16-1.06,4.48,1.25,4-2.28,5.69-1.69,1.46.51-1.21,1.12-1.07,1.76.05.24.35,1.08.58.87.81-.74,1.56-1.63,1.8-2.57.02-.45-.65-.97-.28-1.31.17-.16.58-.51.83-.22.22.26.26.6.43.77.07.07.34.05.45-.32l-.68-.81c-.16-.19.17-.56.39-.69.16-.1.43-.05.76.01,1.13.23,1.59-.32,1.83-1.12.23-.74.21-1.44-.59-1.98-.13-.22.51-.6.78-.49.17.06.27.48.54.62,1.1.58,1.99-1.57,2.08-1.42-.88-1.37-.48.65-1.81.59-.18,0-.29-.42-.24-.76.21-1.31,1.95-1.08,2.51-1.95.33-.51-.61-.97-.98-.74-.88.53-1.51,1.05-2.05.89-.48-.14.97-2.14,1.98-2.1,1.76.06,1.14,1.69,3.03,1.4.3-.05-.09-.61.04-.93,1.08-1.71,4.7-2.5,4.57-4.09-1.27-.53-6.03,4.69-3.63.48-.64-.45-1.2,0-1.87-.07.39-.92-.41-.94-.81-.99-.48-.07-1.01.17-1.26.57-1.12,1.8-4.17,2.32-5.55,5.11.56.4,1.27.38,1.21.92-.04.31-.55.54-1,1.09.31.34.8.23,1.36.7-.91,1.17-1.79,2.16-3.28,2.99.51.72.72,1.22.37,1.82-.37.64-.95,1.09-1.67,1.22-.08-.59-.1-.98-.43-1.23-.19-.14-.71-.04-.94-.29l-1.57-1.68c1.13-.59,1.84.83,2.93-.03-1.28-1.09-3.09-2.01-4.4-2.33-.54.24-1.75,1.45-2.09.44.22-1.04,1.66-1.65,2.46-2.34-.31-.62-1.25-.15-1.6-.46-.53-.46.06-1.28.54-1.4,1.34-.36,1.93,1.23,2.76.35,1-1.06,2.32-1.24,3.45-1.93.33-.2-.06-1.17.9-1.21.37-.01.66.45.52,1.05-.07.29-.15.22-.32.78.83-.23,1.69-.99,1.65-1.66-.02-.35-.87-1.06-.16-1.22.96-.21,1.48,1.2,2.48.79-.41-1.38-1.77-1.01-2.28-2.22-1.37.58-2.18,1.83-3.86,2.31-.45-1.06,3.62-2.43,2.31-3.52-.27-.22-.8.19-1.43-.23-.44-.72,4.84-2.82,2.84-3.47-.42-.14-.87.24-1.48-.53,1.22-.26,1.73-.94,2.27-2.03.86.71.63,1.47,1.43,2,.93-.45,1.34-1.49,2.39-1.8.42.43.56.88.83,1.02.3.14.98.25,1.3-.09l1.23-1.31c-.24-.75-1-.95-1.45-1.53.05,1.36-.41,1.65-1.29,1.78-.54.08-1.73-.74-1.21-1.32.57-.65.96-1.1,1.32-1.87.22-.48,1.18,0,1.31.42.28.88.77.75,1.4.76.59,0,.47-.57.85-1.06.63-.8,1.69-1.11,1.89-2.23-.68-.09-1.02.43-1.48.29-.34-.1-.67-.92-1-.94-.89-.06-1.72.03-2.2-1.08-1.07.27-1.58.99-2.67,1.5-2.12-2.54-3.35-1.36-4.86-4.18,1.13-1.2,2.5-1.74,3.52-2.97.27-.33.34-.78.59-1.01.78-.72.38,1.61,3.19-2.45-.69.58-.97.64-1.12.49-1.08-1.02,2.04-3.01,2.27-2.74.26.39.75,1.26,1.05,1.11.37-.19,1.18-.72.87-1.02-.49-.47-1.04-.7-.9-1.28.09-.38,1.8-1.48,2.45-1.24.31.11.4.54.75,1.17.75-.53,2-1.12,2.55-1.92-.35-1.11-1.54-.94-2.29-.51-3.09,1.76-6.21,3.26-8.68,5.83.52.44,1.13.39,1.23.66.6,1.61-2,1.22-2.96,2.06-.46.4-1.08,1.65-1.8,1.07-.41-.33-.3-1.63-1.26-1.74-.49-.05-.4,1.2-.76,1.54-.46.43-1.18.5-.74,1.23.15.26.68.25,1.11.52.59.38-.09.98-.67.99-1.3.02-.59-1.32-2.1-1.4-.47-.03-.51.87-.88,1.03-1.3.57-2.3,1.06-2.33,2.72.37.34,1.1.21,1.34.93-.43.57-1.07.42-1.76.7.5.8,4.12,3.24,4.76,3.01,1.29-.46,2.13-2.85,3.49-2.39.61.21,1.55,1.86,2.28.91.21-.37-.11-1.22.5-1.09.3.07.56.15.59.44.06.6-2.02,1.94-2.17,1.96-.69.11-.71-.87-1.16-1.42-2.07,1.36-3.28,3.85-5.24,2.13-1.23.7-2.92,1.23-4.01,2.29-.31.31-.65,1.16-1.4.95-.39-.11-.41-.42-.83-.93-.19-.09-.66.09-.8-.01-.19-.14-.28-.56-.15-.66l.67-.54c.46-.38.83-1.06,1.45-.92.31.07.49.72,1,.93.6-1.06,2.35-1.02,2.98-1.67.61-.63-.33-1.4-1-.98-1.48.92-1.53,2.38-2.2.96-.18-.38,1.06-.23,1.03-1.43-.01-.43-3.19-1.97-2.78-.78.35.72.86,1.13.48,1.67-1.21,1.71-1.15-1.12-3.91,3.27.73.02,1.03-.2,1.26-.16,1.52.28-1.12,1.87-1.48,2.86-1.17-.73.37-1.51.17-2.21-.89-.81-2.42,1.55-1.98,1.88l.83.63c.12.09-.66.74-.43.93.83.68,1.8-1.91,3-1.64.46.11.65.68.88,1.32,2.07-.73,3.99-3.34,5.73-3.55.33-.04,2.56,1.36,1.88,1.59-1.12.39-1.56-1.18-3.04.54l1.15.29c-.43,1.19-1.7,1.64-2.75,2.16-.23.26.13,1.16.38,1.18l.79.05,3.69,1.77-.79-1.7c.9-.03,2.55.52,2.76,1.25-.4.91-1.75,1.32-1.32,2.29.24.53.81,1.28.14,1.62-1.05.53-1.57-.97-2.3-.9-.75.07-.7.85-1.81.78-.54-.04-.06-1.04.41-1.51-.31-.47-.84-.45-1.21-.2-.18.13-.25.52-.36.88-.16.55-.61.52-.98.37-.39-.15-.48-.64-.24-.92.13-.15.49-.35.63-.64.25-.52-.34-.58-.62-.42-.21.12-.63.4-.91.31-.15-.58.41-1.12.2-1.53-.2-.36-.77-.35-1.17-.6-.44-.27-.25-.76.07-.92.28-.14.79-.13,1-.85-1.19-.22-2.37.74-3.06,1.83l1.29.61c.32.15-.6.64-.93.79-.46.21-.6-.65-1.02-.81-.73-.27-1.18.72-1.66,1.08l-2.67,2.06,1.6,1.11c.21.15-.82.53-1.05.27-.19-.22-.26-.54-.49-1.12l-3.32,1.99c0,.58.2.83.46.82.37,0,1.31.37,1.24-.38-.05-.52.04-1.11.44-1.11.27,0,.58.11.79.27.38.28.11.74-.15.93-.18.13-.92-.06-1.05.46-.12.5.99.71,1.02,1.12.07.84-1.55,2.14-2.14,2.03-.74-.13-.97-1.36-1.58-.83-.1.09-.21.16-.19.31.04.22.27.42.48.57.52.38.14.8-.11.93-.16.09-.7.25-.71.45-.04.73.9.73,1.32.66,1.36-.25,2.25-3.73,3.99-2.27,1,.84-1.59,1.2-1.56,2.17,0,.26.81.48.96,1.07-.74.24-1.39.56-1.67,1.5l-1.76-1.08c-3.87,2.65-1.68,1.56-3.14,5.23-.31.77.91,1.76,1.21,2.46,0,.97-1.24,1.46-1.31,2.36-.08.94.29,1.88-.37,2.7.7.44,1.55-.12,1.92-.49.32-.33.96-1.09.44-1.55-.29-.25-.89-.06-.95-.34-.06-.29.02-.32.14-.37,1.35-.59.82-.31,3.49,1.01-.49.82-1.07,1.1-1.46,1.61.98,1.25,1.57-.82,2.4-.77.15,0,.58.33.45.45l-3.28,3.03c1.51-.08,2.07.59,2.6,1.23.93-.42,1.73-1.32,2.84-1.65.34-.42-.36-1.31-.77-1.65l.63-1.92c-1.79.47-5.08-1.98-5.07-2.5.01-.43.55-.56.86-.47.61.16.81.86,1.23.91,1.8.21-.9-1.49-.15-2.33.32-.36,1.01-.44,1.58-.24l-.29,1.34c1.45.22,2.31-.65,2.51-1.87-.81.2-1.51.73-2.3.04.52-.67,1.73-1.83,2.4-1.4.52.34,1.55,1.14,1.8,1.67,1.52,3.14-4.63,4.34-1.09,5.55l-.93,1.39c-.28.41.86.5,1.07.9-.22.53-1.35,1.32-.82,1.77.56.14,1.13.2,1.34.08.26-.14.26-.72.49-1,.27-.35.74-.06.78.27-.03-.22-.59,1.97-2.52,1.82-.4.19-.26,1.53-1.07,1.43-.48-.06-.93-.69-1.43-.89-1.22-.07-1.7,1.15-3.01,1.7-.17-.36-.12-.99-.07-1.34.06-.44.9-.44,1.16-.79.33-.45-.29-.8-.53-.77-.65.08-1.23.9-1.82.96-.31.04-.58-.33-.86-.65-.35-.41-.86-.28-1.16-.03-.16.13-.27.35-.29.71-.01.42,1.46.42,1.42,1.06-.01.17-.04.4-.19.46-.21.09-.45.05-.73-.03-.43-.13-.73.04-.63.4.06.2-.03.52.11.63.44.34,1.43-.41,1.86.41.69,1.31-1.54.5-1.35,1.93.11.84,3.22.97,2.15,2.4-.58.78-1.57,1.14-1.98,2.15.3.3,1.84.72,1.96.09.62-3.39,1.59-.2,2.75-3.63-1.29.23-1.44-.43-1.99-.85-.41-.32-1.14-.08-1.33-.78.75-.47,1.16-1.17,1.56-1.84.37-.63,1.3-.05,1.66-.24.32-.17.33-1,.88-.85.34.09.54.53.88.81.71.58,1.73-.25,2.37,1.08-1.39.36-2.74.89-3.64,1.93.02.64,1.1.56,1.48.75.36.19.04.8-.16.91-3.26,1.81.14-.07-3.22,2.41.76.22,1.37-.04,1.43.62.11,1.28-1.36,1.14-1.03,1.89.48,1.11,2.72-1.38,3.35-1.9-.06-.49-.86-.99-.67-1.42.14-.31,3.59-4.4,4.65-3.99,1.26.49-.88,1.16-.46,2.01.15.29.84.4,1.07.11.55-.7.68-1.46,1.32-1.99l-2.71-1.65c-.4,1.29-1.36,2.43-2.6,2.69-.36.08-.8-.4-.67-.59.44-.64,3.56-1.35,2.35-2.72-.33-.38-1.1-.3-.93-.89.36-1.28,1.4.24,1.8-.46.09-.15-.33-.77-.15-.87.13-.07,3.42-2.47,3.74-2.85.67.54.42.9.11,1.29-.29.36-.71.43-1.15.81M515.69,252.15c.24-.63.86-.34.94-.1.13.36.11.73-.09.95-.41.43-1.16-.01-.85-.85M529.51,230.11c.23-.99.97-1.01.96-.09-.55.62-1.25.67-.96.09M527.41,236.08c.07-.26.43-.1.7-.38.35-.45.58.08.34.52-.4.35-.58.52-.81.41-.21-.1-.29-.32-.23-.55M533.26,212.73c.1,1-.85,1.06-.86.05,0-.56.81-.61.86-.05M524.72,209.97c0,.26-.35.76-.75.42-.76-.64-1.77-.92-2.23-1.79-.09-.67,2.99.82,2.98,1.38M521.44,212.98c-.26-.03-.93-.17-.91-.67,0-.03,2.7-2.51,2.67-.98,0,.12-1.64,1.66-1.76,1.65M523.59,212.33c-.22-.53,1.72-2.12,2.65-1.26.32.3-2.15,2.51-2.65,1.26M528.29,212.43c-.19.31-.63.33-.83.18-.27-.22-.43-.69-.07-.98.24-.19.46-.19.61-.13.32.12.42.73.29.93M530.46,217.94c-.15.28-1.44.46-1.45-.08-.03-.77,1.13-.59,1.45.08M514.53,220.16c-.39.05-.67.09-.79-.15-.21-.41.14-.58.5-.61.2-.02.44-.67.56-.18.1.41.17.9-.27.95M524.98,221.97c-.1.23-.42.33-.79.18-.26-.1-.49-.56-.16-.87.21-.2.48-.22.82-.23.32-.02.26.61.13.92M523.76,216.69c.14-.2.59-.08.82-.12.15-.03.34.26.24.54-.12.32-.41.18-.56.24-.31.12-.85-.16-.5-.66M521.39,221.37c.1.03.18.07.22.13.54.87-2.16,2.57-2.86,1.84-1.45.87,1.18-.92,2.64-1.98-.15-.04-.34-.03-.48.05,1.96-1.17,1.51-.79.48-.05M522.53,220.41l2.05-1.91c.22-.2.49.09.59.19.11.12.23.55-.04.66-1.76.7-1.49,2.56-2.61,1.06M507.28,253.02c-.02.83-1.44.37-1.5-.13-.06-.54,1.53-.82,1.5.13M504.82,244.91c-.18.24-.52.62-.75.54-.29-.09-.81-.3-.75-.55.1-.44.59-.88,1.05-.75.33.1.6.56.45.75M506.9,243.62c-.78.26-1.46.43-2.03.08.8-.87,1.61-1.54,2.09-.92.15.2.35.71-.06.85M505.4,241.69c-.17-.04-.4-.21-.38-.58,0,.02,2.4-2.5,3.07-1.07-2.81,1.39-1.03,2-2.69,1.65M511.5,240.73c.3-.36.63-.28.79-.04.17.26.06.6-.49.62-.25,0-.84.06-.3-.58M513.22,243.63c-.12.32-.41.18-.56.24-.29.11-.86-.16-.5-.66.15-.2.56-.08.82-.12.15-.02.34.26.24.54M513.23,239.55c.18-.38.72-.26,1.56-.28.16.58-.33.97-.78,1.01-.31.03-.99-.28-.78-.73M513.68,237.13c.13-.2.62-.09.82-.12.16-.03.35.26.25.54-.12.32-.41.18-.58.24-.27.1-.8-.18-.48-.66M519.36,238.47c.12-.51,1.27-.4.9,0-.29.31.38.71.02.81-.43.12-1.04-.29-.91-.82M518.52,235.66c.2.04.38.05.52.21.49.54-.98,1.3-1.12,1.31-.26.04-.56-.14-.6-.51-.04-.37.98-1.05,1.2-1.01M517.14,238.94c1.48.44,2.42,1.6,3.86,2.13.24.09.93-.09,1.05.16.09.18-.28.71-.72.83-.84.23-1.3-.84-2.09-.91-1.2-.11-2.39-.65-2.09-2.2M517.96,229c-.21,1.01-.43,1.18-.37,1.94-.58.23-1.04-.16-1.33-.77.45-.69.92-1.21,1.7-1.16M516.88,241.71c1.12.1.35,1.13.2,1.58-.32.98-3.13,1.18-2.87,1.25-1.17-.29,1.81-1.8,2.67-2.82M515.35,238.27c.16-.19.47-.17.68-.09.21.08.3.45.16.73-.13.26-.46.36-.73.18-.25-.16-.38-.51-.11-.81M510.74,242.49c-.25,0-.83.06-.29-.58.3-.36.63-.28.79-.04.17.26.06.6-.5.62M510.61,237.41c-.25.3-1.06-.12-1.11.48-.03.3.07,1.04-.19,1.18-.7.36-.92-.28-.82-.75.05-.26.84-.33.82-.76l-.09-1.76c-.03-.65,1.5-.75,1.75-1.8.43-1.79-2.31,1.35-2.9.11.46-.63,1.05-.64,1.24-1.25-3.58-2.16,1.98-1.98,1.09-4.01-.37-.2-1.69-.12-1.37-.88.6-.53,1.62-1.14,2.4-1.11.12.7-.24,1.15.02,1.38.16.14.66.51.84.22.19-.31.56-1.55,1.1-1.08.66.57,1.71,1.21,2.42,1.63-.26,1.07-1.89,2.05-2.78,1.95-.44-.05-.16-1.3.32-1.31.35,0,.68.28,1.37.14-.48-.5-1.18-1.38-2.03-1.38-.33,1.06-3.59,2.93-.35,2.75.28.84-.84.96-.94,1.91.61.4,1.06.12,1.52.17-.06-.3-.06-.91.2-1.11.32-.26.75-.08.87.21.11.26.04.64.18.93.76.04,1.17-.15,1.92-.02-.12.77-1,1.21-1.6.88-1.01,1.81,1.74,1.06,1.23,2.16-.54,1.17-.95-1.47-2.01-.76l-.84.56c-.79.53-1.66.58-2.27,1.31M511.72,249.18c.1,1-.85,1.06-.86.05,0-.56.8-.61.86-.05"/>
  <path class="cls-1" d="M564.09,243.8s0-.03-.03-.07c.01.03.02.05.03.07"/>
  <path class="cls-1" d="M581.71,226.39c-.06-.04-.13-.07-.19-.09.03.05.09.08.19.09"/>
  <path class="cls-1" d="M581.9,227.39c.57-.14,1.45-.22,1.51-1.08l-1.53.09c-.06,0-.12,0-.17,0,.05.04.1.08.14.13.13.15.03.42.04.87"/>
  <path class="cls-1" d="M583.21,215.3c-.31.02-.56.22-.96.68-.57.66-1.15-.21-1.69-.36-.93-.26-1.13,1.3-1.67,1.63-1.65-.59-3.34-2.68-4.08-2.28-.29.15-.27.82-.02,1.33.11.24.5-.18,1.18.17l-3.09,2.68,1.86,1.33c-1.6.84-2.81,1.95-4.54,2.53-1.09-.88-2.42-1.87-3.81-1.72-.53.56.41,1.32.58,1.73.32.73-.38,1.11-.71,1.4-.38.34-1.3.01-1.75,0-.01.94-2.23,2.75-2.17,2.74-.27.04-.59-.48-1.07-.11.52,1.11,1.52,1.06,2.3,1.83-.43.72-1.13.78-1.58,1.26.86.79,1.42-.05,2.09-.35.68-.31.65-.81.38-1.97.52.15,1.83.23,2.05.83.36.98-1.28.77-1.55,1.19-.28.44-.15,1.19-.99,1.45-.77.24-1.48.7-1.84,1.42.5.29,1.29.38,1.39.81-.48,1.22-1.86,1.99-3.13,1.75.17-.88.95-.88,1.21-1.4-.8-.73-1.46.08-2.27.35-.64.22-1.63-.71-1.72-1.59,1.75,1.25,4.07-1.17,4.07-1.13,0-.4-.19-.62-.73-.6-3.37.09,1.89-2.12-.43-2.52-.94-.16-.72,1.59-1.63,1.11-1.78-.94.85-.65,2.6-2.95-2.14-.71-4,1.99-3.62,1.72-3.37,2.38.84.73-4.71,3.02.04.34.43.96.07.89-.51-.09-.49-.1-.6-.2-.14-.14.09-.58.11-.78.14-1.07,1-1.04,1.67-1.35,1.06-.49,1.7-1.9,3.12-2.24.39-.09-.04-.76-.35-.91-1.06-.51-2.36,2.55-3.68,2.06-.23-.08-.44-.78-.16-.83.91-.17,1.24-.81,1.83-1.23.89-.62.69-1,.79-1.86.13-1.09-.62-1.46-.96-2.19-.19-.81,1.45-1.97,2.35-1.6-.26.6-1.57,1.19-.82,1.64.63.38,1.02.51,1.25,1.22.31.38,1.36-.13,1.99-.27l.44,1.88c.86-1.05,1.76-1.49,2.82-2.04.3-.16.26-.84.64-.81.45.04.74.01,1.38,0-.41-.64-.93-1.12-1.91-1.54-.52,1.08-1.29,2.6-2.75,2.23,0-.97.95-1.24.66-2.13-1.08.12-1.33,1.42-2.65,1.19.92-1.93,2.81-2.69,4.46-3.8.43-.29.73-1.26,1.37-.61.43.44.72.71,1.1.74.52.05,1.02-.25,1.35-.82.87-.11.82.83-.06.8-.42,1.04-1.37,1.17-2.25,1.58-.22.67.67.93,1.1,1,1.47.24,2.57-3.46,3.54-2.14.37.5-1.21,1.75-.25,1.87,0,0,2.4-1.39,2.4-1.74-.6-.64-1.14-1.23-.71-1.84,1.24-1.75,2.12-1.18,2.08-2.29-.02-.57-.5-.71-1.08-.36-.31.18-.35.61-.31,1.24-1.63.53-.63-.63-4.06-1.05l1.86-1.64c.26-.23-.57-.91-.48-1.3.1-.42.84-.83.93-1.49-.87-.35-1.84.22-2.17.95-.31.7-.39,1.49-.44,2.27-.31.16-1.17-.23-1.11-.03.72,2.78,2.17.42,3.77,3.91-1.12-.07-1.83-.17-2.07-1.28-.69.23-1.8,2.03-2.57,1.31-.93-.87,2.03-1.77.88-2.21-.53-.2-1.11-.05-1.15-.61-.02-.27.28-.59.55-1.13-1.13-.11-1.85.78-2.7,1.56-3.39,3.07-1.55.19-3.72,2.75-.26.3-.92.08-1.01-.14-.06-.14-.1-.41-.03-.68.04-.15.24-.33.79-.06l5.3-4.35c-.56-1.15-1.48-1.77-2.82-2.48.78-.78,1.8-1.1,2.54-2.07-1.07-.29-1.14-.73-1.28-1.49-.1-.53-1.04-.36-1.41-.2-.29.12-.49.76-.8.92-.56-.39-3.14,1.67-3.4,2.27-.58,1.33-3.65,2.86-3.28,2.87-.52-.01-.62-.39-.57-.79.03-.21.25-.57.22-.98-.88.01-2.38.89-2.21,1.79.37.22.92-.07,1.08-.16.22-.12.69.17.57.65-.25,1.02-1.4.74-2.28.3,1.2,1.25-2.03,2.77-.3,2.82,1.43.04,1.33-1.67,2.04-1.04.86.76,1.57.79,2.86,1-.66.83-1.65.82-2.28.71-.33-.06-.45-.88-.83-.78-.14.04-2.87,1.38-2.27,2.09.49.36,1.61.53,2.09,1.19l2.01-1.24c.67.67,1.44,1.08,2.06,1.85-.76,1.16-2,1.62-2.51,2.75.02.27.73.65.64.92l-.35.97c-.19.52,1.05.6,1.26,1.06-.44.83-1.47,1.56-2.42,1.69-.18-.96.47-1.38,1.01-1.83-3.69-.16-2.93,2.44-5.48,3.8,1.04.02,4.14,1.05,4.21,1.63.04.28-.24.65-.27,1.02.88.89-3.22,4.02-3.88,3.89-.29-1.55,1.01-1.93,2.03-2.42.22-.11,0-1.2-.19-1.12-2.09.82-2.74,2.8-5.64,4.17-1.26-2.52,2.8-2.1,5.06-5.31.27-.38.67-.72.34-.99-.39-.32-1.29-.34-1.29-.06v.88c.02.28-.58.3-.78.28-.69-.07-.78-1.43-1.77-1.12-1.11.34-1.68,2.86-3.34,2.26-.46-.16-.66-.92-1.24-.75-.49.15-.8.53-1.26.94-.26.23-.87-.04-1.06.22-.14.19-.16.78-.03,1.05.1.21.47.19.86.51.15.88-.74,1-1.09,1.48-.26.36.14.77.4.76.22,0,.93-.08,1.05.09.58.81-1.88,2.4-2.62,2.09-.72-.3-.77-.83-1.13-1.66-.6.99-1.48,1.86-2.23,2.72.28.44.91.66,1.04,1.01.14.38-.6.87-.49,1.22.17.55.96.98.61,1.69-.16.32-.7.28-1.27.72,1,.4,1.91,1.28,2.89,1.39.76-.2,1.62-1.13,2.31-.2l-2.43,1.77c-.5.36.86.9,1.25.77,1.52-.53,1.28-2.34,2.17-2.33,1,0,1.88,1.34,1.55,1.81-.2.29-.66.29-.85.76.81.11,2.31.54,2.01,1.42-.39,1.17-1.46-.36-2.01-.43-1.19-.14-2.85,1.68-2.27,2.49.42.26,1.07-.28,1.21-.12.2.22.24.48.15.67-.71,1.38-1.18-1.08-3.48.37-.64.41-1.5.56-1.5,1.37.9.07,1.58-.27,2.21-.82.64-.55,1.18.58,1.58.58,1.49-.01,3.46-3.38,3.8-1.97.14.57-.64.86-.7,1.55-.02.29.39.74.77.47.76-.55,1.3-1.18,2.12-1.66l-1.11-1.7c.49-.72,1.44-1.17,2.01-1.56.31.05.56.84.27.99-.2.1-.67.5-.82.91.63.66,1.6.82,2.36,1.85.99-1.65,2.5-1.98,3.92-3.38-1.55-1.85-4.05,3.01-4.21,1.14-.04-.5.77-1.07.53-1.39-.09-.11-.74-.01-.76-.29-.18-2.34,4.2-3.62,4.31-3.57.28.12.36,1,.65.97.94-.1,1.44-1.36,2.53-1.05.04.81-.73,1.08-.96,1.8.91.61.85,1.43.67,2.51.89-.37,1.51-.89,2.15-1.49.46-.44-1.41-.5-1.3-1.3.05-.33.19-.53.54-.61.27-.06.75,0,.82.42.17,1.01,1.39.17,1.61.52.29.47.56,1.4.74,2,.21.75-1.23,1.55-1.9,1.61l.2-1.65c-.78.44-1.48.67-1.99,1.44.46.5,1.2.2,1.6.93-1.12.84-1.85-.13-2.97-.84-.63.82-1.33,1.53-1.9,2.65,1.51.69,1.99-1.73,2.91-1.28.42.2.66,1.2,1.32,1.17.99-.05.74-1.36,2.14-1.53.53-.06.7.6.97,1.22,1.08-.17,1.6-1.1,2.47-1.62-.45-.29-1.34-.98-.94-1.41.32-.35,2.73-2.79,3.19-2.49.78.51-.56.96-.1,1.71.98,1.58.88-1.01,2.42-.83.45.05,1.3.65.83,1.24-.19.23-1.22-.15-1.23.85,4.76,1.86,1.67-.64,5.83.89l2.19-2.34c-.69.38-1.2.39-1.8.12-.52.26-.74,1.44-1.82,1.39-.33-.24.01-.82-.04-1.25-1.22-.52-2.33-.79-3.68-1.68,1.14-1.13,6.22-4.43,2.44-.41,1.18.09,2-.43,3.11-1.01.26.88.26,1.68,1.16,2.28.1-1.37.64-1.88,1.91-2.04-.81-2.11-5.49-1.98-2.68-3.17.06-.02,2.84,1.23,3.12,2.23.71.15,1.14-1.41.77-2.1.56-.03,1.26-.14,1.04-.33l-.51-.43c-.71-.6-1.44-1.08-2.12-.49.33.68,1.13.85,1.15,1.52,0,.38-.75.55-.85.41l-.49-.76c-.29-.45-1.04-.5-.95-1.1.06-.4.61-.61.99-1.34-.99.11-1.74.89-2.78,1.33-.35.15.02.95-.23,1.08-1.14.57-1.53-.77-2.23-.87-1.03-.15-2.38.99-2.51,1.85-.06.42.77.45.92.15.12-.24.16-.86,1.05-.57-.67.77-1.54,1.87-2.59,2.62-.83.59-2.06-.85-2.41-1.34.34-.39.93-.72.73-1.22-.03.15-1.93-1.9-2.9-.81-.37.41-.72.66-1.12.54-.32-.1-.99-.16-.74-.68,1.79-.67,1.21-1.49,2.3-1.54.95-.04.07,1.34,1.58,1.21.54-.05.68-.54.49-.99.23.55-1.47-1.45-2.12-1.29-1.05.26-.66.99-2.18.93-.26-.01-.39-.55-.14-.81.85-.89,3.06-.92,2.51-3.44,1.84,1.11,3.06-.92,3.53-.54,1.45,1.16-2.33,1.28-.97,2.11,1.19.72,1.74-1.38,3.55-2.05.52-.19.84-.38.78-.86-.05-.42-.16-.71-.63-.72-1.37-.03-.77,1.82-2.19,1.6-.21-1.15-.91-1.56-2.21-1.69,1-.44,1.41-1.11,1.98-1.96.17-.26,1.29.14,1.01-.6-1-.55-1.62.5-2.77.42.41-1.3,1.69-1.51,2.56-2.5.63.7.45,1.29,1.3,1.76.42-.72.64-1.3,1.21-1.4,1.38-.22,2.81,2.05,3.19.97.15-.44.03-.9.23-1.03,1.05-.67.54.84,2.22.84.35,0,1.18-.65.61-1-.68-.42-1.6-.16-2.02-1.23-.13-.33-.87-.13-1.16-.01-.27.11-.31.64-.66.87-.36.25-.74.1-.78-.08-.25-1.01.81-1.32.53-1.79-.14-.24-.4-.39-.69-.76.92-.85,2.24-1.45,2.82-2.46-.42-.5-1.08-.49-1.49-.25-.32.19-.05.57-.08,1.18-.03.5-1.71-.5-1.31-.85l2.89-2.45c2.73-2.32.91-1.44,3.21-1.86-.29-.25-1.03-1.06-.5-1.24.66-.22,1.33.24,1.98.47-.34.71-.98.85-1.03,1.49l3.27,2.11c-.37.7-1.21.62-1.62.31-.28-.21-.4-.7-1.09-1.32-.36.99-1.04,1.31-1.88,1.72-.09.05-3.1,2.22-2.07,2.59.27.09.67.11.86.12.83.07.26-1.87,1.35-1.46.25.09.68.39.61.75-.06.3-.61.53-1.07.78.57,1.13,1.72,1.78,3.03,1.79.73,0,.88,1.43.63,1.92-.34.68-.76,1.36-1.95,1.42.23,2,2.95.51,1.63,2.61-.92-.38-2.14-1.09-3.02-.37-.53.43-1.6.9-1.63,1.79,1.3.37,1.13-1.69,2.6-1.4.5.1.73.5.73,1,1.17.12,1.26-.36,1.72-1.23.23-.43,1.27.28,1.73.55.22.13.47-.55.35-.79-.48-.98-2.41-.6-2.36-1.45,2.78-.25,1.05-3.29,3.59-1.1.23-.96.63-1.69.63-2.5,0-.33-.68-.81-.94-.73-.21.07-.26,1.21-.63,1.07-1.09-.39-1.82-1.18-3.28-1.26,1.51-.58,2.62-2.18,3.43-1.96-.38-.65,5.3-4.29,1.03-2.33-.19.09-.53.31-.89.32-.37-.99.65-1.71,1.7-2.36-1.15-.85-1.77.31-2.83,1.01-1.39-2.01,4.15-2.71,2.22-4.33-.67,1.04-3.71,2.89-3.84,2.92-.35.08-.9-.46-.54-.7,2.87-1.98.2-1.88,2.64-1.66.11-.2.06-.67.15-1,.4-.01,2.56-1.13,3.18-2,.44-.61-.73-.88-1.13-.86M564.36,216.02c.02.8-1.44.61-1.56-.12-.09-.57,1.53-.8,1.56.12M559.48,218.4c.21-.21.53-.09.84-.14.24-.04.39.59.08.7-.2.07-.52.21-.77.4-.17.13-.35-.77-.15-.96M558.32,215.75c-.36.05-.85-.42-.29-.93.47-.43,1.11-.2,1.07.32-.02.28-.44.57-.79.61M560.62,211.88c-.24.24-.98.44-.71.93.26.48.82.81.66,1.08-.14.25-.54.72-.95.46-1.08-.68-1.11-2.6,0-3.3.36-.23.82-.02.96.06.19.1.34.47.04.76M560.44,208.32c.22.21.1.95-.14,1.06l-1.17.54c-.4.19-.41.85-.76.93-.36.08-.86.09-1.24-.56,2.61-.58,1.41-2.29,3.3-1.97M556.06,211.74c.17-.67.88-.42,1.05-.26.15.15.15.92-.06.89-.28-.04-1.07-.26-.98-.63M552.49,214.27c.86-.7,1.67-1.51,2.86-1.67.39.18-1.54,2.18-2.28,2.3-.2.03-.78-.46-.58-.63M555.98,213.68c.56-.11,1.23-.27,1.27.73-1.14.19-1.68.82-2.47,1.24-1.35.71.74-1.88,1.2-1.97M554.54,217.66c.5-1.03,1.61-1.12,2.48-1.98,1.94.66-2.43,2.5-2.48,1.98M551.21,228.88c-.28.08-.77.19-.95-.11-.18-.28.11-.62.44-.88.23-.19.48.03.55.17.11.21.18.76-.04.82M558.41,234.59c.27.51-.27.67-.72,1.02-.37.09-.69-.28-.69-.5-.01-.49.43-.75,1.41-.51M555.11,232.35c.07-.46-.24-.96-.05-1.18.31-.36.91-.26,1.2-.31.51-.09.73.97.45,1.65-1.48-.15-2.88.57-4.11,2.09-.32-1.62,1.44-2.03,2.51-2.25M555.2,233.88c.09-.49.75-.85,1.38-.78.2.02.37.55-.11.78-.37.18-.66.29-.82.33-.18.04-.49-.08-.45-.33M555.36,235.1c-1.89.61-2.51,2.71-3.33,1.51-.25-.38,2.38-2.92,3.33-1.51M552.3,229.19c.22-.02.46-.66.58-.18.1.41.17.9-.27.95-.39.04-.68.09-.79-.16-.2-.42.14-.57.49-.61M551.09,234.85c.14-.38.51-.27.64-.21.26.11.51.39.25.69-.1.11-.26.21-.41.25-.31.07-.69-.19-.48-.73M547.02,236.01c.24.09.14.61.16,1.17.86.58,2.92-2.96,3.43-1.69.08.2-.1.71-.34.91l-3.49,3.01c-.34.37-.6-3.21-.74-3.02.22-.3.58-.53.98-.38M545.75,237.6c.16.14-.23.56-.44.63-.24.08-.94.21-.95-.31-.01-.51.74-.54,1.39-.31M539.98,233.44c.38-.33.88-.21,1.04.03.18.26.05.61-.12.75-.23.19-.61.24-1,.19-.29-.03-.34-.61.09-.98M539.9,235.23c.17-.11.65.44.98.29,1.58-.7,3.48-4.13,3.67-1.73-.88.78-4.02,3.47-4.75,2.34-.11-.18-.11-.77.1-.9M540.26,244.33c-.12.32-.41.18-.56.24-.29.11-.86-.15-.5-.66.14-.2.59-.08.82-.12.15-.03.34.26.24.54M537.36,243.22c-.49-.63,2.21-1.48.98-1.61-1.3-.14-1.86,1.7-2.99,1.68-.39-1.46,1.47-2.74,2.74-2.47.72.15,1.35,1.07,2.52.66-.74.96-2.52,2.67-3.25,1.74M543.05,245.95c.21-.21.53-.08.84-.14.26-.05.35.62.09.7-.2.06-.52.21-.78.41-.16.12-.34-.77-.15-.97M547.41,246.27c-2.55-.28-1.8,3.53-4.2,2.29-.53-.57,4.61-4.36,4.2-2.29M545.31,244.3s.91.99.42,1.04c-.51.05-.85.09-.92-.16-.1-.35.1-.62.5-.88M545.96,243.26s1.48.12,1.03.71c-.23.3-.43.17-.57.21-.38.11-.84-.13-.46-.92M543.6,244.43l-2.71-1.26c.52-.53,1.44-1.22,1-1.63-.95-.11-3.93-1.74-2.73-2.51.33-.21.96-.36,1.36.1.14.17.28.34.45.5.12.11.23.05.33-.07.16-.19.19-.66-.06-.86-.28-.23-.44-.44-.36-.62.49-1.1,1.91.85,4.32,1.88.73.31,1.01,1.35,2.28,1.42-1.59,1.27-3.86,2.05-3.87,3.06M548.03,240.56c-.39.36-1.08.12-.82-.7.16-.51.8-.23.91-.04.16.27.08.58-.09.74M556.1,244.76c-.57.68-.85-.14-1.06-.35-.34-.34.15-1.03.6-.94.31.06.79.91.46,1.29M557.03,245.79c-.47.07-.89-.6-.31-.9.58-.3.83.08.82.33-.02.41-.23.53-.51.57M557.95,242.35c-.35.02-.72.5-1.11.21.12-.38.31-.51.24-.64-.09-.19-.6-.4-.73-.18-.52.85-1.38.83-2.06,1.26-.95.6-1.58,2.3-3.34,1.88-.57-.13-1.07-.94-1.96-1.24,3.05-2.41,3.86-3.19,6.79-5.06-.67-.66-1.35,0-1.92-.84,0,1.05-.73,1.09-1.4,1.71l-2.52,2.33c0-1.39.13-2.9.46-4.32.26-.44.9-.28,1.02-.02.21.44-.19,1.08-.16,1.84,1.01-.96,5.91-4.82,7.13-1.66l-1.23.49c-.2.08.04.98.39,1,.35.03.74-.13.92-.01.24.15.38.64.26.81-.15.23-.58.37-.91.42-.55.09-.62.61-.48,1.03.08.24.59,0,.87.18.42.27.15.78-.28.81M559.47,251.67c-.39.04-.66.09-.8-.15-.23-.42.2-.58.5-.61.21-.02.46-.66.57-.18.1.41.18.9-.27.95M559.39,247.91c.74-.78,1.66-.58,2.1.15-.76.18-1.44.47-2.1-.15M561.34,244.14c.13-.2.61-.08.83-.12.15-.03.34.26.24.54-.12.32-.41.18-.55.23-.38.14-.82-.17-.51-.65M562.83,246.35c-1.33.61-3.02.03-3.51-1.36,1.45-.41,2.57.38,3.51,1.36M559.36,235.32c.5-.32.73-.06.67.39-.03.24.11.61-.19.81-.22.15-.58.02-.73-.12-.35-.33-.15-.82.25-1.08M559.69,238.9c-.21-.02-.58-.37-.61-.59.47-.21.95-.31,1.57-.01-.03.79-.7.63-.96.61M566.68,226.72c-.18.3-.65.61-.92.41-.33-.24-.42-.86-.19-1.24.25-.41.72-.29,1.07-.01.22.18.26.5.04.84M568.81,226.5c-.18.87-.82,1.42-1.36.76-.03-.3.68-.82.68-1.08,0-.33-.58-.63-.7-1.06-.16-.58.48-1.59.79-1.98.69-.11,1.5.27,1.67.95-.42.51-.83.5-1.51,1.01.88.68.51,1.03.43,1.41M577.76,227.45c-1.16.19-1.38-.74-.42-.83.57.04,1.05.13,1.21-.23.09-.19-.41-.6-.29-.77.22-.3.62-.22,1.11-.11-.18.71-.58,1.77-1.61,1.94"/>
  <path class="cls-1" d="M541.02,263.56c-.13-.34-.77-.38-.8-.59-.2-1.46,4.17,1,6.51-3.06-.86.26-1.73.57-2.69.18.45-.94,1.34-.79,1.91-1.36.79-.78,1.52-1.57,2.43-2.3-1.49-1.21-2.57,1.37-5.98,3.45-.35.21-.42.93-.74,1.01-.36.1-1.2.3-1.16-.23.07-.78,1.11-.6,1.12-1.48-1.35-.24-1.75-1.01-2.3-1.94-.32,1.41-1.34,1.76-2.45,1.86-.1,1.06.79.97,1.77,1.06.4.14.02.92-.32,1.03-.54.16-1.24.13-1.45-.51-.24-.72-1.22-.32-1.54-.62-.59-.58.45-1.03,1.08-1.61l-1.64-.75c-.2-.94.78-.93,1.38-1.33.4-.27.03-.75-.33-.75-.27,0-.81.02-.91.38-.05.17.06.32.02.81-2.42-.09-1.87,1.27-3.5,2-.21.1-.43-.19-.37-.42l.21-.77c-.85-.53-1.53-1.19-1.56-2.2-.04-1.41,1.85-3.26,2.91-3.09-.04-.87,2.05-2.56,2.57-2.43.44.11.86.45.28.8-.41.24-.81.35-.97.71-.15.35.14.62.56.65,1.01.07.45-1.21,2.52-1.5-2.17-3.85-2.31-1.79-3.56-3.07-.64-.66,1.01-.87-2.43-3.55-.7-.54-1.43,1.19-.95,1.54,1.05,0,3.07.76,2.53,2.23-.36.98-2.35,2.18-3.22,1.81-.75-.31-.82-.82-1.37-.66-.6.18-1.09.47-.59,1.01.31.34.99.2,1.01.73.02.39-.49.51-.76.87-.43.56.49.81.96,1.1-.19.94-.99,1.38-1.02,2.15.54.26,1.06.19,1.11.42.07.33-.01.83-.25.91-.16.06-.7.28-.76-.01-.12-.53-.29-1.03-.67-1-.26.02-.72.09-.97.31-2.56,2.22-4.05,1.47-3.38,3.66.98-.92,1.37-1.83,2.53-1.61.39.08.61.55,1.13.95.31.24.71-.41.67-.63-.19-.85-1.13-.71-.74-1.38.17-.28.58-.34.86-.24.14.06.21.34.34.64,1.24.29,2.25,1.13,2.4,2.27-.44.17-.76.37-.73.64.06.52.09,1,.5,1.05.24.03.79-.25,1.05-.1.6.36.6,1.24,1.23,1.29.66.05,1.19-.56,1.75-.73.31.14.23,1.66,1.08,1.24.56-.28.89-1.8,1.65-1.2.52.41.33,1.33.86,1.39,1.26.12,1.86.06,2.39,1.26.19.43-.42,1.05-.88.83-.5-.24-.5-1.27-1.14-1.2-1.58.17-2.11,3.24-3.82,2.12.1-.52,1-1.23.6-1.53-1.33-1-3.03-1.78-4.42-2.46-.72.6-1.52,1.19-2.44,1-.69.43,2.6,2.72,2.75,2.73,1.45.13,1.58-1.44,2.36-1.1,1.2.52-1,.93-1.06,1.65-.01.2.19.54.63.36.34-.14.66-.29.88-.18.25.13.33.48.27.7-.14.46-1.64.61-1.7,1.25-.04.41.31,1.01.84.82.56-.2.52-1.36,1.22-1.43,3.36-.35,1.98-2.72,4.32-2.55.35.03.39,1.05.81,1.12,1.01.18,1.95-1.59,1.64-2.44M542.37,261.45c.04-.26.41-.11.7-.38.34-.46.59.07.34.51-.37.32-.6.64-.87.51-.16-.08-.2-.47-.17-.64M530.41,250.94c.25-.07.41-.24.61-.14.49.26.14,1.57-.23,1.69-.55.18-.85-.2-1-.46-.24-.43.06-.93.62-1.1M532.79,259.97c-.49.03-.89,0-.98-.12.06,0,.17-.84,1.22-.67.33.05.45.75-.25.79M539.87,261.91c-.47.53-.79.79-.82.45-.05-.5-.13-.81.13-.91.4-.15,1.22-.13.69.46"/>
  <path class="cls-1" d="M574.77,237.34c-.4.46-2.17.94-1.8.34l1-1.6c-.53-.14-1.16-.04-1.69-.33-1.11-.6,1.65-.9,1.51-1.6-.45-2.17-4.53,2.9-7.36,4.59-.29.17-.36.83-.23.87.92.34.93-.82,1.75-1.13,1.05-.39,1.05,1.18,2.47.91.33-.06.27-.72.69-1.08.7-.29,1.2.79,1.84.78.48,0,4.36-1.74,4.35-3.42-1.02-.11-1.81.84-2.52,1.67M571.94,236.91c-.13.34-.53.32-.78.29-.22-.03-.76-.33-.5-.81.26-.48.76-.49,1.01-.25.16.16.4.43.26.77"/>
  <path class="cls-1" d="M597.11,182.04c-.93.7-2.19,2.08-3.35,1.8-.48-.11-.73-1.06-1.33-.81.02,0-5.38,4-4.58,3.51l-3.13,1.94c-.11.15.47.51.58.66.57.73-.94,1.06-.36,1.95.14.22.51.37.84.41,1.47.16-.16-1.59.32-2.67.4-.89.98-1.28,1.88-1.21.35.46.28.96.83,1.49-.18-.48,5.11-4.18,5.15-2.22l-2.25,1.8c.7.55,1.69-.08,1.7.95-.56.39-1.35.11-1.5.41-.14.29.03,1,.31,1.11.82-.32,1.69-.95,2.73-1.53-.6-.95-.15-2.1-.56-2.85-.3-.54-1.38-.5-1.18-1.38.98.33,1.08-.66,1.59-1.01.78-.54,1.64-1,2.45-1.64.99.18.72-.96-.14-.71M592.26,185.68l-1.2.78c-.42.27-1.22-.04-1.32-.66l2.13-1.63c.42-.32,1.33.02,1.26.52-.04.3-.25.6-.87,1"/>
  <path class="cls-1" d="M579.67,188.28c1.13.38,1.5-.69,2.32-.97.62-.22,1.66-.6,1.23-1.28-.23-.36-1.61,0-1.58-.85.02-.66,1.28-.51.85-1.69-1.13,1.47-2.37.45-3.73.49-.81.03-1.74,1.27-2.76.59l.23,3.09c.05.7-1.16.91-1.07,1.78l5.96-4.02c-.02,1.48-1.71,1.59-1.45,2.86M579.63,185.12c-.02.25-.23.59-.7.61-1.65.08.15,1.07-2.02,1.22-.26.02-.36-.73.03-.87,2.64-.97.78-1.25,2.45-1.49.17-.02.26.25.24.53"/>
  <path class="cls-1" d="M550.64,268.91c-.54-.23-1.17,1.33-1.94,1.33-.65,0-.89-.71-1.9-.98-.16-.04-.25.17-.43.51,1.05.76,1.37,1.72,1.32,2.73-.06,1.13-.54,1.76-1.62,2.2,1.14.67,1.55-.21,2.17-.65.37-.26,3.07-1.84,2.78-2.23-.68-.91-1.12-.35-1.28-.73-.93-2.12,1.92.04,2.77-.56-.54-.6-1.12-1.31-1.85-1.62M549.23,272.21c-.07.2-.42.26-.63.17-.34-.14-.5-.46-.24-.81.15-.19.52-.15.7-.1.21.05.3.38.17.73"/>
  <path class="cls-1" d="M521.22,232.4c.71,1.39,2.76-1.01,2.62-1.28-.24-.44-3.06.41-2.62,1.28"/>
  <path class="cls-1" d="M551.32,244.06c1.81-.99,3.02-2.19,4.56-3.26-.86-.68-5.07,2.1-4.56,3.26"/>
  <path class="cls-1" d="M437.01,242.54c-.12-1.42,1.45-.96,1.42-1.73-.04-1.16-1.43-.08-1.85-1.21.48-1.07,2.08-.94,2.77-1.69l1.96-2.15c-.76-.08-1.47-.07-1.95.1-.71,1.27-2.58,3.27-4.17,2.76-1.18-.37-1.98-2-3.47-2.07.85-1.69,2.46-1.91,3.6-2.98,1.2-1.13,2.36-1.61,4.2-.91l2.59-2.03c-.9-.53-2.22-.64-2.73.14-.25.38.06,1.04-.54.82-.16-.06-.37-.05-.49-.21-.2-.28-.11-.6.22-.77.13-.07.4.08.79-.36-4.17-.13-2.31,2.8-4.94,2.15-.36-1.06.89-1.84,1.92-1.78-.26-.62-.87-.75-1.35-.75-.45,0-.35.82-.81,1.09-.75.44-2.62.96-2.57,1.99.04.9.48,1.59-.04,2.17-.58.66-1.71.96-1.88.11-.07-.34,1.1-.61.9-1.08-.15-.36-.44-.68-.89-1.11.17-.81,3.2-1.81,2.87-2.76-.04-.13-.18-.6-.43-.43l-5.46,3.49c-1.02.65-1.91-1.3-2.77-1.57-.98-.31-1.9.87-2.47,1.46.58.43,1.53.92,1.16,1.48-.7.47-2.4.91-1.46,2.02.8.94,1.85-2.95,3.57-1.28-.37.7-1.25.75-1.65,1.33.06.23.51.51.51.77,0,.31-.23.51-.42.79-.36.55-.6,1.11-.02,1.27,2.11.61,2.42-2.32,4.97-2.93.4-.09.44.56.18.77-.16.13-.35.36-.56.65,1.47.46,2.3-.46,3.57-1.24.29,1.83-1.47,2.23-2.94,2.48-.32.06-.1,1.16.16,1.13,2.52-.27,2.32-2.08,4.02-1.99.92.05,1.88.83,2.77,1.18-.22.71-.82.58-1.06,1.1.97.29,1.5-.64,2.45,0-.61.82-1.61.97-1.44,1.84.71-.46,1.23-.16,1.74-.09"/>
  <path class="cls-1" d="M500,294.66c-.52,1.47-1.35,1.89-2.42,2.65-1.1.79-.57,2.84.68,3.52-.91.91-1.28,1.5-1.2,2.41.08.95.68,1.39,1.21,2.17.2.29-.51.96-.31,1.21.31.39.82.68,1.15.6.29-.07,1.65-1.59,1.53-2.15-.06-.31-.67-.56-.71-.96-.04-.44.72-.83.55-1.29-.12-.32-1.16-.42-1.11-.79.13-.89.94-.67,1.06-1.24-.91-.15-1.22-.23-1.24-.59-.09-1.74,2.03-1.31,2.06-2.64,0-.32-.66-.77-.56-1.18.13-.46,1.16-.64,1-1.36-.1-.44-1.55-.8-1.7-.37"/>
  <path class="cls-1" d="M458.96,255.6c-.7.16-.82-.38-1.26-.9-.44-.52-1.4-.12-1.48.43-.04.33-.67,1.15.04,1.29.62.13,1.45-.92,1.79-.09,1.02,2.47,1.06-.93,2.62-.34.28.11.49.4.66.92.14.45,1.01.27,1.31.06,1.09-.76-1.11-2.21.51-3.4-.96-.12-1.3-1.24-2.03-1.39-1.23-.25-2.2.99-2.92,1.9l1.57.2c.21.9-.32,1.19-.83,1.31"/>
  <path class="cls-1" d="M471.59,278.48c4.68-1.51,3,1.22,7.32-1.99-.98-.84-1.78-.1-2.57.42-.61.41-1.24-.51-1.78-.45-1.07.12-4.38,2.2-4.33,3.03.03.52.73.19,1.33.79-1.18.89-2.75,1.44-2.97,2.98,1.28.16,1.97-.76,2.81-1.39.45.4.73,1.33,1.41,1.3,1.16-.04,2.07-1.18,2.3-2.19-.92-.18-1.36-.99-2.12-1.21-.47-.14-1.13.17-1.34-.4-.1-.26-.46-.77-.06-.9"/>
  <path class="cls-1" d="M471.22,260.91c-.79-.99-.26.19-2.43,1.57-.48.31-.73,1.53-1.5,1.16-.38-.19-.47-.88-.84-.95-.72-.14-2.41,1.33-2.02-.11.26-.95,3.29-1.47,3.99-3.45.21-.59-1.03-.56-1.38-.51-.47.06-.42.78-.77,1.21l-1.4,1.68c-.7-.12-1.18-1.09-1.87-1-.54.07-1.08.81-1.67.83-1.03.05-1.81-.84-2.99-.35.44.98.04,2.17.65,3.02,1.16-.66,1.64-1.09,2.35-.95.7.14,1.03.91,1.51,1.22.31-.34.4-1.08.7-1.11.28-.03,1.05-.1.93.24l-1.2,1.17c.93,1.47,2.81-1.77,3.9-.67.32.33.6,1.66.05,1.69-1.26-.21-2.38-.15-2.73,1.17,1.37-.02,1.49-.85,2.22-1.04l1.01,1.7,2.11-1.33c.5-.32.83-1.17.21-1.43-.37-.16-.89.18-1.69-.24l3.29-2.52c.3-.23-.29-.8-.43-.97"/>
  <path class="cls-1" d="M460.29,266.05c.46-.23.19-1.33-.17-1.29-1.17.15-2.07,1.38-2.83,2.19-.9.96-2.17,1.36-2.64,2.64.62.31,1.03-.48,1.54-.32.91.28-.44,1.35-.23,1.73.74.71,2.03,1.07,3.02,1.35.31-1.27-.64-1.68-1.74-2.01.44-.9,1.22-.59,1.68-1.27l-1.69-.6c.66-1.44,1.88-1.83,3.05-2.42"/>
  <path class="cls-1" d="M500.67,279.91l.56.91c.99-.1,1.77-1.06,2.05-2.07-3.71,1.16-2.76-.95-6.85,2.56.46.62,1.03.68,1.22,1.06.11.21-.16.74.16,1.23.59-.29,1.3-.72,1.58-1.61-.81-.08-2.05.4-1.75-.52.03-.08,2.49-2.44,3.03-1.56"/>
  <path class="cls-1" d="M464.88,281.33c-.3,0-.85.42-1.15.35-.77-.17-.65-1.13-.9-1.63-.16-.31-1.13-.23-1.22.24-.12.64-.31,1-.79,1.05-1.62.15-1.26-1.78-2.09-1.09-.21.17-.43.45-.5.78-.1.42,1.56.42,1.29,1.23-.05.14-1.93,1.33-1.06,1.74,1.03.48.9-.99,1.22-1.26.89-.07,2.04-.61,2.95-.94,1.18-.42,1.98,1.29,2.73,1.65.66.32,1.26-.46,1.26-.78,0-.42-1.76-1.34-1.76-1.34"/>
  <path class="cls-1" d="M452.09,275.7c-1.39-.72-2.9-.81-3.86.69l1.94,2.06c.4.42.88-.19.91-.56.14-1.59-1.43-.27-1.25-1.38.04-.25.15-.52.54-.57.91-.11.45,1.75,1.56,1.31.27-.11.44-.35.66-.77.34-.64.17-.49-.5-.79"/>
  <path class="cls-1" d="M483.25,276.24c-.6.85-1.31,1.34-.48,2.32.29-.3.18-.83.49-1.31,1.15-.42,2.67-1.05,2.4-2.49-.76.76-2.42,1.27-2.47.13-.01-.26,1.05-.36,1.24-.52.18-.15.14-.58-.31-.76-.85.3-1.66,1.04-2.41,1.67-.04.68.92.69,1.54.96"/>
  <path class="cls-1" d="M420.05,230.12c-1.1-.3-2.05.16-2.51,1.12l1.46,2.68c.36-.58,1.35-1.06,1.37-1.75-.12-.77-.63-1.33-.32-2.05"/>
  <path class="cls-1" d="M502.01,283.85c-.07-.87.39-1.53-.21-2.17-.91.39-1.43,1.48-2.2,2.15,0,.32.49.41.73.33.29-.09.52-.27.78-.68.48-.38.65.11.41.61-.25.5-.19.71.02.76,1.22.23,1.34-.17,2.76-1.86-1.25-.29-1.33.83-2.3.88"/>
  <path class="cls-1" d="M471.44,285.3c-.45-.15-1.5,0-1.08-.88.39-.39.86-.19.99-.3.19-.15.16-.75-.16-.83-.76.8-1.84,1.23-2.25,2.5,1.09-.39,1.39.25,2.02.69.99.7,2.47-.73,2.34-1.82-.69.44-1.11.88-1.85.63"/>
  <path class="cls-1" d="M481.93,279.54c-.27.12.4.86.68.91-.04,0,3.67-2.72,4.19-3.14-.75-1.43-1.1.58-4.87,2.23"/>
  <path class="cls-1" d="M435.24,235.15c-.72.37-1.88.6-1.69,1.63.83.08,1.28-.98,1.95-.66.57.27.92.81,1.3.67.29-.1,1.03-.43.73-.89-.45-.69-1.59-1.11-2.29-.76"/>
  <path class="cls-1" d="M485.32,280.25c-.98.53-1.68.95-2.71,1.71.88.84,1.88,1.58,2.88,1.48-.3-1.1-.9-1.19-.87-1.78.03-.49.8-.52.69-1.41"/>
  <path class="cls-1" d="M466.27,269.56c-.02.22-.04.92.48.85.8-.11,2.24-.73,2.13-1.86-.11-1.14-2.6.87-2.61,1.01"/>
  <path class="cls-1" d="M449.15,274.31c.86-.37,1.67-.11,1.71-.82.02-.36.11-1.13-.58-1.11-.61.02-1.87.15-1.64.82.12.35-.11,1.36.51,1.1"/>
  <path class="cls-1" d="M481.28,271.87c-1.09-1.01-.77-1.46-1.18-2.44-.35,1.1-.85,1.76-1,2.88.88-.1,1.61.21,2.18-.44"/>
  <path class="cls-1" d="M473.26,274c-.27.33-.02.9.26,1.08.26.16,1.05.19,1.33-.18.08-.25-.2-.77-.4-1.21-.29-.66-.91-.03-1.2.31"/>
  <path class="cls-1" d="M500.34,290.55c.67.47,1.06,1.05,1.88,1.36.12-1.07-.35-1.72-.79-2.18-.39-.1-.91.4-1.09.81"/>
  <path class="cls-1" d="M459.99,248.9c.82-.11.92-.99.61-1.18-.33-.2-.72-.09-1.02.13-.3.21-.57.43-.54.78.03.26.37.35.95.27"/>
  <path class="cls-1" d="M501.76,287.29c1.33.33,1.82-.73,2.06-1.81-.81.23-1.7.69-2.06,1.81"/>
  <path class="cls-1" d="M498.54,288.32c.07-.12,1.2-1.24.89-1.51-.29-.25-.64-.2-.85-.23-.47-.06-1.01,1.38-.82,1.7.18.3.57.38.78.04"/>
  <path class="cls-1" d="M482.59,273.75c.33-.07.39-.47.41-.7.03-.46.06-1.17-.59-.73-.38.26-.68.66-.53,1.03.09.22.48.44.71.39"/>
  <path class="cls-1" d="M472.24,263.46c.1.1.11-.07.7-.2.49-.24.41-.43.2-.54-.28-.14-.44-.26-.73-.18-.27.07-.36.23-.55.49-.16.22.1.12.38.43"/>
  <path class="cls-1" d="M498.1,285.62c.26-.16.4-.35.57-.49.56-.47.36-.8-.11-.76-.16.01-.27-.15-.57.09-.26.21-.36.53-.17.87.09.16.04.44.28.29"/>
  <path class="cls-1" d="M461.16,284.37c-.26-.12-.83-.17-1.01.14-.29.48.09,1.03.48.92.2-.06.46-.31.7-.5.26-.21.01-.47-.17-.56"/>
  <path class="cls-1" d="M446.33,273.27c-.27.21-.32.34-.36.49-.06.2.02.54.31.53.31-.01,1.12-.8.75-1.05-.18-.12-.47-.14-.71.04"/>
  <path class="cls-1" d="M497.5,292.54c-.4.27-.22.75.1.99.14.1.33-.05.51-.24.12-.13.15-.36.03-.61-.12-.24-.33-.35-.64-.14"/>
  <path class="cls-1" d="M466.15,256.45c-.11-.36-.59-.95-1-.81-.41.14-.06.64.07.85.19.31,1.02.26.93-.04"/>
  <path class="cls-1" d="M471.47,254.65c.1-.28-.09-.57-.24-.54-.21.04-.69-.09-.82.12-.3.47.16.78.5.66.16-.06.45.08.57-.24"/>
  <path class="cls-1" d="M478.03,285.43c-.91.34-.65.54.51.64.72-.53.18-1.34-.51-.64"/>
  <path class="cls-1" d="M453.89,270.6c.04-.64-.83-.83-1.14-1.18.23-.57,1.41-1,.78-1.71-.21-.24-.89-.14-1.06-.43-.49-.8,1.72-1.43,1.35-1.18.48-.32.55-1.18,1.53-.73.18-.43-.14-.91-.39-1.35-.15-.26-.87.1-1.13-.14-.53-.5.47-.93.6-1.34-3.14-2.64,2.05-1.66,1.55-4.61-.27.73-3.89,2.22-3.96,2.43-.49-.27-3.45-2.5-3.27-2.91.15-.34.65-.41,1.12-.82-1.16-.6-2.27-1.14-3.43-2.33,1.42-.76,3.67-3.25,4.12-2.51.48.8-1.1.69-.95,1.41.27,1.28,2.57-1.96,2.6-.08,0,.65-.83.73-.83.94.02,1.63,4.65-1.98,4.83-2.19.63-.76.94-1.62,2.09-1.59.19,0,.44-.75.3-.86-.16-.12-.48-.25-.66-.09-.12.11-.23.32-.45.49-.37.29-.71-.15-.79-.38-.11-.3.07-.8.4-1.04l4.97-3.59c-.02-2-.34.62-1.95-1.66-.29-.41-1.62-.03-1.93.4-.32.45-1.14,1.23-.42,2.01.91-.55,1.9-1.68,2.81-1.31.45.73-.63,1.01-1.2,1.23-1.54.57-2.44,2.07-3.69,2.95-.34-.02-.51-.72-.29-1.01.16-.21.44-.31.63-.7-.74.05-1.9-.72-1.46-1.09,1.73-.74,2.33-2.51,3.73-3.55,1.01-.75,2.68-.66,3.37-1.95.14-.38,0-.76.24-.82.37-.09,1.23-.29,1.25.24.03.87-1.22.56-1.42.9-.47.83.9,1.2,1.66,1.54-.11.99-.88.94-1.37,1.99,1-.16,1.76.87,2.56.96.78.09,1.6-1.54,2.47-.45-.93.75-2.16,1.39-2.34,2.45.76.01,1.1-.4,1.54-.47.22-.04.43.36.43.68,0,.18-.29.43-.16.6.81.19,1.32.51,1.04,1.09-.29.61-1.63.73-1.63,1.6,0,.51.25.59.62.56.81-.05.55-.58,1.44-1.2.24-.17.74.08.75.39.04,1.05-1.15,1.66-1.58,2.21.33.62,1.78,1.81,2.62,1.26,1.18-.77,2.29-1.66,2.97-2.67-.62-.38-.93-.27-1.16-.32-.26-.06-.61-.76-.36-1.07,1.22.62,3.09-2.2,3.16-1.88-.23-.98-1.74-.85-1.55-1.4.07-.21.64-.64.89-.52.69.33,1.36.9,2.07,1.63-.89,1.05-1.99,1.21-2.56,2.52,1.92.88,2.91-2.91,3.47-1.62.21.47-.81,1.25-.74,1.79.03.21.71.37.69.58-.11,1.61-1.58,1.97-2.75,2.52-1.02.48-1.14,1.94-2.06,2.6,2.8.16,3.82-3.34,5.61-3.46.72-.05,1.28-.81,1.4-1.6.06-.38-.26-.47-.57-1.08-.81-.21,4.42-3.55,4.2-2.84.04.61-.3,1.03-.09,1.74.45-.17,1.18-.68,1.34-.09.03.38-.61.72-.44.95,1.21,1.68,1.68-1.5,3.01.05-.51.59-1.06.18-1.7.6.3,1.03,1.42,1.22,2.17.88-1.11-1.97,4.45-1.7,4.8-.88-.47.88-1.14.77-1.56,1.36.36.52.85.81.79,1.23-.05.4-.47.68-.57,1.15-.1.45.52.47.74.36,1.14-.55.61-1.07,2.35-1.88-1.8-2.63-1.01-3.65-3.92-4.12.04-.65.91-.75.59-1.24-.73.08-1.56.2-1.73-.35-.07-.24.34-.46.41-1.13-1.23.28-2.42.74-3.06,2.06l-3.2-1.64,3.77-2.37c-.75-1.28-4.87,1.45-5.32,3.17-2.4-1.58,3.6-3.51,3.66-4.7-1.82.1-2.13-.97-2.99-1.64-1.01-.79-2.34-1.18-3.36-1.83-.18-.11-.59.42-.7.56-.15.2.03.55.21.58s1.03-.03,1.12.22c.36.95-1.02,1.8-1.95,1.75-.3-.71.27-1.31-.62-1.94l-1.94,2.06c-.23.7.18,1.95.22,2.66.4.08.96.2,1.09.31.12.11-.11.46-.2.6-.36.57-1.49-.28-3.04-.23-.33-.7-.72-1.74-.69-2.42.14-.43.63-.7.34-1.12.43.63-3.4-2.63-4.46-2.29-1.35.44-2.7.63-3.85-.82,1.1-.13,1.12-1.02,1.62-1.53.62-.63,1.37.5,1.75.85.61.56,1.13-.39,1.58-.53,1.45-.44,2.66.55,3.74,1.39.18.14.78-.14.93-.06.14.07.3.22.23.55-.05.21-.28.32-.59.42-.56.18-.66.78-.46,1.08.74,1.06,2.32-1.01,2.92-1.59-.9-.39-.54-1.51-.9-1.83-.63-.55-1.52.34-2.14.21-.46-.1-.43-.81-.61-1.15-.45.3-.85.57-1.16.54-.63-.04-.4-1.04-.76-1.3-.82-.6-2.11-.36-2.57-1.63-.56.99-1.25,1.13-2.05,1.6-.44.26-.19,1.33-.77,1.48-.76.2-.86-.49-.84-.99.02-.49.45-.44,1.15-.72.4-.16-.18-1.01-.51-1.13-.47-.16-.91.56-1.31.6-.5-.49.01-1.6-.76-1.49-.34.05-1.27-.14-1.22.34.81.77,1.25,1.26,2.12,1.38-.73.85-1.18,1.31-1.12,2.17-.63-.02-1.14-.21-1.8-.1-.2.86-.69,1.37-1.06,1.98.82,0,1.45-.2,1.28.51-.25,1.1-.8.09-3.11,2.32-.21.2-.55.32-.89.26-.17-.03-.21-.31-.07-.49.07-.09.34-.29.33-.62-.1-.42-.85-.04-1.52-.36,1.01-1.52,2.39-2.64,4.1-3.4.6-.26.94-1.41.37-1.53-1.8-.36-2.5,2.52-2.74.67-.14-1.08,3.66-1.33,3.52-3.28l-2.85-.71c1.52.38-6.19-.27-5.81-.99-.63.39-.12.85.18.97.16.07.48,0,.8-.08.71,2.23-1.79.66-.52,2.58.11.16.62.07.8.19.28.5.81.88,1.16,1.37.46.65-.56,1.17-.66,1.72.61.3,1.35.6,1.11,1.13-.18.38-.53.65-.89,1.16l1.29.77c-.58,1.41-2.03,1.8-3.09,2.66-1.01.83-1.66,1.94-3.15,2.43.6.72,1.14.17,1.88.8-.61.93-1.25,1.75-2.3,2.1-.49-.19,1.16-1.91-.03-2.25-.29-.08-.93-.08-1.18-.26-.18-.13.14-.56-.29-1.01-1.06.73-2.4,1.38-3.32,2.29-.63.63-.94,1.52-2.04,1.43l.34-2.24c-1.17.12-2.44.94-2.59,2.07.63.12,1.41,1.42,2.01,1.44.86.02,1.62.26,2.15.96,1.45-.22,2.17-1.61,3.33-2.16,1.03,1.59-4.61,3.19-1.18,3.44,2.01.26-.94.66-.76,1.78.09.56.96.35,1.38.67.52.41-.11,1.14-.68.98-.28-.08-.72-.11-1.2-.69-.48.56.17,1.07.49,1.45.35.42,1.04.64,1.49.14.35-.39,1.16-1.08,1.27-.32l-1.22,1.7c1.32.15,2.55.5,3.4,1.64-.95,1.18-2.3,1.52-3.07,2.75.96.77,1.96.19,2.73-.5.44-.4.94.18.71.47-.45.59-.97.41-1.31.84-.25.32.23.49.47.53l.62.09c.69-.58,1.33-2.09,2.48-1.63.39.71-.86,1.18-1.49,1.38-.78.26-.62,1.42-1.71,1.45-.51-.75-1.68-1.76-2.37-1.28-.33.68,1.04,1.08,1.42,1.56-.87.55-1.16.55-.95,1.45.14.6.98.7,1.22,1.19.13.61-1.29,1.83-2,1.67-.94-.22-.16-1.4-.03-1.86.14-.49-.95-.65-1.13-.34l-.38.65c-1.05.5-1.49-.32-1.73-1-.14-.39-.19-.91.18-1.58-.55-.46-1.06.14-1.6-.06.03-.7.03-.93-.16-1.13-.26-.29-1.37-.09-1.1.35l1.9,3.08c.18.29.09.73.45.65.14-.03.6-.23.71-.07.33.45.11,1.19.51,1.53.63.53,1.97-.34,1.95,1,1.24.1,2.73-2.16,4.93-3.44.36,1.01-.41,1.4-.32,2.2,1.06.2,1.84.2,2.26,1.13.21.35.92-.36.94-.74M479.58,243.8c1.7-.6,1.79-2.57,2.53-1.77.84.91-2.87,3.18-2.53,1.77M479.82,247.08c.02.7-1.79,1.65-2.21,1.08-.48-.65.33-1.1.62-1.3.37-.25,1.56-.65,1.59.21M474.97,242.37c.21-.29.52-.08.66.02.15.11.59.53.24.52-.41,0-.56.48-.74.43-.33-.09-.29-.78-.16-.97M475.57,244.37c1.68-1.08,2.65-3.53,3.42-2.15.67,1.19-3.06,1.76-.3,2.43-.25.81-1.15,2.11-2.27,2.26-.58.08-.76-.71-.43-1.01.3-.28.6-.68,1.31-1.14-.58-.22-.86.31-1.73-.39M467.42,235.22c.46-.02.63.33.72.54.17.4.1.87-.47,1.06-.27.09-.7-.26-.89-.76-.11-.28.16-.37.64-.83M467.88,246.09c-.15-.04-.18-.16-.19-.52,0,.03.8-.75,1.08-.72.22.03.46.19.52.53.08.43-.85.82-1.4.7M471.14,247.44c.14-.21.58-.08.82-.12.15-.03.34.26.24.54-.12.32-.41.18-.57.24-.3.11-.83-.17-.5-.66M470.76,251.49c-.92.28-1.26-.27-.82-.74.17-.19.52-.32.88-.24.36.08.59.78-.06.98M470.88,248.48c.29.2,0,.85-.25.96-.43.19-1.08.34-1.42,0-.1-.16.24-.54.23-.73,0-.25-.94-.45-.85-.81.2-.76,1.1-1.48,1.81-1.64-.06.81-.76.8-.81,1.16-.09.71.29,1.13,1.28,1.05M469.81,241.51c.11-.12.16.39.21.51.09.23-.13.69-.51.58-.19-.06-.52-.32-.59-.55-.06-.19.58-.2.88-.54M469.02,242.76c-.14.86-.54.93-.97.9-.29-.02-.72,0-1.02-.61.54-.46,1.2-.64,1.99-.29M466.01,241.28c.24.03,1-.23,1.05.67.04.63-1.35.63-1.63.13-.31-.56.31-.83.58-.8M463.69,240.9c.25-.41,1.08-.68,1.15-.66.43.14.43.65-.08,1.01-.36.25-.6.32-.95.25-.18-.04-.26-.37-.12-.6M456.87,233.76c.25-.28.72-.28.83,0,.13.34.28.56.2.81-.14.42-.73.63-.93.3-.25-.4-.4-.77-.09-1.12M455.07,235.25c.16-.19.47-.1.82-.11.24,0,.24.23.04.38-.27.2-.26.35-.4.39-.3.09-.84-.21-.46-.66M454.04,234.72c-.23-.17-.34-.61-.09-.9.19-.23.5-.12.65.03.15.15.31.46.18.71-.14.28-.56.29-.73.16M445.51,249.03c-.33-.19-.3-.52-.1-.86.13-.22.22-.43.36-.48.23-.08.58-.06.77.18.28.36-.59,1.4-1.03,1.15M452.18,251.05c-.31.19-.63.15-.9.07-.15-.04-.14-.27-.17-.5-.03-.23.27-.36.68-.59.24-.14.66.14.8.27.15.15-.03.51-.41.75M455.17,250.15c.45.03.59.53.09,1.02-.32.31-.68.51-.97.53-.2.01-.51-.09-.48-.39.03-.24.39-1.22,1.36-1.16M453.76,244.96c.29.59.64,1.94.08,2.37-.93.7-1.64-.42-2.22-1.12.53-.48,1.18-.8,2.14-1.25M449.43,249.76c.1-.97,1.27-1.56,2.18-1.58.43-.01,0,.56-.2.8l-.75.95c-.19.24-1.28.36-1.23-.16M449.16,250.36c-.04,1.31-1.01,1.97-2.29,1.91.31-1.18,1.28-1.73,2.29-1.91M451.23,261.43c-.12.32-.41.18-.56.24-.29.11-.86-.15-.5-.66.14-.2.59-.08.82-.12.15-.03.34.26.24.54M451.49,266.79c-.61-.63-.19-1.35.17-1.79.39-.48,1.03-.94,1.61-.7-.72.99-1.03,1.83-1.78,2.49"/>
  <path class="cls-1" d="M437.08,249.13c-.81-.26-1.2-.31-1.28-1.01-.06-.5.24-.8,1.23-1.03.46-.11.51.34.75,1.03,1.12-.04,2.15-1.09,2.52-2.08-1.11.04-1.59,1.04-2.6.79l1.03-1.69c-.38-.39-1.24-.66-1-1.14.2-.4.62-.62.58-.92-.08-.58-.63-.43-1.3-.52.06.75-.42,1.23-1.4,1.36-.4.05-.33-.63-.34-1.27-4.93,2.02-2.14,3.47-3.34,4.47-.3.25-.89.12-1.14-.05-.98-.66-.24-2.12-.65-2.56-.3-.33-.77-.22-1.32-.4-.97-.31,1.24-1.28.31-1.9-.27-.18-1.14,1.24-1.72.38-.35-.52.53-.91.56-1.4,0-.2-.48-.72-.86-.59-.85.29-1.28,1.3-2,2.08,2.59,2.28,3.73,1.06,3.81,4.6.02.73.71,2.35,1.41,2.54.98,0,1.89-.87,3-.13-.32-.96-.34-1.33-.24-1.95.08-.5,1.24-.79,1.28-.38.1,1.03-.06,2.12-.98,2.28.37.31.58.38.72.47.6.4.9.63,1,.76.62-.31,1.44-.87,1.98-1.73"/>
  <path class="cls-1" d="M435.1,250.86c-.1.05-.19.09-.28.13.26.03.39.01.28-.13"/>
  <path class="cls-1" d="M442.46,254.23l-1.92-1.33c-.53-.37-1.26.66-1.79.11-.06-.36.24-.59.35-.76.58-.83-3.89.06-1.38-1.23.16-.08.37,0,.68-.13.52-.22.53-.71.55-1.11.02-.43-.43-.62-.94-.59-.29.02-.71.07-.74.62-.01.28.54.85.19,1.28-.32.39-.92-.29-1.28-.2-.37.1-.5.44-.75.9-.21.39-.67.32-.99.19-.21-.09-.28-.46-.19-.87-.01.06.22.02.57-.13-.65-.07-2.09-.39-2.31.43-.24.9,2.24,2.07,2.33,2.08.96.13.83-.88,1.43-1.46.66-.63,1.34.64,1.47,1.3.14.74-.08,1.6-1.06,2.16.34.48.86.83.73,1.39-.15.64-.81.93-1.48,1.51.93,1.5,6.96-2.77,6.54-4.16M439.09,255.57c-.32-.06-.28-.58-.1-.82.15-.2,1.34-.69,1.49-.7.2-.02.46.19.54.48.19.68-1.93,1.05-1.93,1.05"/>
  <path class="cls-1" d="M442.19,237.41c.43.55.72.96.51,1.58-.15.43-3.3,1.92-3.45,2.69.04.68.74.75,1.06.44,1.49-1.45.24-.52,1.29-1.62.12-.12.71-.02.62.18-.51,1.24.3,1.71.54,2.52.36,1.18.34,2.8,1.76,3.38,1.74-1.62,2.78-3.19,4.46-4.3.24-.16,1.19-.03,1.22-.55.02-.25.05-.53-.24-.71-.28-.17-.63-.07-1.17-.51.9-1.04,2.3-1.44,2.96-2.71-.46-.28-.99-.84-1.03-1.34-.03-.31.41-.39,1-.83-.66-1.1-3.09-1.14-2.3-3.03.14-.33,1.06-.46.68-1.45-4.56,3.33-5.25-1.56-6.69-.47-.17.13-.23.58-.23.86,0,.21.72.16.92.39.56.63-.24,1.12-.92,1.68.54.8,1.61.24,1.71,1.33-.73.23-1.92-.07-2.18.68-.17.47-.99,1.2-.52,1.8M447.89,242.36c-2.23.98-1.37,1.19-2.69,1.97-.23.13-1.12-.37-.93-.64.71-1.01,3.97-3.31,3.62-1.33M449.37,235.31c.24.83-.12,1.16-1.26.99-.45-.32.87-1.2,1.26-.99M448.38,234.38c-.59.73-1.59.74-2.27.16.67-.59,1.3-.67,2.27-.16M443.94,236.86c.25-.48.78-.27.9-.07.13.21.22.63.04.95-.11.19-.42.41-.73.16-.21-.17-.48-.52-.21-1.04M444.16,239.39c.47-.11.96.58,1.45.87,1.09-.35,1.55-1.6,2.49-2.08-.54-.17-.82-.02-.98-.14-.3-.24-.23-.55-.19-.74.09-.39.53-.8,1.05-.59.7.28,1.28.87,2.01,1.26-.99,1.45-2.13,1.9-3.43,2.55-.62.31-.94,1.43-1.94,1.48-.84.04-1.84-1.15-1.89-1.86-.03-.62,1.02-.66,1.42-.75"/>
  <path class="cls-1" d="M493.3,267.24c1.01-.68,1.84-1.26,2.86-1.75.4.37.18.88.59,1.41.33-.78.1-1.6-.06-2.45-1.21.44-2.03-.21-2.78-1.04-.38.35-.69.56-.94.46-1.52-.64,2.37-1.87,2.94-3.75-1.46-.24-2.55-.72-3.87-1.14.37-.93,1-1.25,1.46-2.07l-1.6-.76c-1.34-.64,2.14-.35,2.09-1.3-.02-.3.04-1-.34-.95-.92.12-1.56,1.03-2.34,1.53-.83.54-1.22-.7-1.75-.9-.69-.26-1.85.75-1.46,1.7.79.24,1.29-1.14,2.19-.66.79.42-.53,1.03-.87,1.31-.49.39-.53,1.13-1.05,1.18-.59.06-1.23.26-1.52-.18-.64-.95-.17-1.82-.42-2.77-.22-.84-1.84-1.54-2.52-1.62-.4.34-.67,1.36-1.4,1.01-.47-.22-.62-.63-.72-1.39-.67.53-1.54.91-1.87,1.76-3.78.51-1.46,2.25-4.59,2.24.03,1.26,1.57,2.33,2.96,2.11l-1.45-1.39c.37-.75,1.27-.65,1.79-1.23.66-.73,1.56-2.06,2.56-1.65.39.33.49,1.23,1.04,1.17,1.17-.11.63-.88,2.15-1.55.17-.08.74.18.55.65-.35.89-1.49,1.67-2.5,1.77-.66.06-.74-.94-.91-1.27-1.11,1.01-1.92,1.59-3.17,2.02.85,1.05,1.38-.31,2.22-.32.65,0,.33.91.18,1.28-.22.54-.69.23-1.25.41-.62.19-1.11,1.18-.89,2.03.37-.12,1.31-.72,1.54-.26.48.97,1.4.8,1.93,1.44l1.23,1.45c.42.5.78.84,1.3.42.25-.2.92-.54.53-1.01-.51-.62-1.6-.76-1.61-1.81.61-.34,3.05,2.48,3.56.88.13-.39-.4-.94-.5-1.26-.32-.96.86-1.21,1.32-1.75.74-.87,1.4-1.91,2.68-1.09-.37.91-1.08,1.05-1.46,1.71.35.27.65.57,1.08.73.06-.83.09-1.34.43-1.52.48-.25,1.77-.21,1.26.52-.63.9-2.03,1.4-2.98,1.96-.89.53-1.09,1.64-1.83,2.28-.71.61-1.72.81-1.93,1.92,2.23.44,2.36-3.19,4.28-1.81.11.39-.21.95.14.95.39,0,.73.05.91-.29.46-.87,1.38-1.21,2.21-.61-2.63,1.1-1.56,2.47-3.48,2.84-.6.12-1.51.14-2.27-.44-.2-.15-.6.64-.3.85.67.45,1.35.68,2.17,1.15l3.6-2.51.84,1.34ZM482.4,260.06c-.07.31-.3.7-.63.71-.45.01-.67-.28-.61-.68.04-.26.17-.7.78-.79.54-.08.51.53.46.76M485.65,260.08c-.56.67-2.2-.51-2.56-1.1-.24-.4.56-1.69,1.04-1.75.94-.12,2.56,1.62,1.52,2.85"/>
  <path class="cls-1" d="M497.38,274.18c-.83-.38-1.14-.34-1.21-.71-.32-1.69,1.61.56,2.11.18.15-.11.37-.51,0-.62-.43-.13-.85-.08-.98-.35-.3-.63.95-1.06.55-1.85-.31-.63-1.63,1.03-1.94.93-.41-.13-.61-.52-.66-.87-.07-.57.69-.33.95-.68l1.11-1.53c.04-.6-1.18-1.76-1.89-1.69l-5.04,3.98c.1,1.36,2.29-1.1,3.1.35.18.32.58.83-.01,1.38-.47-.57-1.72-1.13-1.86-.33-.18,1,1.17.75,1.78.78.26.66-.66.9-.26,1.55.77-.21,1.11-.72,1.69-.62.34.06.38,1.17.72,1.15.65-.04,1.61-.53,1.84-1.06M494.32,270.39c-.21-.1-.29-.32-.23-.55.07-.26.43-.1.7-.38.35-.45.58.08.34.52-.4.35-.58.52-.81.41"/>
  <path class="cls-1" d="M469.92,278.22l-1.34-1.2c.72-1.05,1.63-1.76,2.69-2.61l-1.33-1.21c.21-1.39,1.46-1.72,2.54-1.85.79-.09,3.61-2.31,3.45-2.73-.68-1.77-1.53,1.42-4.33-.72-.21-.16-.7.36-.7.63,0,.28.17.38.79.37.8-.01.91.93.09.95-1.08-.04-.55.89-.85,1.43-.33.6-1.7,1.42-2.4,1.23-1.64-.43-2.69-1.67-4.28-1.97.57-1.27,1.58-1.11,1.18-2.38l-3.53,2.54c-.29.21-.89.04-1.04.32-.65,1.2,1.91.85,3.42,3.02-5.36,1.81-2.56,5.1,2.12-1.29l3.28,1.9c-2.32.34-2.61,2.19-4.8,3.04-.62.24,0,.97.4,1.1.73.22,1.08-1.17,2.36-.82.21.06.39.49.02.72-.44.28-1.03.34-1.08.62-.07.42.29.92.57.88,1.51-.24.59-1.06,2.78-1.98M463.71,271.82c-.12.19-.36.44-.7.22-.19-.12-.36-.48-.15-.79.13-.19.45-.2.73-.22.26-.02.3.51.13.79M464.02,273.03c-.21-.68.21-.89.43-.91.42-.05,1.06-.33,1.37.23-.5.56-1.47,1.12-1.79.68"/>
  <path class="cls-1" d="M441.3,263.53c.38.11.58.91.96.91.55,0,1.5,0,1.18-.71l-1.76-.52c.88-.58,1.31-1.35,2.13-2.04.48-.41,1.07.02,1.05.27-.04.53-1.16.97-1.2,1.31-.04.29.01.53.17.64.9.62,2.5-1.58,2.6-2,.15-.58-.83-.84-1.33-.68-.23-.41-.11-.81-.36-.84-.34-.05-.87.03-1.27.21-.2-1.38-1.41-1.3-2.28-1.04-.66.2-1.47,1.23-.83,2,.26.31,1.77.62.8,1.14-.45.24-1.55.01-1.45.63.04.28-.33.96-.06,1.3.52.41,1.14-.71,1.64-.57M441.58,260.09c.16-.23.51-.2.69-.12.21.09.33.44.2.77-.09.21-.45.32-.77.17-.22-.1-.33-.51-.12-.82"/>
  <path class="cls-1" d="M454.98,275.66c-.78.2-1.49,1.73-1.96,2.35.14.46,1.37.56,1.05,1.19-.17.33-.78.57-.88,1.18-.04.29.94.21,1.18.4.21.17-.03.84.36,1.04.55.29,1.23-.2,1.58-.33.3-.11.3-1.22-.04-1.3-.86-.2-1.43.38-1.86-.43,1.44-.6,2.29-1.39,3.43-2.47-.99-.48-1.65-1.66-2.85-1.62M455.44,278.08c-.26-.1-.38-.48-.13-.79.15-.19.48-.16.69-.11.21.05.37.42.15.71-.13.16-.42.29-.71.18"/>
  <path class="cls-1" d="M481.03,281.68c1.25.05,1.27-.84.39-.84-3.97,1.98-2.32-.8-4.17.62.91.57.41,1.43.29,2.16.36.51,1.61,1.43,2.33,1.27.88-.19,1.41-1.12,2.39-1.44-.92-.62-1.71-.87-1.22-1.77M478.67,283.71c-.19-.51.39-.86.59-.76.24.12,1.03.08.99.68-.03.5-1.4.55-1.58.08"/>
</svg>